<?xml version="1.0" encoding="UTF-8" standalone="no"?>
<svg
   xmlns:dc="http://purl.org/dc/elements/1.1/"
   xmlns:cc="http://creativecommons.org/ns#"
   xmlns:rdf="http://www.w3.org/1999/02/22-rdf-syntax-ns#"
   xmlns:svg="http://www.w3.org/2000/svg"
   xmlns="http://www.w3.org/2000/svg"
   xmlns:sodipodi="http://sodipodi.sourceforge.net/DTD/sodipodi-0.dtd"
   xmlns:inkscape="http://www.inkscape.org/namespaces/inkscape"
   sodipodi:docname="drawing.svg"
   inkscape:version="1.0rc1 (09960d6, 2020-04-09)"
   id="svg8"
   version="1.1"
   viewBox="0 0 210 297"
   height="297mm"
   width="210mm">
  <defs
     id="defs2" />
  <sodipodi:namedview
     inkscape:window-maximized="1"
     inkscape:window-y="-9"
     inkscape:window-x="2551"
     inkscape:window-height="1361"
     inkscape:window-width="2560"
     showgrid="false"
     inkscape:document-rotation="0"
     inkscape:current-layer="layer1"
     inkscape:document-units="mm"
     inkscape:cy="560"
     inkscape:cx="400"
     inkscape:zoom="0.35"
     inkscape:pageshadow="2"
     inkscape:pageopacity="0.0"
     borderopacity="1.0"
     bordercolor="#666666"
     pagecolor="#ffffff"
     id="base" />
  <metadata
     id="metadata5">
    <rdf:RDF>
      <cc:Work
         rdf:about="">
        <dc:format>image/svg+xml</dc:format>
        <dc:type
           rdf:resource="http://purl.org/dc/dcmitype/StillImage" />
        <dc:title></dc:title>
      </cc:Work>
    </rdf:RDF>
  </metadata>
  <g
     id="layer1"
     inkscape:groupmode="layer"
     inkscape:label="Layer 1">
    <path
       style="fill:#304188;stroke:none;stroke-width:0.110782"
       d="m -502.53246,-186.30702 c -1.81074,1.96063 -4.5015,3.19687 -6.69355,4.63886 -0.82546,0.54295 -1.48309,1.38855 -2.24394,2.02519 -1.5486,1.29595 -3.1319,2.45828 -4.48576,3.94459 -2.72212,2.98814 -5.47471,6.14508 -7.81742,9.43829 -1.08436,1.52436 -1.59658,3.70341 -3.08693,4.91742 -0.0125,1.13066 -1.15053,2.35677 -1.66877,3.33071 -1.04754,1.96823 -1.91006,4.18709 -2.79887,6.23713 -0.62404,1.43936 -0.8745,3.03015 -1.40034,4.50898 -0.95416,2.68318 -1.94051,5.34975 -2.48212,8.13817 -0.30979,1.59485 -0.2149,3.25988 -0.4909,4.83725 -0.1746,0.99791 -0.67691,1.91939 -0.76584,2.97098 -0.0704,0.8324 0.27044,1.68602 0.12994,2.52942 -0.14047,0.84329 -0.67283,1.95437 -0.27606,2.83461 0.4017,0.89124 2.51035,0.55735 3.2805,0.57627 2.71328,0.0663 5.45183,-0.085 8.14638,0.14671 0.96239,0.0828 2.58787,0.40251 3.26503,-0.50182 0.56188,-0.75013 0.41893,-2.45607 0.68464,-3.38569 0.45062,-1.57683 0.49123,-3.25538 0.90414,-4.8389 0.25912,-0.99396 0.92846,-1.87486 1.13893,-2.85936 0.22486,-1.05136 0.20533,-2.13362 0.54045,-3.17058 0.46022,-1.42407 1.12276,-2.79766 1.6112,-4.19786 0.4331,-1.24129 0.6602,-2.63468 1.17687,-3.84902 0.31727,-0.74574 0.95492,-1.34621 1.28535,-2.09932 0.54592,-1.24393 0.78373,-2.61774 1.45899,-3.82064 1.84387,-3.28441 4.28924,-6.09923 6.74611,-8.92669 0.90179,-1.03783 1.63217,-2.35137 2.61655,-3.28946 4.0819,-3.88993 9.08356,-7.25242 14.17205,-9.63272 1.50262,-0.70286 3.14473,-0.97021 4.68529,-1.55043 4.14607,-1.56165 8.58987,-2.69539 13.05655,-3.00365 1.53655,-0.10601 3.14864,0.21105 4.68697,0.27879 0.61142,0.0269 1.18201,-0.24183 1.80448,-0.17761 5.23188,0.5402 10.21234,2.27693 14.82354,4.62193 1.53944,0.78291 3.22742,1.4674 4.65025,2.46773 0.77759,0.54658 1.32474,1.39437 2.07689,1.99033 4.45116,3.52712 8.12942,7.41639 11.19258,12.14422 0.54325,0.83834 1.28401,1.4983 1.84154,2.31927 0.77837,1.14704 1.28277,2.31674 1.91998,3.49072 0.94074,1.73222 2.08235,3.2567 2.88025,5.07755 0.41178,0.94029 1.55451,1.97021 1.66276,2.96933 l 1.32909,3.17498 1.11818,2.10383 0.78896,1.7596 0.44639,2.30948 c 0.69969,0.72957 0.97533,2.2381 1.29784,3.18499 0.67514,1.98197 1.4351,3.99165 2.21626,5.94294 0.38947,0.97273 0.21538,2.2094 1.18291,2.89202 1.0155,0.71659 2.66375,0.27735 3.78416,0.22896 1.2599,-0.0544 2.53208,0.28781 3.79421,0.28825 1.13938,9.4e-4 2.3446,-0.16991 3.45943,-0.10007 0.61042,0.0383 1.45408,0.28626 1.9038,-0.29122 0.39058,-0.50094 -0.0112,-1.2436 -0.009,-1.80821 0.003,-0.94711 -0.37161,-1.82471 -0.53454,-2.74773 -0.20645,-1.16629 -0.11494,-2.24217 -0.47874,-3.41088 -0.31581,-1.00946 -0.12833,-2.00584 -0.38054,-2.96933 -0.80905,-3.09161 -1.85023,-6.20798 -2.83227,-9.23791 -0.6305,-1.94766 -1.39157,-3.97934 -2.233,-5.82868 -0.29461,-0.64588 -0.82022,-1.21127 -1.06572,-1.86793 -0.21315,-0.56978 -0.1819,-1.20994 -0.40398,-1.76114 -1.43733,-3.57155 -3.77077,-6.86234 -5.83304,-10.11782 -8.1676,-12.88766 -20.51843,-22.74726 -35.11431,-27.74431 -2.78562,-0.95366 -5.70694,-1.21028 -8.59277,-1.66742 -1.02443,-0.16228 -1.98727,-0.67646 -3.01261,-0.79842 -1.10757,-0.13175 -2.27953,0.10614 -3.34827,-0.0238 -0.82323,-0.10006 -1.58944,-0.39068 -2.45508,-0.43888 -0.60819,-0.0339 -1.18022,0.19326 -1.78551,0.20807 -0.93227,0.0228 -1.85906,-0.19285 -2.78986,-0.15122 -1.39215,0.0623 -2.8316,0.36138 -4.2406,0.4668 -1.47528,0.1104 -3.00802,0.0177 -4.46377,0.17854 -2.27407,0.25129 -4.42874,1.22677 -6.58408,1.8791 -1.84141,0.55724 -3.79923,0.72836 -5.57537,1.5413 -1.53866,0.70428 -3.19595,1.36765 -4.69132,2.1553 -0.92478,0.48707 -2.09485,1.35324 -3.12464,1.52007 m 54.68128,-2.1995 c 0.34572,0.58584 1.30878,0.85297 1.8971,1.18894 1.67436,0.9559 3.45787,1.66689 5.13335,2.59849 3.81887,2.12351 7.32863,4.92722 10.54679,7.81715 1.47862,1.32828 3.52527,2.47004 4.53408,4.23184 0.3984,0.69702 0.99096,0.95183 1.54559,1.48917 0.82914,0.80425 1.52438,1.74586 2.18166,2.68988 0.32363,0.46487 1.15613,1.48753 0.49772,1.86958 -1.04899,-1.84285 -3.32664,1.06995 -4.24171,1.64457 -0.47316,0.29704 -1.6103,0.71462 -1.54111,1.43034 0.10824,1.14352 2.233,-0.27417 2.849,0.0268 0.46088,0.22501 0.71644,0.74332 1.14942,1.01133 0.3772,0.23315 0.99542,0.17376 0.96529,-0.37601 -0.0379,-0.71319 -0.6863,-1.28495 -0.85481,-1.97746 1.21972,-0.74068 1.58464,0.72386 2.39481,1.34796 0.36827,0.28385 0.91174,0.1355 0.94075,-0.36027 0.0167,-0.2943 -0.10825,-0.57968 -0.0993,-0.87772 l -0.55797,-0.54987 0.33478,-0.10997 c 0.7912,0.88771 1.26548,1.86462 1.98192,2.7596 0.60037,0.7508 1.44403,1.51073 1.47751,2.5192 0.75549,0.24151 1.16169,1.12538 1.54,1.7596 0.99319,1.66404 1.59022,3.57123 2.5332,5.27881 1.86139,3.37459 2.81552,7.27387 4.04753,10.88754 0.3571,1.0485 1.07354,1.99231 1.3793,3.0793 0.52785,1.87585 0.63274,3.83868 1.16729,5.7187 0.58252,2.045 0.86708,4.04478 1.16169,6.12717 0.0893,0.62806 0.58475,1.38612 0.35375,2.05597 -0.29461,0.85022 -1.56566,0.5897 -2.25086,0.61917 -1.9953,0.0861 -3.91472,-0.12659 -5.9145,-0.15661 -0.62381,-0.009 -1.64937,0.302 -2.17275,-0.15187 -0.57024,-0.49368 -0.5044,-1.45299 -0.68184,-2.11526 -0.41401,-1.53811 -0.94073,-4.21327 -2.05556,-5.38879 0.0245,-0.85286 -0.58253,-1.70539 -0.79121,-2.52942 -0.53342,-2.11647 -1.34025,-4.11582 -2.30666,-6.08009 -0.39951,-0.81172 -0.7209,-1.84252 -1.36592,-2.49797 -0.0134,-0.67228 -0.52226,-1.47059 -0.8057,-2.08953 -0.60931,-1.33048 -1.19407,-2.56231 -1.88149,-3.84913 -0.39839,-0.74431 -0.5881,-1.61993 -0.96864,-2.388 -0.3359,-0.67668 -0.91284,-1.23612 -1.28668,-1.90114 -1.14385,-2.03157 -2.27095,-4.14617 -3.62236,-6.04852 -0.9076,-1.27758 -2.1695,-2.39361 -3.157,-3.62918 -4.35821,-5.45268 -9.48888,-10.12343 -15.73036,-13.45315 -1.06606,-0.56868 -2.24472,-0.87914 -3.34783,-1.36853 -2.6651,-1.18235 -5.47036,-2.31014 -8.36959,-2.84704 -0.69389,-0.12845 -1.42093,0.0248 -2.12029,-0.0575 -1.28367,-0.15143 -2.63642,-0.52788 -3.90581,-0.59749 -1.13536,-0.0624 -2.32473,0.12493 -3.45942,0.17354 -0.80103,0.0343 -1.66913,-0.14968 -2.45508,-0.0546 -0.6573,0.0796 -1.28289,0.39217 -1.94442,0.47201 -1.35219,0.16321 -2.74601,0.13274 -4.08168,0.3869 -0.54268,0.10326 -1.02656,0.45287 -1.56232,0.6031 -1.15902,0.3252 -2.31995,0.3859 -3.45943,0.74079 -0.8864,0.27593 -1.69523,0.83604 -2.56667,1.16068 -8.10668,3.02058 -14.80189,7.77623 -20.52334,14.20296 -1.17274,1.31728 -2.57973,2.51953 -3.62235,3.93711 -3.05847,4.15838 -5.27273,8.74984 -7.0655,13.52738 -0.26135,0.6967 -0.88974,1.19763 -1.16515,1.87123 -0.62047,1.51777 -0.65919,3.16322 -1.10144,4.72728 -0.62382,2.20577 -1.4052,4.35414 -1.98125,6.56705 -0.30655,1.1774 -0.67169,2.44431 -0.82937,3.66063 -0.11015,0.85022 0.0753,1.99341 -0.50742,2.72431 -0.49928,0.62631 -1.98806,0.51391 -2.70862,0.44628 -1.20589,-0.11305 -2.58854,-0.25734 -3.79421,-0.16837 -1.35809,0.1003 -3.12588,0.50962 -4.45679,-0.1102 -0.70903,-0.33015 -0.30643,-1.83857 -0.21984,-2.45211 0.34391,-2.43672 0.71543,-4.84309 1.09063,-7.25836 0.9203,-5.92425 2.94485,-11.94517 5.40409,-17.37607 0.1867,-0.41252 0.10937,-0.87199 0.29093,-1.27307 0.42306,-0.93413 1.26403,-1.67877 1.7267,-2.59476 1.48019,-2.93072 3.15098,-5.69627 4.76207,-8.55936 1.34181,-2.3847 3.1935,-4.14199 4.96886,-6.19039 0.4812,-0.55527 0.70929,-1.29012 1.22553,-1.84703 1.31726,-1.42088 2.88851,-2.48951 4.35028,-3.74532 3.68575,-3.16651 7.73339,-6.18973 12.10399,-8.37494 7.68695,-3.8433 16.65,-5.87729 25.22034,-6.38934 1.41713,-0.0847 2.84075,0.25208 4.24059,0.25431 1.19674,0.002 2.36837,-0.17547 3.57103,-0.0915 0.65885,0.046 1.16103,0.41665 1.7855,0.52763 0.51624,0.0918 1.05089,-0.0977 1.56233,-0.009 3.27351,0.56593 6.57503,1.41469 9.78839,2.27118 1.63721,0.43638 3.11884,1.35621 4.83048,1.48961 m -19.08265,0.43991 c -0.7584,-1.41494 -1.95368,-1.85694 -3.57102,-1.53966 -0.33468,0.0657 -0.94053,0.0467 -1.14697,0.35742 -0.61567,0.92698 -0.26594,2.48324 -0.41536,3.49171 h -0.11159 v -0.98977 -0.10998 c -0.48299,-0.55339 -0.0521,-1.4366 -0.47595,-2.08897 -0.9586,-1.47565 -3.67592,-0.91401 -4.34739,0.55361 -0.38433,0.83999 0.35253,1.36985 -0.64479,2.08524 -0.12856,-1.97285 -1.33132,-2.83241 -3.23624,-2.43221 -0.49325,0.1037 -1.25097,0.0653 -1.49536,0.59617 -0.31604,0.68625 -0.10591,2.64909 0.17966,3.34424 0.15021,0.36577 0.42841,0.79787 0.87099,0.774 1.27799,-0.0688 0.30622,-1.81129 0.41335,-2.50215 0.0673,-0.43418 0.54279,-0.94073 1.02354,-0.72232 1.05134,0.47751 0.18213,2.9084 1.79712,2.77698 0.2262,-0.0184 0.4552,-0.11899 0.67013,-0.18508 l 0.33478,-0.98978 c 0.24573,1.49522 3.21894,1.20412 4.23624,0.78555 0.37317,-0.15363 0.65037,-0.4873 1.0087,-0.67558 -0.0618,0.70396 0.84287,0.89707 1.20724,0.30485 0.41802,-0.67942 -0.2637,-3.04972 1.01907,-3.0815 0.52405,-0.0131 0.50888,0.66645 0.53387,1.01705 0.0491,0.6902 -0.008,2.58464 0.92412,2.66723 0.58173,0.0515 0.98225,-0.56483 1.56064,-0.4994 1.19094,0.13472 2.56322,1.27406 3.87244,0.4366 1.21827,-0.77917 0.71777,-3.24877 0.76196,-4.47401 0.0147,-0.40811 0.18213,-1.2613 -0.31603,-1.47124 -0.68887,-0.29034 -1.0049,0.64434 -1.43142,0.93863 -0.48767,0.33642 -1.11672,0.26471 -1.65506,0.46003 -0.65707,0.23854 -1.05557,0.73309 -1.56667,1.17234 m 6.47248,1.3197 c -1.54715,0.30716 -1.40375,1.90334 -0.38054,2.73739 0.61466,0.50105 2.0578,0.51919 2.8336,0.43946 0.87111,-0.0895 0.62192,-1.12989 0.76052,-1.74718 0.35297,-1.57264 0.53332,-2.59882 -1.32083,-3.18334 -1.33221,-0.41988 -2.83696,0.36138 -1.89275,1.75367 m -4.23412,-1.33983 c 1.11014,-0.25371 1.35386,2.14759 0.3167,2.29749 -1.06248,0.15364 -1.284,-2.07633 -0.3167,-2.29749 m 12.38051,5.18895 c 0.668,1.96273 1.36491,2.11274 3.01305,0.8798 0.0512,0.37524 -0.0918,0.73914 -0.0399,1.0992 0.10992,0.76213 1.08849,0.77236 1.57683,0.36864 0.76955,-0.63631 0.49716,-1.98131 1.0298,-2.67756 -9.5e-4,-0.82152 0.74912,-1.65073 0.58888,-2.49754 -0.12298,-0.64995 -0.89979,-0.69163 -1.3696,-0.43099 -0.94811,0.5259 -1.7825,1.73134 -2.56712,2.48863 l -0.33478,-0.4399 c 0.14574,-0.60311 0.0913,-1.15035 0.0335,-1.75961 -0.0421,-0.44331 0.11516,-0.87573 0.0566,-1.31805 -0.15256,-1.15133 -1.53097,-0.74959 -2.03929,-0.10998 -0.66421,0.83593 -0.77992,1.99946 -1.14283,2.96768 -0.20132,0.53756 -0.57851,1.14914 -0.51881,1.75312 0.0998,1.00935 1.4235,-0.0257 1.71376,-0.32344 m -34.59428,-2.63941 c -0.19685,0.6857 -0.31593,1.75059 -1.00435,2.08953 -0.35543,-0.46288 -1.1251,-0.48906 -1.44604,-1.03101 -0.27319,-0.46146 0.82021,-1.92325 -0.12287,-1.98825 -0.69278,-0.0478 -1.00725,1.10878 -1.65405,0.94821 -0.47316,-0.11745 -1.56969,-2.85177 -2.24048,-1.00352 -0.35465,0.97746 1.05133,2.15067 0.99966,3.18455 0.84321,0.2613 0.85303,1.96723 1.79667,2.09821 0.86218,0.11988 0.35487,-1.40504 0.90816,-1.51798 0.55005,-0.11218 1.16114,0.60277 1.75895,0.623 0.62928,0.0213 0.9913,-0.37754 1.56232,-0.50896 1.25778,-0.28945 2.35453,-0.14462 3.54592,-0.8655 0.59524,-0.36017 0.23914,-0.96976 0.0894,-1.4784 -0.32049,-1.08842 -0.85369,-2.70506 -2.18457,-2.84462 -0.68396,-0.0718 -1.90871,0.27824 -2.37428,0.79281 -0.48756,0.53899 -0.40621,1.38063 0.36558,1.50193 m 28.12181,-1.7596 c -0.15881,0.50908 -0.45108,0.48741 -0.78117,0.10998 l 0.78117,-0.10998 m -1.56233,0.32993 -0.11159,0.10997 0.11159,-0.10997 m -12.0522,0.10997 -0.11159,0.10998 0.11159,-0.10998 m -2.34348,0.65985 -0.33479,0.21995 0.33479,-0.21995 m 15.95801,0.8798 -0.1116,0.32993 h -0.78116 v -0.32993 h 0.89276 m 12.0522,6.15861 c 0.29304,-0.019 0.7681,-0.25096 1.03693,-0.15473 0.39515,0.14154 0.50039,0.82272 0.68318,1.1444 0.28032,0.49357 0.87479,0.99714 1.41446,1.20665 0.65183,0.25294 1.56679,-0.46905 2.10679,-0.0104 0.23691,0.20115 0.28189,0.5733 0.48097,0.81481 1.06193,1.28814 1.82223,1.93017 3.42841,1.17838 0.007,0.43946 -0.22688,0.99539 -0.0442,1.4134 0.35085,0.80271 1.44325,0.0194 1.8297,-0.31365 -0.68196,2.5401 1.7825,4.06853 4.0174,3.18928 -0.17085,0.38569 -0.94922,1.35567 -0.39359,1.72298 1.05122,0.69494 1.99865,-1.82767 3.06516,-1.19983 1.0077,0.59288 -0.52114,1.94008 -0.87155,2.43639 -0.24651,0.34983 -0.52494,0.89135 0.10378,1.04708 1.04564,0.2591 3.64021,-2.84605 2.44838,-3.56672 0.0848,-0.58166 -0.37607,-0.76333 -0.7767,-1.11845 -0.92511,-0.81876 -1.3927,-1.09436 -2.57113,-0.4212 l 0.1116,-0.32993 c -0.14642,-0.4587 0.0986,-0.94468 -0.0578,-1.42967 -0.61121,-1.89399 -2.54971,-1.88773 -4.18279,-1.7596 l 0.55798,-1.75961 c -1.84187,-0.41493 -1.74177,0.74091 -2.90146,1.75961 l 0.11159,-1.42968 c 2.06172,-1.05763 -0.0274,-3.13638 -1.67391,-3.04422 -1.62392,0.0908 -1.09675,1.62037 -2.1203,2.27439 l -0.44637,-2.1995 c 1.23624,-0.46223 1.40319,-1.47312 0.11326,-2.12164 -1.06505,-0.53536 -1.78082,-0.44078 -2.90313,-0.18784 0.10836,-0.39349 0.10926,-0.81018 0.23525,-1.19993 0.13469,-0.41648 0.80169,-2.43772 -0.55351,-1.65634 -0.41904,0.24172 -0.36302,0.87738 -0.63464,1.24899 -0.97968,1.34004 -2.37573,2.78863 -1.61376,4.46664 m -49.88272,-1.53965 c 0.29059,1.6935 3.01282,1.58606 4.00133,0.62641 0.63128,-0.61289 0.64222,-1.57396 -0.31872,-1.72617 1.57738,-2.1322 -1.98057,-3.16684 -3.43789,-2.00122 -0.4764,0.38107 -0.54983,1.10394 -0.57337,1.6713 -0.0208,0.49796 -0.13559,1.13307 0.32865,1.42968 m 2.0087,-1.97956 v 0.21995 l -0.66957,0.10998 0.66957,-0.32993 m -4.129,2.74938 c -0.93583,0.32619 -1.15746,-0.4873 -2.0087,-0.70197 -0.83361,-0.21016 -0.94342,0.48609 -1.57393,0.74607 -0.33836,0.13934 -0.7681,0.0384 -1.03537,0.34235 -0.29796,0.33895 -0.0425,0.85099 0.18357,1.15155 0.5197,0.69098 1.65049,3.03213 2.7441,2.64281 0.40565,-0.14439 0.43991,-0.64995 0.30276,-0.99153 -0.25455,-0.63401 -1.20053,-2.22733 -1.84867,-2.41945 v -0.43991 c 1.45073,0.36017 2.52962,2.3571 4.12843,2.17707 1.35577,-0.15253 0.44125,-2.58199 0.19697,-3.38679 -0.0899,-0.29639 -0.0575,-0.65545 -0.23223,-0.92005 -0.69624,-1.05367 -1.11929,0.3142 -1.06974,0.92005 0.0251,0.30606 0.11929,0.58903 0.21281,0.8798 m 5.57972,-1.86958 c -0.39571,0.7673 -0.48554,1.24745 -1.45072,1.20973 -0.1953,-0.8666 0.76899,-1.05565 1.45072,-1.20973 m -10.78884,0.88893 c -0.5101,0.29166 0.009,0.91709 0.487,0.69394 0.51936,-0.24238 -0.0349,-0.9526 -0.487,-0.69394 m 59.44402,0.43077 v 0.10998 l -0.55797,0.10998 0.11159,-0.32993 0.44638,0.10997 m -60.48419,4.83891 c -1.32396,0.0452 -2.76743,-1.62004 -4.01082,-1.31464 -0.50038,0.12295 -0.51009,0.7067 -0.19428,1.01683 0.53353,0.52381 1.90268,1.28242 2.64278,1.39756 0.0691,0.48037 0.8248,0.54405 1.22084,0.73321 1.14485,0.54657 2.03961,0.7189 2.08313,-0.84318 0.0415,-1.49545 -0.66231,-3.31212 -1.12531,-4.72893 -0.14898,-0.45607 -0.74713,-0.94183 -1.19551,-0.4806 -0.93238,0.95899 0.50362,3.16509 0.57917,4.21975 m 70.19291,-2.08953 c 2.11293,0.38503 0.49626,-1.87375 0,0 m -6.47248,0.32993 -0.11159,0.10997 0.11159,-0.10997 m 1.74835,0.7332 -0.0373,0.0733 0.0373,-0.0733 m 2.38064,0.25657 -0.11159,0.10998 0.11159,-0.10998 m 4.01707,2.30541 c 1.3427,-0.0245 0.66711,2.28529 -0.4456,2.25779 -1.37305,-0.0339 -0.67637,-2.23733 0.4456,-2.25779 m -79.23172,6.38263 c -0.8258,-0.10591 -1.58576,-0.6692 -2.45508,-0.50776 -1.12231,0.2084 -2.66711,1.54977 -2.40074,2.81295 0.11127,0.52766 0.69848,0.95953 1.0616,1.32399 -0.63686,-3.1e-4 -1.64969,-0.25295 -2.23188,0.007 -0.65094,0.291 -0.91207,1.10294 -1.56367,1.35721 -0.48599,0.1897 -2.02554,-0.21875 -1.8413,0.71692 0.22018,1.11779 1.96138,1.2645 2.40062,2.20764 l 0.33478,-0.21995 0.33479,0.32993 v 0.54987 c -0.94388,0.0928 -0.86632,-0.65193 -1.67448,-0.73441 -1.91228,-0.1952 -2.65104,2.19576 -2.11974,3.59377 -0.7979,0.0273 -1.71989,-0.9669 -2.40664,-0.5149 -0.89868,0.59133 0.48889,1.20554 0.51099,1.72671 0.0403,0.95184 -0.90559,1.62929 -0.71533,2.63303 0.18179,0.95832 2.53632,1.52668 3.28054,2.09382 -0.52314,0.19993 -1.20399,0.60222 -1.78383,0.50544 -0.7055,-0.11778 -0.80114,-0.94128 -1.36179,-1.2359 -1.1386,-0.59837 -1.29214,1.20181 -1.09496,1.83021 -0.64167,0.0368 -1.95971,-0.25954 -2.37719,0.355 -0.28735,0.42285 0.16081,0.76542 0.4822,0.97735 0.66879,0.441 1.74501,1.05378 2.56456,0.97712 0.5246,0.68306 3.1108,1.68526 3.57637,0.41087 0.22353,-0.6119 -0.81642,-0.93677 -0.57214,-1.49027 0.47606,-1.07842 1.75348,-0.65303 1.45954,-2.21985 0.76219,-0.25844 0.97065,-0.87364 0.3282,-1.42374 -0.61243,-0.52447 -2.63988,-0.92467 -2.15756,-2.08182 0.40977,-0.98318 2.14975,0.39514 2.83148,0.27493 0.4581,-0.0807 0.56322,-0.51567 0.24673,-0.81931 -0.71945,-0.69032 -1.80269,-1.11317 -2.58798,-1.77874 l 1.00435,0.32992 1.11594,-0.32992 c 0.34673,1.41318 1.59457,1.46531 2.61231,0.41956 0.79066,-0.81239 0.98606,-1.67504 0.62394,-2.72904 2.48197,-0.83504 0.28757,-2.44178 -1.11595,-3.0793 0.47506,-1.72419 1.81977,0.24942 2.7999,0.3859 1.05457,0.14671 1.26716,-0.9823 0.99431,-1.70561 2.52962,-0.64533 -0.43645,-2.13648 -0.78116,-3.62917 l 0.33479,-0.32993 c 0.57158,0.3715 2.80213,1.99297 3.3937,1.4575 0.38722,-0.35049 0.14517,-1.01408 0.17731,-1.4575 1.76465,0.3362 2.27787,-1.82515 3.57103,-2.41945 -0.0485,-0.64479 -0.50039,-0.93776 -0.87222,-1.43122 -1.29004,-1.7122 -4.01852,-2.51832 -4.86854,0.22149 -0.34996,1.12802 0.62828,1.63357 0.9422,2.6394 m -6.36088,58.28683 -0.43132,3.07931 -0.92445,5.16883 -0.0576,3.739155 -0.21996,4.61731 0.71175,4.07073 0.95514,4.72893 0.74757,1.86958 0.2232,1.64963 0.59512,1.17343 1.76699,3.88542 0.94856,1.44838 0.53934,1.39228 2.32484,3.5379 2.26916,2.41946 2.12029,2.1995 0.92992,0.76983 1.89711,2.08952 h 0.44638 c 0.0697,0.43441 0.21302,0.63896 0.66956,0.65985 0.76643,1.13604 1.88862,1.57485 3.0087,2.31278 0.59893,0.39371 1.30298,0.97328 2.01305,1.09645 0.41681,1.01177 2.38533,1.74751 3.34951,2.2193 2.25286,1.10195 4.45708,2.09723 6.79554,2.94953 1.11639,0.40691 2.13424,0.86001 3.35788,0.87981 0.46858,0.57956 1.43901,0.67635 2.1203,0.88309 2.20633,0.67086 4.63976,0.97548 6.9184,1.22183 6.99899,0.75993 13.80055,0.16497 20.64542,-1.3252 1.62571,-0.35412 3.46378,-0.73464 5.02175,-1.3109 1.29706,-0.4806 3.07287,-1.61994 4.46378,-1.55836 0.42183,-0.51687 1.10612,-0.8611 1.78552,-0.87979 1.22039,-1.83109 4.81061,-1.7684 5.9145,-3.73916 l 0.33478,0.10998 c 0.54101,-1.16134 2.4476,-1.52536 3.31,-2.41946 3.81263,-3.9536 7.62515,-7.60148 10.36144,-12.42718 0.65841,-1.16025 1.33132,-2.27209 1.81676,-3.51921 0.16181,-0.41571 0.48209,-0.76763 0.46981,-1.20973 l 0.33478,-0.10998 0.44638,-1.7596 c 0.41848,-0.0572 0.58029,-0.94029 0.72201,-1.3263 0.22096,-0.60046 0.25333,-1.26802 0.46312,-1.86298 0.32474,-0.9194 0.96864,-1.74531 0.71197,-2.74938 0.5457,-0.40361 0.28346,-1.05686 0.41737,-1.63093 0.385,-1.65733 0.74099,-3.24317 0.80013,-4.96868 0.1328,-3.82691 0.0815,-7.66714 -0.70416,-11.437965 -0.27341,-1.31266 -0.52449,-2.79744 -0.9374,-4.06743 -0.33924,-1.04312 -1.16057,-2.31388 -1.13826,-3.40924 l -1.00435,-1.64963 c -0.27229,-1.69185 -1.77993,-3.32267 -2.54658,-4.8389 -1.44292,-2.85771 -3.359,-6.03192 -5.63775,-8.34932 -3.2002,-3.25416 -7.12163,-5.9115 -10.93023,-8.38384 -2.03348,-1.32015 -4.24416,-2.29023 -6.37629,-3.43695 -0.37686,-0.20268 -1.6266,-0.0669 -1.79098,-0.34048 -0.20042,-0.33366 0.16048,-1.02265 0.2242,-1.37447 0.2329,-1.28627 0.51188,-2.52701 0.4457,-3.84912 -0.084,-1.67856 -0.52248,-3.20171 -0.80437,-4.8388 -0.19774,-1.14836 -0.054,-2.38855 -0.29249,-3.51932 -0.54971,-2.60795 -1.73407,-5.26484 -3.16716,-7.47875 -0.72279,-1.11668 -1.60975,-1.98868 -2.50976,-2.96888 -0.46434,-0.50578 -0.94442,-1.10174 -1.65494,-1.20973 0.0377,1.25009 1.28511,1.81074 1.93192,2.76851 0.49994,0.74002 0.72905,1.77082 1.5275,2.29034 -0.14083,0.74761 0.40432,1.42704 0.70261,2.08953 0.46713,1.03773 0.71062,2.21523 1.06137,3.29926 1.18859,3.67273 2.62838,8.45203 1.71699,12.31721 -0.14742,0.62488 -0.69289,1.08975 -0.97511,1.64963 -1.49481,2.96592 -3.87646,5.99353 -7.08123,7.35294 -0.72324,0.30683 -1.50273,-0.27495 -2.24918,0.004 -1.05769,0.39558 -0.87122,1.5181 -1.57951,2.15892 -1.21884,1.10283 -3.05613,1.51832 -4.63351,1.80535 -2.05736,0.37425 -4.72145,-0.50489 -6.2108,-2.00374 -0.68218,-0.68647 -0.77971,-1.70891 -1.47851,-2.35864 -0.67013,-0.62334 -1.76409,-0.25778 -2.59469,-0.47652 -0.93325,-0.2458 -2.07174,-1.18136 -2.77088,-1.82174 -0.81532,-0.74673 -2.07331,-2.20291 -2.49246,-3.23118 -0.38925,-0.95481 -0.34974,-2.38382 -0.98761,-3.18928 0.47393,-0.72242 0.12911,-2.01419 0.23736,-2.85979 0.1579,-1.23447 0.88505,-2.75939 1.49346,-3.8389 1.26939,-2.25196 3.00279,-4.88829 4.85759,-6.71398 1.44817,-1.42517 3.35453,-2.53603 4.5072,-4.23999 0.37786,-0.55856 0.80761,-1.46728 0.89923,-2.14077 0.0686,-0.50501 -0.36012,-0.6019 -0.61221,-0.22204 -0.42986,-0.50248 -0.16561,-1.56374 -0.59391,-1.84989 -0.57069,-0.3814 -1.58319,-0.0962 -2.19596,-0.0108 -1.45608,0.20312 -2.46936,0.4321 -3.7942,1.17762 -1.01909,0.57341 -2.15612,1.66183 -3.34784,1.7828 0.0923,-0.36644 0.32061,-0.71253 0.31548,-1.0981 -0.009,-0.68097 -0.37719,-1.2701 -0.26437,-1.98076 0.0835,-0.52667 0.66868,-0.76466 0.73887,-1.21512 0.0425,-0.27295 -0.30599,-0.39964 -0.40977,-0.61256 -0.12979,-0.26592 0.10411,-0.6869 0.2224,-0.92258 0.74847,-1.49247 2.63229,-1.78347 4.08436,-2.29408 2.57136,-0.90422 5.55797,-1.73024 8.36958,-1.31123 1.12588,0.16782 2.37038,0.7112 3.45943,1.06489 0.43109,0.13999 0.91977,0.0644 1.32909,0.2647 1.17431,0.57484 2.51489,1.53229 3.5621,2.3262 0.94609,0.71737 1.55998,1.51029 2.80883,1.59959 -0.16092,-0.79655 -0.76922,-1.14254 -1.33914,-1.65986 -1.44057,-1.30771 -3.29984,-2.73783 -5.35653,-2.73915 -0.15668,-0.49071 -0.58185,-0.6086 -1.00435,-0.86572 -1.44459,-0.87881 -2.8384,-0.71924 -4.46378,-0.91093 -2.80716,-0.33102 -5.13212,0.39548 -7.70001,1.25955 -3.44202,1.15815 -6.591,2.61884 -9.59657,4.74444 -1.28055,0.90553 -2.48566,2.22952 -3.6189,3.32795 -5.19383,5.0339 -8.81931,11.17634 -11.87086,17.62902 -0.51422,1.08733 -1.31435,2.09536 -1.79186,3.19357 -0.34562,0.79478 -0.42329,1.7409 -0.79557,2.52514 -0.31737,0.66886 -0.95435,1.14605 -1.28578,1.80513 -0.19028,0.37854 -0.0613,0.81128 -0.25578,1.17695 -2.3138,4.34764 -4.72647,8.68111 -7.11872,12.99576 -1.27452,2.2987 -2.72581,4.6712 -3.69511,7.11693 -0.56802,1.43309 -0.80929,3.52922 -1.93036,4.61897 m 8.59276,-59.82649 0.33479,0.21996 -0.44638,0.54987 0.11159,-0.76983 m 88.82919,2.30948 0.11159,0.10998 -0.11159,-0.10998 m -37.94212,2.63941 c -1.30666,0.41724 0.25322,1.10602 0,0 m 38.50009,7.80823 c -0.34371,1.41043 -1.2108,3.0561 0.24886,4.2953 1.23646,1.04916 3.50071,-0.61751 4.5497,-1.26614 0.48655,-0.30079 1.1762,-0.43881 1.34136,-1.05389 0.31582,-1.17729 -1.01104,-0.56033 -1.57683,-0.83835 -0.44861,-0.22038 -0.49101,-0.78467 -0.88717,-1.075 -0.65952,-0.48279 -1.76542,-0.57814 -2.55997,-0.61179 0.57582,-0.79095 1.07353,-1.6107 0.78785,-2.63941 -0.55016,-1.98197 -3.10679,-2.06797 -4.44146,-0.83647 -1.92835,1.77896 0.2868,4.55396 2.53766,4.02575 m -48.76677,36.51174 c -0.49493,-0.88882 -2.35108,-0.97911 -2.67827,0.10998 -0.33635,0.0599 -1.10501,0.33421 -1.41212,0.22105 -0.46233,-0.17025 -0.76453,-1.02509 -1.35666,-0.74476 -0.67447,0.31926 -0.20242,0.89707 -0.33489,1.38767 -0.0867,0.32101 -0.58989,0.53074 -0.80214,0.78566 -1.40486,-0.28561 -1.81218,0.049 -1.33913,1.42968 l -1.33913,0.65985 -1.45073,-0.54988 c -9.5e-4,1.19829 -0.59491,1.78842 -0.1116,2.96933 l -2.0087,-0.32993 c 0.0404,0.52173 0.70974,0.76917 0.69501,1.16255 -0.026,0.68966 -1.44537,0.10272 -0.91819,1.36688 l 0.66956,-0.10997 c -0.32887,0.44726 -3.34694,-0.55747 -2.23735,0.68691 0.11159,0.12525 0.23456,0.24359 0.35274,0.36291 0.17375,0.17531 0.35443,0.33335 0.54548,0.48984 -0.385,0.87573 -0.22832,1.08656 0,1.97955 -0.94465,-0.008 -2.89867,-1.01089 -3.45943,-0.10997 0.73317,0.20554 2.90146,0.95315 3.12465,1.64962 -0.40398,0.39437 -0.0751,0.87573 -0.40365,1.25636 -0.59547,0.68988 -2.14127,0.21896 -2.94419,0.39327 v 0.21995 l 3.23624,0.98978 c -0.13648,0.32684 -0.33222,0.97537 -0.62359,1.18993 -0.66309,0.48839 -2.26001,-0.18355 -2.65918,-0.76433 -0.38199,-0.5557 -0.32664,-1.49269 -0.77012,-1.93028 -0.57817,-0.57067 -1.49191,-0.0878 -2.16459,-0.72792 -0.5793,-0.55131 -1.26883,-1.89752 -2.2637,-1.54978 -1.88606,0.65941 -0.82937,2.26384 -0.66354,3.56243 0.21136,1.65512 0.29137,3.73365 0.82435,5.305865 0.19819,0.58473 0.76631,1.05488 0.91976,1.63236 0.32977,1.24118 0.0791,2.28275 1.15132,3.28947 -0.15054,0.55383 0.1588,0.8908 0.21069,1.42967 0.20009,2.07743 1.06439,4.77402 2.80236,6.15861 -0.14284,1.32849 0.79801,2.21929 1.11595,3.40923 -1.33133,0.13966 -2.5823,-0.10558 -3.90581,-0.10997 -0.50218,-9.4e-4 -1.19261,-0.0165 -1.39817,0.55427 -0.21214,0.58946 0.32642,1.3395 0.51691,1.86408 0.17542,0.48279 0.28111,0.83141 0.65807,1.21083 v 0.10997 c -1.09943,1.20202 -4.00501,-0.10118 -4.91116,1.43957 -0.41725,0.71044 0.98951,1.10855 1.40442,1.3428 0.53632,0.30243 1.13826,0.36842 1.71118,0.56857 1.19808,0.41681 2.72603,1.29001 4.02745,1.15804 v 0.10997 l -0.33479,1.09975 c -0.43622,0.0572 -0.60718,0.43441 -0.85102,0.76983 -0.47974,0.65986 -1.98024,2.90444 -0.91339,3.5159 0.53621,0.30794 1.49905,0.10668 2.09931,0.11658 2.19662,0.0352 4.35955,-0.28594 6.47237,-0.8677 0.64345,-0.17706 1.58788,-0.8919 2.23188,-0.80832 0.89711,0.11437 1.79802,1.3318 2.56701,1.79039 1.45341,0.86771 3.04609,1.48027 4.57504,2.19621 0.91441,0.4289 1.77257,1.02827 2.78986,1.20532 0.12276,0.65106 0.49504,1.46487 0.50999,2.08954 0.0159,0.66424 -0.31882,1.83328 0.11528,2.40295 0.3523,0.4619 1.28679,0.38931 1.65539,-0.0231 0.50664,-0.56638 0.69479,-1.99935 0.6208,-2.70979 l 0.33479,-0.10998 h 0.11159 l 0.33478,0.87981 c 1.0202,0.0792 1.99286,-0.15397 2.98114,-0.0836 0.72034,0.0517 1.41858,0.32442 2.1522,0.3948 1.13035,0.10778 3.81799,-0.57626 1.99699,-2.00813 -0.61622,-0.4839 -1.29115,-0.27275 -1.99699,-0.33323 -1.4784,-0.12757 -4.66219,-1.09316 -5.35653,0.82041 l -0.22318,-0.10998 -0.1116,0.32993 0.1116,-0.76982 c -0.36927,-0.36073 0.26168,-0.56308 0.55808,-0.69725 0.77804,-0.35302 1.70393,-0.91389 2.56656,-0.95238 0.39214,-0.66975 1.53141,-0.69505 2.23189,-0.65985 0.16806,0.73023 0.62872,1.13824 1.33913,1.39118 0.58989,0.21005 1.07979,-0.27714 1.67392,-0.26174 1.37105,0.0341 4.53006,1.38459 5.34905,-0.35962 0.2695,-0.57407 -0.26414,-1.2779 -0.77379,-1.51875 -0.75862,-0.35742 -2.232,-0.10558 -3.12454,-0.29693 -0.5092,-0.10998 -1.54346,-0.33323 -1.15254,-1.03927 1.41546,-2.55582 3.81407,-0.79402 5.83951,-0.22325 0.93103,0.26174 1.95335,0.12427 2.89979,0.26833 0.97343,0.14847 3.20387,0.39152 3.46065,-0.92928 0.27887,-1.43517 -1.75125,-2.51733 -1.79879,-3.84363 -0.03,-0.83361 1.98337,-1.04806 2.58039,-0.99528 0.28825,-0.40251 0.86006,-0.38931 1.32017,-0.51578 0.95669,-0.26284 3.68283,-0.9216 3.93705,-2.01365 0.21314,-0.91609 -1.67303,-1.09315 -2.26313,-1.17233 -1.07031,-0.14296 -1.78161,-0.40251 -2.88416,-0.29143 -0.26672,0.0264 -0.61087,0.0187 -0.77201,-0.23315 -0.24808,-0.38931 0.0716,-1.17124 0.10412,-1.60234 0.19093,-0.20235 0.31625,-0.38932 0.39794,-0.65985 0.6131,-2.03344 -2.16237,-1.13825 -3.18781,-1.42968 l 0.78117,-2.41945 h 0.11159 c 0.29918,0.408 0.58866,0.76982 1.11606,0.8776 0.67145,0.13857 1.28377,-0.21115 1.9443,-0.19135 1.29952,0.0396 4.71922,1.48136 5.34337,-0.57627 0.18938,-0.62466 -0.39404,-1.39449 -1.03861,-1.40658 -0.49882,-0.009 -0.93784,0.30023 -1.44615,0.25953 -1.53208,-0.12097 -2.89331,-0.83911 -4.46836,-0.47399 -0.45642,0.10668 -0.80538,0.4465 -1.22742,0.63126 -0.41056,-2.01805 -0.35231,-4.04159 -0.70629,-6.04863 -0.33634,-1.9073 -1.24237,-4.03202 -1.92723,-5.8244 -0.3388,-0.88684 -1.24595,-1.58826 -1.61835,-2.515025 -0.18848,-0.46893 0.30767,-1.03718 0.0434,-1.40064 -0.48856,-0.67206 -1.90325,-0.82547 -1.89621,-2.0241 0.008,-1.38832 2.79789,-0.23051 3.23635,-0.80534 0.67067,-0.87925 -0.41893,-2.10097 -0.62906,-2.94129 -0.17878,-0.71451 0.0206,-1.63907 -0.11573,-2.41516 -0.32485,-1.84825 -1.21012,-2.28694 -2.51902,-3.40803 -0.39683,-0.33993 -0.80538,-0.96987 -1.25644,-1.20357 -0.54815,-0.28396 -1.92913,0.22248 -2.65494,0.0921 -0.2627,-0.0473 -0.72403,0.006 -0.79176,-0.34444 -0.0693,-0.35852 0.33991,-1.14726 0.45698,-1.51458 -0.85918,-0.17464 -2.13481,1.17453 -2.90146,0.32993 l -0.22319,0.10998 -0.1116,-0.10998 0.66957,-1.7596 c -0.61265,0.0146 -0.90291,0.37402 -1.45072,0.50291 -0.84433,0.19873 -0.97099,-0.2778 -1.45074,0.70681 l 0.44639,0.32993 h -0.78117 c -0.21761,-1.12274 0.6718,-2.27374 0.58231,-3.40274 -0.078,-0.98363 -1.01596,0.37391 -1.02869,0.87331 l -0.33478,-0.21995 c -0.58665,0.0112 -0.98114,-0.22897 -1.22754,0.43991 l -0.44638,-0.21995 -0.0584,-2.19951 -0.19585,-0.70043 -0.75014,1.03036 c -1.10455,-0.53228 -1.62972,-4.09471 -0.8143,-5.08877 0.50106,-0.6107 1.54603,-0.76576 2.26503,-0.96976 1.11796,-0.31718 2.27597,-0.83999 3.34783,-1.2899 3.00658,-1.26175 5.66186,-3.21227 8.13647,-5.27881 1.08815,-0.90872 2.16426,-3.33719 3.80403,-3.3748 0.50742,-0.0117 0.83115,0.40185 1.232,0.64082 0.99018,0.59035 1.99331,0.96305 2.897,1.68867 2.79588,2.24492 5.80436,4.26395 8.11927,7.05545 1.73798,2.0958 3.52237,4.26879 5.02164,6.5356 0.88584,1.33939 1.52293,2.92194 2.29605,4.31389 0.46982,0.84472 1.16617,1.59101 1.60139,2.47609 0.53565,1.08656 0.80013,2.37382 1.15388,3.51921 0.73541,2.38097 1.5746,4.94768 1.64267,7.47832 0.019,0.69525 -0.20198,1.38491 -0.19417,2.08952 0.0457,3.858045 0.0993,7.552885 -0.24216,11.437425 -0.12834,1.45606 -0.87267,2.84835 -0.87378,4.28903 h -0.33479 c -0.15847,1.70901 -1.02221,3.48841 -1.67504,5.05885 -0.26335,0.63236 -0.96529,1.02937 -0.89163,1.7596 -0.25333,0.22325 -0.54681,0.71594 -0.90158,0.76103 -0.32563,0.0429 -0.67626,-0.25734 -0.99988,-0.31122 -1.30097,-0.21776 -4.64144,-1.03708 -5.4563,0.46299 -0.32217,0.59386 0.1655,1.3296 0.77335,1.42858 1.05446,0.17156 2.02979,-0.0198 3.12498,0.24084 0.35609,0.0847 1.01875,0.10667 1.04943,0.59826 0.0555,0.88971 -1.71453,2.46895 -2.24795,3.08701 -2,2.31277 -3.7864,4.58266 -6.27999,6.40605 -0.89766,0.65765 -1.84398,1.67932 -3.01137,1.73321 v 0.32992 c -0.76141,0.21006 -1.45765,0.9095 -2.12029,1.3351 -1.08627,0.69725 -2.38589,1.36369 -3.57114,1.88168 -1.20444,0.52678 -2.46712,0.73353 -3.6825,1.16903 -2.13313,0.76323 -4.31938,1.67053 -6.58407,2.02135 -0.74535,0.11547 -1.50184,-0.0583 -2.23189,0.0374 -3.3773,0.44321 -6.82847,1.29991 -10.26837,0.49379 -0.92132,-0.21665 -1.8923,-0.17265 -2.78818,-0.39151 -0.91999,-0.22544 -1.85716,-0.67414 -2.78986,-0.82481 -1.17197,-0.19026 -2.56657,-0.21995 -3.68262,-0.60156 -0.97568,-0.33323 -2.7402,-1.31971 -3.57102,-0.39152 l -0.89276,-0.10997 c -0.13369,-1.18004 -1.17844,-1.05686 -2.0087,-1.52205 -1.70182,-0.95349 -3.50496,-1.57375 -5.13502,-2.6922 -0.51199,-0.35082 -1.19473,-0.54878 -1.56065,-1.06456 -0.43678,0 -0.62693,-0.14846 -0.78116,-0.54988 l -0.22319,0.21996 c -0.9625,-1.08436 -2.34616,-1.89268 -3.50071,-2.77138 -1.24038,-0.94358 -2.59882,-2.23139 -3.72391,-3.32344 -0.52338,-0.50919 -2.05323,-1.8223 -1.70293,-2.59322 l -0.44638,-0.10998 0.1116,-0.32992 c -0.88942,-0.25734 -1.3224,-1.49896 -1.83206,-2.1995 -1.77714,-2.44365 -2.87723,-5.46686 -3.80335,-8.35812 -2.96953,-9.27123 -2.32318,-19.541805 1.35989,-28.593545 0.27385,-0.67304 0.79622,-1.23282 1.13625,-1.87123 0.85872,-1.61223 1.61701,-3.31311 2.46389,-4.94723 0.3782,-0.72969 1.19082,-1.51095 1.34494,-2.30948 l 1.11918,-2.40967 1.52226,-2.82284 1.37596,-2.46574 c 1.09151,-0.89773 1.41848,-2.75257 2.1521,-3.93756 1.10322,-1.7817 1.83428,-3.64325 2.79667,-5.50161 0.45006,-0.86891 1.11873,-1.6019 1.61064,-2.43804 0.6843,-1.16332 1.20098,-2.52602 1.88728,-3.73926 0.72939,-1.28913 1.63821,-2.23822 2.5034,-3.40923 0.43901,-0.5942 0.87725,-1.55076 1.54849,-1.86958 l -0.11159,-0.21995 c 1.18869,-0.98263 2.02544,-2.45003 3.08055,-3.57254 2.04565,-2.17641 4.36949,-4.12275 6.96283,-5.6028 0.82201,-0.46915 4.25666,-2.58067 4.49358,-0.30122 0.25019,2.40747 -2.9471,4.66922 -4.30364,6.29872 -2.93315,3.52305 -5.80403,7.54737 -6.52683,12.08583 -0.32753,2.0562 0.70037,3.71034 1.81397,5.28859 2.12375,3.01013 4.87779,5.73674 8.20565,7.52625 1.15511,0.62104 2.29762,1.25713 3.45943,1.87244 0.54279,0.28748 1.31626,0.53734 1.74969,0.97471 0.32787,0.33092 0.19697,0.75696 0.18547,1.16849 -0.0299,1.07424 -0.1338,2.05379 -0.28858,3.0848 -0.0557,0.37051 0.25488,0.70318 0.16415,1.07127 -0.10088,0.40911 -0.56322,0.72914 -0.91797,0.8985 m -55.79723,-40.03095 0.11159,0.10997 -0.11159,-0.10997 m 40.50879,2.30948 0.55797,0.54987 c -0.31727,-0.10348 -0.61344,-0.18267 -0.55797,-0.54987 m 0.96718,0.2933 -0.0373,0.0732 0.0373,-0.0732 m -35.78465,1.13637 -0.11159,0.10998 0.11159,-0.10998 m 100.54659,0.83197 c 1.52104,-0.48599 1.53555,1.46816 0.33033,1.88189 -1.25879,0.43231 -1.46077,-1.52074 -0.33033,-1.88189 m 1.57237,3.33653 c -2.06338,0.61641 -2.20622,3.54318 -0.4553,4.55209 0.62716,0.36127 2.00646,-0.0275 2.67603,-0.22215 0.84923,-0.24711 1.54893,-1.99209 1.20299,-2.77973 -0.55574,-1.26658 -2.07566,-1.95316 -3.42372,-1.55021 m -104.12766,1.66018 -0.11159,0.10998 0.11159,-0.10998 m 107.35386,2.90808 c -0.90615,0.14957 -1.9172,0.46772 -2.67269,0.98944 -0.33925,0.23447 -0.70862,0.74751 -0.20199,1.04675 0.61266,0.36105 1.70963,-0.41032 2.4283,-0.29858 0.5669,0.0881 0.96529,0.84098 1.55228,0.73133 1.03671,-0.19367 0.7209,-1.58606 0.26224,-2.1499 -0.33031,-0.40636 -0.89387,-0.39745 -1.36814,-0.31904 m -112.04083,8.52934 v 0.10998 c -0.75427,0.0344 -1.89075,-0.14253 -2.565,0.15033 -1.37953,0.59926 -2.08024,2.67878 -0.97243,3.79403 0.82323,0.82888 2.1694,0.46091 3.09106,1.44441 h 0.11159 c 1.60327,-0.65589 1.77937,-1.44286 1.91954,-3.04784 0.0363,-0.41571 0.29237,-0.77401 0.14372,-1.20533 -0.16136,-0.46839 -0.73909,-0.77643 -1.05891,-1.1356 0.2214,0 0.44917,0.013 0.67,-0.007 0.55854,-0.049 1.14117,-0.62488 0.62025,-1.12802 -0.63642,-0.61465 -1.64345,-0.38062 -2.25454,-0.91686 -0.29071,-0.25503 -0.28446,-0.56593 -0.26326,-0.91796 0.78932,0 1.80494,0.24282 2.56612,0.0584 0.48566,-0.11768 0.83183,-0.63544 0.44325,-1.04884 -0.7893,-0.83966 -2.11661,-0.42549 -2.67458,-1.64896 1.33222,-0.3285 2.32674,0.85758 3.68261,0.10997 -0.0346,-0.29407 9.5e-4,-0.678 -0.19841,-0.92005 -0.57058,-0.69306 -3.20778,-1.17981 -4.03057,-0.83581 -0.95134,0.39778 -0.96964,1.50259 -1.25956,2.30574 -0.3012,0.83438 -0.74032,1.25954 -0.7623,2.1995 -0.009,0.3903 -0.20054,0.94546 0.007,1.30365 0.38846,0.66875 2.06227,1.10777 2.78395,1.33575 m 113.60313,-0.98977 c 0.5245,-0.40031 1.03672,-0.43924 1.36927,-1.1014 0.4196,-0.83439 0.0536,-2.59696 -0.82245,-3.07458 -0.67403,-0.36721 -2.61578,-0.23348 -3.33668,-0.004 -1.83238,0.58375 -1.2108,2.065 -0.64724,3.29991 0.19082,0.41626 0.28233,0.95415 0.7142,1.21105 0.74657,0.44485 1.92724,-0.30331 2.7229,-0.33124 m -60.93045,-3.46991 c -0.79791,0.12856 -1.43567,1.02617 -1.12834,1.81591 0.36235,0.93071 1.75639,0.76476 2.04341,1.55592 0.51802,1.42803 -0.009,3.22756 0.54994,4.59729 0.51668,1.26691 1.79645,1.88024 2.88706,2.549 0.54,0.33124 1.33344,1.10867 2.00881,1.05335 0.5457,-0.0448 0.79255,-0.56737 1.2464,-0.78281 0.69033,-0.3275 1.40074,-0.40075 1.97757,-0.96052 1.58631,-1.53932 1.09407,-3.90994 1.98213,-5.69198 0.40521,-0.81327 1.60574,-0.33839 2.0548,-1.33048 0.48666,-1.07512 -0.17175,-2.15947 -1.3465,-2.28583 -1.89722,-0.20401 -1.90101,1.49819 -1.98192,2.84011 -0.154,2.55351 -0.59156,5.05666 -3.26302,6.17675 -0.56255,0.23589 -1.38813,0.52029 -2.0087,0.35587 -2.8884,-0.76531 -2.73596,-4.86837 -2.52996,-7.18269 0.14429,-1.62004 -0.53476,-3.02541 -2.49168,-2.70989 m 60.26089,8.30884 c -1.09921,1.19014 -1.22531,3.77225 0.33478,4.71265 0.55463,0.3341 1.17286,0.19465 1.78552,0.23622 0.53007,-0.49301 1.3514,-0.71484 1.76095,-1.33993 1.05904,-1.6195 -0.20087,-3.48885 -1.87255,-3.8289 v -0.10997 c 0.82691,-0.16859 2.07454,-0.66997 2.75415,-1.11943 0.34371,-0.22722 0.27341,-0.72826 -0.0926,-0.88839 -0.56801,-0.24898 -1.0155,0.25272 -1.54557,0.33158 -0.99431,0.1478 -2.22297,-0.0353 -3.23625,-0.0834 0.56467,-1.15562 1.63263,-0.43616 2.56668,-0.4939 0.49213,-0.0304 1.47751,-1.04487 1.62816,-1.48554 0.30354,-0.88838 -1.80895,-0.8643 -2.29773,-0.81525 -0.43522,0.0437 -0.83584,0.36996 -1.22754,0.54526 -0.67068,0.29979 -1.88929,0.19817 -2.32786,0.84449 -0.91843,1.35127 0.28903,3.42793 1.76989,3.49447 m -111.92924,-3.29926 -0.11159,0.10997 0.11159,-0.10997 m 111.81764,1.31971 -0.11159,0.10997 0.11159,-0.10997 m -113.04518,8.24813 c -0.95893,0.0335 -1.57727,-0.56692 -1.78551,-1.42968 0.78172,-0.47971 2.0702,-1.06742 2.64,-1.79259 0.5737,-0.73024 0.18614,-1.45849 -0.74289,-1.27033 -0.34639,0.0702 -0.65941,0.23678 -1.00435,0.31354 -0.62761,1.1146 -1.40386,-0.26229 -2.12465,-0.50852 -0.63061,-0.21544 -1.65054,-0.0542 -2.22581,0.25272 -0.7849,0.41868 -0.82968,1.24536 -0.98032,2.01541 -0.15604,0.79776 -0.62339,1.62884 -0.12072,2.41736 0.74504,1.16893 3.63954,1.25822 4.89353,1.23986 0.48956,-0.007 0.96674,0.17453 1.43856,-0.0443 0.63866,-0.29616 0.33032,-0.78709 0.0122,-1.19345 m 114.60754,-4.79161 c 1.29003,-0.33422 1.93505,1.34213 0.66734,1.76025 -1.4552,0.48037 -2.24305,-1.35214 -0.66734,-1.76025 m -118.40171,1.49235 c 0.44046,0.91401 0.76609,2.15354 -0.66956,2.19951 -0.1556,-0.82889 -0.36913,-2.01189 0.66956,-2.19951 m 66.84508,0.70978 c -0.63308,0.0852 -1.30331,0.70802 -0.62114,1.28143 0.33735,0.28363 1.09139,0.34543 1.51389,0.28044 1.8075,-0.27813 0.25567,-1.71627 -0.89275,-1.56187 m 51.22185,1.42814 c -0.46089,0.0729 -2.22185,0.91004 -1.09921,1.40967 0.51222,0.22797 3.60674,-0.34511 3.15813,0.94996 -0.37384,1.08304 -2.32787,0.24799 -2.95279,1.0573 -0.46312,0.5987 0.0748,1.05411 0.67068,1.11625 0.8325,0.0867 3.0588,-0.075 3.60003,-0.76983 0.35041,-0.45013 0.30466,-1.29462 0.29238,-1.83219 -0.0112,-0.5326 0.11941,-1.28483 -0.36825,-1.66524 -0.62828,-0.4906 -2.54213,-0.38601 -3.30097,-0.26592 m -59.59144,7.86982 c -0.22531,0.97251 0.71956,0.84736 0.22319,0 h -0.22319 m 11.04786,5.16884 -0.1116,0.10997 0.1116,-0.10997 m -0.2232,0.32992 -0.11159,0.10998 0.11159,-0.10998 m -0.22319,0.32992 -0.11159,0.32993 -0.33478,-0.32993 h 0.44637 m 1.45074,0.54988 -0.1116,0.10998 0.1116,-0.10998 m 3.9058,17.046155 -0.66957,0.65985 h -0.44638 c -0.85313,-1.15429 -2.35798,-1.915435 -3.55205,-2.676025 -3.77702,-2.40582 -8.0829,-4.00287 -12.66106,-3.14243 -2.90001,0.54504 -5.49748,2.48423 -8.33766,2.5192 l -0.38378,-1.97955 0.049,-1.64962 c 0.6612,0 0.91329,-2.11548 1.17174,-2.6394 1.11974,-2.27001 3.07265,-4.57069 5.41233,-5.88369 3.40564,-1.91114 8.09518,-2.0276 11.71742,-0.78819 0.57795,0.19785 0.8479,0.63005 1.33913,0.89817 0.95793,0.52282 2.09541,1.0761 2.62248,2.14452 0.20164,0.40888 -0.0243,0.99715 0,1.42968 0.0726,1.28946 -0.30143,2.94568 0.27898,4.17906 1.06997,2.27362 3.19696,4.47169 3.45943,6.928425 m 2.67826,-11.657365 c -0.74232,0.12504 -1.33411,-0.34654 -2.11594,-9.3e-4 -1.54156,0.68206 -1.63932,3.05973 -0.56232,4.1796 l -0.1116,0.32993 c 0.7151,0.43814 1.51189,2.05411 1.67392,2.85934 l 0.22319,-0.10997 2.90313,4.289035 1.11427,2.19951 c 0.0807,1.0629 0.96328,1.98164 1.28791,2.96933 0.74634,2.27098 1.16683,5.09734 0.97366,7.4783 -0.0529,0.65216 -0.40709,1.23062 -0.49592,1.86958 -0.1049,0.75443 -0.31704,1.50007 -0.61958,2.19951 -1.79767,4.15816 -6.9569,3.9701 -10.74319,4.55736 -2.29093,0.35523 -4.91786,1.10746 -7.25364,0.9359 -0.91608,-0.0682 -1.05859,-1.04038 -2.0087,-1.09426 l -0.44638,-0.43962 c 0.31091,-0.55757 1.32597,-0.47839 1.39873,-1.20973 0.0536,-0.53887 -0.60596,-0.74783 -0.8518,-1.13274 -0.25924,-0.40581 0.0662,-0.8644 -0.32307,-1.23722 -0.33557,-0.32113 -0.92981,-0.32773 -1.3398,-0.53338 -0.40442,-0.20346 -0.89242,-0.77312 -1.34305,-0.81712 -1.07241,-0.10337 -0.44894,1.3098 -0.33087,1.74091 h 0.11159 v -0.21995 h 0.11159 l 0.1116,0.54987 -0.33478,0.10998 -0.22319,-0.10998 -1.22754,-0.76982 c -1.04486,-1.29771 -0.79198,-1.3417 -0.50206,-2.85935 0.0808,-0.42341 -0.10669,-0.80502 0.29583,-1.11295 0.73184,-0.56087 3.03091,-1.13935 2.76063,-2.40626 -0.19295,-0.90509 -1.17219,-1.53305 -1.62404,-2.30948 -0.26693,-0.4586 -0.33868,-1.00737 -0.60618,-1.44837 -0.31592,-0.52018 -0.89901,-0.80249 -1.22888,-1.30529 -0.24194,-0.36897 -0.18122,-0.81437 -0.36514,-1.20544 -0.67559,-1.43661 -1.50707,-2.51425 -1.88605,-4.06908 -0.16862,-0.69196 -1.32474,-1.892125 -0.98449,-2.576835 0.24997,-0.50313 1.41714,-0.67294 1.90849,-0.83273 2.02678,-0.6593 3.77245,-0.89894 5.91451,-0.59662 1.40642,0.1984 2.75091,0.19796 4.129,0.61927 3.35363,1.02519 6.84419,3.512395 9.32493,5.925255 1.15758,1.12592 2.52494,2.52612 3.45653,3.84132 0.61456,0.8688 0.92523,2.17091 2.06227,2.57451 0.81007,0.28704 1.18145,-0.4454 1.14205,-1.14593 -0.0561,-0.99858 -0.7161,-3.09504 -1.47851,-3.73916 -0.10668,-1.39019 -1.68229,-3.01992 -2.41033,-4.17905 -0.54725,-0.87123 -0.7844,-1.866065 -1.3292,-2.747745 -1.36602,-2.21082 -2.98537,-4.05698 -3.36903,-6.71013 -0.18905,-1.3076 0.385,-3.37558 1.47627,-4.23757 0.97389,-0.76916 2.95648,-0.88563 3.66901,0.27901 0.2974,0.48609 -0.0453,1.10404 0.0662,1.64908 m -32.69717,-1.86958 c 0.42886,1.4046 1.76051,-0.30167 0,0 m 4.79856,-0.10998 0.33479,0.76983 h -0.44638 l 0.11159,-0.76983 m -0.22319,0.76983 -0.55797,0.54987 0.55797,-0.54987 m -7.70002,14.626705 0.1116,0.4399 h -0.1116 c -0.22665,-0.41395 -0.67179,-0.61421 -0.96149,-0.99142 -0.54625,-0.71155 -0.77838,-1.88674 -0.71242,-2.747735 l 1.11595,0.21994 c 0.2926,0.621155 1.18691,1.158375 1.81731,1.422315 0.37485,0.15694 0.71152,-0.16155 0.62192,-0.53865 -0.45308,-1.905875 -2.93885,-2.648215 -3.2204,-4.732785 1.41257,0.15616 2.14173,1.69988 3.34795,2.20786 1.48845,0.62674 3.48677,1.46959 5.10131,1.65512 0.92099,0.105805 2.21449,-0.45573 3.03973,0.0817 0.67581,0.44013 1.72926,3.30817 0.88148,3.88795 -0.81308,0.55615 -3.16883,0.0514 -4.08057,-0.18695 -0.42216,-0.11042 -0.84164,0.01 -1.25945,-0.15605 -0.52114,-0.20698 -0.96707,-0.67053 -1.56232,-0.66855 -0.49359,0.002 -0.84042,0.44717 -1.33913,0.40614 -1.22955,-0.10129 -1.4706,-0.76114 -2.78987,-0.2988 m 3.68262,2.63941 c 0.38322,0.56824 1.18636,0.92742 1.77715,1.27768 1.34951,0.79974 3.22574,2.10735 4.80693,2.3317 1.23267,0.17486 3.80939,-0.21445 4.72736,0.73133 0.19306,0.19906 0.28356,0.4619 0.39292,0.70824 0.19038,0.43 0.51267,0.93699 0.35766,1.42968 -0.27039,0.85891 -1.63899,1.07446 -2.07063,1.87948 -0.26203,0.48938 -0.0947,0.94578 -0.25824,1.42967 -0.13569,0.40141 -0.51232,0.65985 -0.56143,1.09975 -0.0538,0.4817 0.13927,0.93919 0.0372,1.42968 -0.13212,0.63346 -0.58453,1.08766 -0.6401,1.7596 -0.1145,1.38349 1.51713,1.88057 1.47472,3.07931 -3.26046,-1.3461 -7.29426,-2.86045 -8.81596,-6.37856 -0.64201,-0.11327 -0.86028,-0.72914 -0.89276,-1.31971 0.77703,0.0968 1.17833,0.63786 1.77,1.09536 0.99353,0.76763 2.00335,1.60454 3.02845,2.33037 0.36324,0.25735 1.02255,1.08435 1.49782,1.03816 0.45899,-0.044 0.69011,-0.57407 0.49526,-0.94468 -0.41401,-0.78743 -1.74444,-1.73211 -1.82992,-2.6394 -0.0437,-0.4641 1.64757,-0.97108 0.83763,-1.49017 -0.81821,-0.52458 -2.61054,-0.0264 -3.56734,-0.12757 -1.18871,-0.12536 -1.7594,-0.95128 -2.68273,-1.52975 -0.4928,-0.30903 -1.06662,-0.4476 -1.43031,-0.93589 -0.28122,-0.37721 -0.29918,-0.8798 -0.47908,-1.3054 -0.21861,-0.51798 -1.73552,-3.18159 -0.31146,-3.33731 1.58677,-0.17387 2.61801,1.72397 4.23401,1.79765 0.23725,0.60267 2.08447,2.14782 2.68318,1.17784 0.60774,-0.98538 -2.07131,-1.23502 -2.57159,-1.17784 l -0.33478,-1.53965 -0.22319,0.10998 -0.33478,-0.87981 c -0.65952,0.0569 -1.01284,-0.33377 -1.57672,-0.56527 -0.82167,-0.33718 -2.36625,-0.10381 -2.55228,-1.19432 -0.59993,-0.10877 -1.05568,-1.43617 -0.23279,-1.25075 1.11818,0.25206 1.98627,1.8986 3.24584,1.9106 m 13.95411,-1.66602 c -1.06931,0.0904 -0.32965,1.47532 -0.0426,1.88596 0.46646,0.66756 0.0876,1.48478 0.43143,2.17091 0.38801,0.77423 1.65483,1.24712 1.82468,2.09833 0.0966,0.48389 -0.70383,0.871 -0.83071,1.33949 -0.13314,0.49159 0.058,0.97109 0.62169,0.97769 0.58843,0.007 0.96406,-0.463 1.45017,-0.70934 0.84767,-0.4289 4.48241,-0.99968 3.26938,-2.55692 -0.43176,-0.55428 -1.00424,-0.35962 -1.59547,-0.50809 -0.67045,-0.16826 -1.63307,-0.66975 -2.09261,-1.18224 -0.53822,-0.60189 0.35743,-0.97712 0.11215,-1.63016 -0.33891,-0.90223 -1.44471,-0.7971 -2.12956,-1.29067 -0.30699,-0.22126 -0.59134,-0.63103 -1.01852,-0.59496 m 19.41263,3.20566 c -0.95256,-0.29978 -2.08302,-1.48862 -2.0087,-2.52942 0.94867,0.38271 1.93193,1.49731 2.0087,2.52942 m -8.47504,2.05324 c -1.10065,0.32553 -0.0482,3.5225 1.10769,3.24866 0.25968,-0.0616 0.48377,-0.30463 0.49079,-0.57296 0.0102,-0.39261 -0.39995,-0.64665 -0.56277,-0.96779 -0.26593,-0.52568 0.0178,-2.01914 -1.03571,-1.70791 m -43.52797,4.65525 c -0.005,-1.42968 -1.23558,-1.21523 -2.34348,-1.40659 -0.60987,-0.10557 -0.9124,-0.45089 -1.56232,-0.20674 -0.48689,0.18255 -1.90168,1.06566 -0.87624,1.58364 0.35498,0.17925 0.93192,0.0528 1.32261,0.0704 0.48533,0.0209 0.96485,0.11218 1.45073,0.13747 0.71186,0.0363 1.3205,-9.3e-4 2.0087,-0.17816 m 80.23641,-1.28341 c 0.0859,0 0.0179,0.055 -0.0368,0.0374 l 0.0368,-0.0374 m -70.52279,0.92489 c -0.51032,0.20565 -0.79276,0.99747 -0.21158,1.29881 0.47104,0.24414 1.04687,0.0264 1.54581,0.0682 1.04196,0.0858 1.80727,0.83031 2.88036,0.18366 0.7112,-0.4289 0.29483,-0.99967 -0.31413,-1.18334 -1.02857,-0.31012 -2.84834,-0.78962 -3.90046,-0.36731 m -5.23087,0.66975 c -0.51803,0.0198 -1.44861,-0.009 -1.89052,0.25844 -0.37619,0.22765 -0.50665,1.00297 -0.10044,1.26472 0.44649,0.28813 1.23502,0.0275 1.73875,0.0286 0.76833,0 1.43779,0.38602 2.24183,0.32663 0.58252,-0.0429 1.60952,-0.72473 0.84443,-1.3164 -0.47405,-0.36732 -2.22776,-0.58616 -2.83405,-0.56197 m 63.92465,0.63346 c -0.93338,0.19025 -2.33143,1.83108 -0.88662,2.39855 0.63196,0.24745 1.46368,-0.0121 2.11416,-0.0396 1.43923,-0.0616 3.26815,0.53228 4.6546,0.0495 0.76666,-0.26724 0.76666,-1.37029 0.0279,-1.65732 -0.62693,-0.24195 -1.258,-0.0341 -1.89264,-0.14847 -1.2782,-0.22985 -2.68027,-0.8743 -4.0174,-0.60266 m -72.09001,3.23436 2.78986,0.21996 v 0.21995 c 0.46144,0.0286 0.87222,0.28483 1.33902,0.26173 0.68441,-0.0341 1.94096,-0.84351 1.16024,-1.62543 -0.29605,-0.29583 -0.99218,-0.25734 -1.38332,-0.37061 -1.56545,-0.4542 -3.63284,-0.69285 -3.9058,1.2944 m -2.23189,-1.09975 0.11159,0.10997 -0.11159,-0.10997 m 10.70302,0.18256 c -0.58029,0.14297 -2.0751,1.12615 -0.97947,1.66942 0.57449,0.28484 1.28,-0.19355 1.86776,-0.20455 1.33132,-0.0253 2.7873,0.94029 4.14306,0.4553 0.42384,-0.15177 1.18156,-0.9084 0.52293,-1.27571 -0.46367,-0.25954 -1.12744,0.011 -1.63843,-0.0803 -1.34304,-0.24084 -2.48677,-0.91719 -3.91585,-0.56417 m 56.70014,1.13384 c -1.03381,0.20126 -1.2387,1.70792 -0.22163,2.08953 0.71253,0.26724 1.50039,-0.0132 2.23021,-0.0121 1.45375,0.004 3.04854,0.71704 4.46334,0.26284 0.96105,-0.30903 1.44269,-1.57154 0.21359,-1.96086 -0.79947,-0.25404 -1.72916,-0.15616 -2.55663,-0.24084 -1.34672,-0.13857 -2.77502,-0.40031 -4.12888,-0.13857 m -44.07992,0.55318 h 0.11159 c 1.57705,0.68404 3.4871,0.74452 4.35218,2.41945 l -0.33478,0.32992 -4.12899,-0.21995 -1.89711,-1.64963 v -0.76982 l -0.22319,0.32993 c -0.1502,-0.65876 1.64301,-0.19906 2.1203,-0.4399 m 39.83922,0.32992 c -0.0776,1.55285 -1.72681,2.36776 -3.12465,2.30948 0.43299,-1.70022 1.60919,-2.03234 3.12465,-2.30948 m -27.71259,1.39338 -0.0373,0.0726 0.0373,-0.0726 m 1.48789,0.58618 c 0.54481,-0.29804 1.02723,0.24854 1.11595,0.76982 l -0.89276,-0.21995 0.33478,-0.10998 v -0.10997 l -0.44637,-0.21995 h -0.1116 l -1.22754,-0.32993 0.11159,-0.32992 c 0.4764,0.0891 0.86866,0.10777 1.11595,0.54988 m 1.45073,0.76982 -0.1116,0.10997 0.1116,-0.10997 m -31.00273,0.20455 c -0.63843,0.0242 -3.37004,1.13385 -1.99542,1.94766 0.5139,0.30353 1.19574,0.0187 1.7517,0.044 1.44013,0.0649 2.95703,0.70053 4.38399,0.51798 0.91094,-0.11768 2.29371,-1.45167 0.92634,-2.09833 -0.48297,-0.22765 -1.11906,0.0704 -1.62772,0.022 -1.13859,-0.10667 -2.27897,-0.47509 -3.43889,-0.4333 m 24.19546,1.00518 0.1116,0.65985 c -0.49537,0.17595 -1.13871,0.53667 -1.67336,0.49158 -0.68474,-0.0572 -0.86184,-0.86 -0.31882,-1.23722 0.71811,-0.49818 1.19059,-0.25734 1.88058,0.0858 m 3.45944,-0.51359 c 0.0863,0 0.0178,0.055 -0.0372,0.0374 l 0.0372,-0.0374 m -12.72177,0.62356 -0.1116,0.32992 -0.55797,-0.32992 h -0.1116 c -0.36602,0.37941 -0.94252,-0.011 -1.22753,-0.32993 h 1.67392 l 0.33478,0.32993 m 42.0711,-0.10997 c -0.62269,1.39447 -2.74042,0.61475 -3.9058,0.65985 l 0.11159,-0.32993 3.79421,-0.32992 m -38.50008,0.32992 c -0.0586,0.35412 -0.31604,0.80062 -0.66957,0.4399 -0.62113,0.12867 -2.04151,0.20565 -2.45508,-0.32993 l -0.44637,0.10998 c 0.52181,-0.87761 2.68797,-0.26724 3.57102,-0.21995 m 23.32324,1.42967 h -0.11159 v -0.21995 c -0.28903,0.83032 -0.67013,2.02244 -1.487,2.51074 -0.6487,0.38711 -1.39749,0.099 -2.08403,0.15287 -1.45753,0.11657 -2.84655,0.26503 -4.35218,0.18145 -1.35074,-0.0759 -2.03994,-0.10227 -2.8422,-1.14484 -0.35421,-0.4608 -0.77011,-0.93259 -0.56835,-1.57374 0.20868,-0.66426 2.07956,-0.24195 2.62939,-0.21666 2.43532,0.10888 4.49715,0.0902 6.91885,-0.28483 0.7949,-0.12317 1.86173,-0.4674 1.89711,0.59496 m -45.38178,-0.47618 0.0373,0.0726 -0.0373,-0.0726 m 50.06875,1.13604 c -0.91139,0.62355 -2.1319,0.8765 -3.23624,0.8798 0.34728,-1.07336 2.51779,-2.2358 3.23624,-0.8798 m -17.85511,0.8798 v 0.10997 l -0.2232,0.4399 c -0.89398,-0.0407 -2.53977,-0.4586 -2.67826,-1.42967 l 1.00435,-0.21996 c 0.91385,0.0737 1.24483,0.53998 1.89711,1.09976 m -8.70437,-0.76983 c 0.48097,0.16937 0.97979,0.18146 1.45062,0.40691 2.14127,1.02497 0.87612,2.05324 -0.66946,2.70979 -1.65551,0.70383 -4.30665,0.98317 -6.0261,0.40251 l 0.22319,-0.76983 0.33478,0.10997 c 0.16036,-1.11184 1.83874,-2.40955 2.90145,-2.69658 0.59715,-0.16057 1.20589,0.0638 1.78552,-0.16277 m -5.02175,0.10998 -0.1116,0.10997 0.1116,-0.10997 m 3.79421,0 0.11159,0.10997 -0.11159,-0.10997 m 34.81747,1.3197 c 0.61879,0.11987 2.04463,1.83988 0.99219,2.23469 -0.50285,0.18806 -1.06819,-0.10337 -1.55017,-0.21775 -1.09596,-0.25954 -2.32361,-0.31123 -3.34616,-0.81601 -0.38834,-0.19246 -1.16906,-0.55648 -1.11349,-1.08656 0.0571,-0.54547 0.91307,-0.74233 1.33501,-0.88969 1.22542,-0.42891 2.99062,-0.59057 3.68262,0.77532 m -48.87848,-0.38712 c -0.87245,0.12978 -3.73306,1.49237 -2.00648,2.50634 0.83741,0.49159 1.20266,-0.0286 2.01094,-0.044 1.18825,-0.022 2.58129,0.68734 3.72558,0.50259 0.98505,-0.15947 2.79667,-1.29001 1.24986,-2.2116 -0.42316,-0.25185 -1.052,-0.10338 -1.52037,-0.14847 -1.053,-0.10118 -2.45273,-0.75553 -3.45953,-0.60487 m 58.4756,0.71705 c -0.70249,-1.31091 -5.14863,-0.98978 -5.01249,0.87979 0.048,0.65766 0.45408,1.16904 1.13146,1.27681 0.64301,0.10228 1.34003,-0.28043 1.98392,-0.28043 1.52349,0 3.53844,0.74343 4.90703,-0.26284 0.79902,-0.58837 0.3773,-1.49346 -0.44325,-1.7783 -0.64981,-0.22545 -1.9125,-0.003 -2.56667,0.16497 m -37.94212,0.21994 c 1.19585,0.34972 2.34985,0.9249 3.60294,1.15474 3.11829,0.57188 6.75672,0.33322 9.9,0.16057 1.41602,-0.0781 2.94341,-0.19576 4.35218,-0.34422 0.78652,-0.0836 1.43064,-0.32883 2.23189,-0.20126 -0.63308,1.99055 -3.1425,2.78677 -4.90023,3.47301 -1.14752,0.4487 -2.35899,0.84461 -3.46936,1.38569 -0.50139,0.24414 -0.97879,0.74014 -1.56064,0.76872 -0.84355,0.0407 -1.71275,-0.75992 -2.4572,-1.05795 -2.60183,-1.04147 -6.5477,-2.25009 -8.03436,-4.78942 l 0.22319,0.10997 -0.22319,-0.21994 v -0.10998 l 0.33478,-0.32993 m -6.80726,6.04864 5.13335,0.32993 -0.44638,1.42967 c 0.27887,0.54438 0.69903,0.91719 1.33913,1.01947 0.57248,0.0913 1.09519,-0.36182 1.67392,-0.34313 1.32518,0.0418 2.67983,0.4531 4.0174,0.28154 0.79065,-0.10117 1.46412,-0.70714 0.82982,-1.49126 -0.5717,-0.70714 -2.04397,-0.40801 -2.83852,-0.4817 -0.46914,-0.0429 -1.00379,-0.28483 -1.4485,-0.4388 -0.91183,-0.31782 0.0719,-1.2889 -0.69288,-1.84208 -0.5717,-0.4135 -1.43835,-0.17156 -2.09921,-0.23424 -0.64212,-0.0627 -1.24584,-0.37832 -1.8971,-0.4542 -1.43433,-0.16936 -4.78462,0.0891 -3.57103,2.2248 m -7.58842,0.32993 c 1.09898,-0.24305 2.68251,0.827 3.71096,-0.39262 0.46457,-0.55097 -0.30119,-1.39669 -0.81955,-1.59904 -0.59312,-0.23204 -1.37238,-0.0495 -1.99865,-0.10887 -0.99085,-0.0957 -1.86062,-0.53339 -2.90146,-0.34092 -0.69255,0.12756 -1.48152,0.34752 -1.93572,0.92268 -0.34136,0.43111 -0.32183,1.31311 0.27665,1.54296 1.04921,0.4036 2.491,-0.30354 3.66777,-0.0242 m 48.09721,0.43989 1.00435,-1.42967 c -0.87758,-0.74233 -1.59725,-0.60817 -2.67827,-0.82262 -1.05111,-0.20895 -2.12955,-0.68295 -3.23624,-0.45969 -1.1069,0.22435 -1.83104,1.64853 -0.76475,2.42604 0.45955,0.33433 1.13636,0.0473 1.65751,0.0572 1.31057,0.0253 2.73608,0.0891 4.0174,0.22874 m -74.09871,-0.98977 c 0.35364,1.14923 2.89398,1.53195 3.88672,1.07116 0.60139,-0.27934 0.92211,-0.98868 0.12577,-1.28232 -0.35242,-0.12976 -0.74947,-0.20345 -1.11104,-0.31672 -0.46892,-0.14847 -0.88036,-0.004 -1.33914,0.10887 -0.55741,0.13857 -1.03726,0.15946 -1.56231,0.41901 m -4.46379,0.10997 c 1.71421,0.31233 0.58443,-1.14154 0,0 m -16.40437,6.81859 c -0.23993,1.03266 0.58947,3.22667 1.56232,3.73915 0.31886,2.14342 1.74478,3.87113 3.04577,5.50866 0.29005,0.36512 1.59484,1.55834 1.46261,2.02134 -0.12549,0.4399 -1.03268,0.54987 -1.38374,0.74894 -0.88691,0.50368 -1.92333,0.397 -2.90145,0.54217 -0.54351,0.0814 -1.02179,0.40031 -1.56232,0.50039 -0.69484,0.13087 -1.56558,-0.0286 -2.05296,0.60926 -0.69669,0.91389 1.12376,2.27099 1.72093,2.82636 0.96952,0.9007 1.77763,1.99935 2.79151,2.83956 0.7713,0.63895 1.64382,0.99197 2.46963,1.49456 0.70992,0.4333 1.80813,1.28891 2.65931,1.16464 l 1.89709,1.20972 c 0.67827,-9.4e-4 1.63832,0.83471 1.89711,1.42968 h -0.11159 v -0.21995 h -0.1116 c 0.33758,2.01475 0.12979,4.45839 0.0899,6.48854 -0.0126,0.63895 -0.48276,1.85088 0.13324,2.30948 -0.18268,0.4256 -0.33177,0.81601 0.11159,1.09974 l -0.11159,0.4399 c 1.92467,1.29661 3.88315,1.69142 6.02566,2.43155 3.33332,1.15144 6.72524,1.7585 10.26714,2.09613 1.08279,0.10338 2.15042,0.48389 3.23623,0.50919 0.66488,0.0154 1.32641,-0.28704 2.0087,-0.30354 1.7902,-0.0429 3.63396,0.25844 5.42238,0.28814 1.03615,0.0176 2.05177,-0.31343 3.0588,-0.33983 2.46043,-0.0638 4.91395,-0.79401 7.36524,-0.71813 0.93337,0.0297 2.61499,0.20895 3.23623,-0.66426 1.85001,0.39042 4.06104,-0.38931 5.91451,-0.52677 1.74767,-0.12978 3.50105,-0.0924 5.24494,-0.25404 0.49592,-0.0462 0.94431,-0.27274 1.45073,-0.27384 1.70348,-0.006 3.4197,0.28593 5.12341,0.27384 0.76319,-0.004 1.49749,-0.25734 2.24138,-0.26835 0.68909,-0.01 1.2773,0.32003 1.94486,0.35302 1.16773,0.0583 2.33556,-0.22435 3.52371,-0.13306 0.43701,0.033 0.79801,0.29693 1.22754,0.36621 1.27485,0.20456 2.61778,0.0352 3.90581,0.14297 0.51456,0.044 0.94095,0.34862 1.44905,0.40691 2.25275,0.25624 4.54569,0.19246 6.80893,0.27823 0.56846,0.022 1.01931,0.29254 1.56232,0.38052 1.10122,0.17816 2.33043,0.13527 3.4495,0.21665 3.16449,0.22985 6.33042,0.0297 9.49501,0.0264 3.30142,-0.004 6.61019,-1.10305 9.82076,-1.56935 1.13715,-0.16606 2.32563,-1.10525 3.45943,-0.84901 1.22865,-1.40768 4.14908,-0.72913 5.16348,-2.6394 0.51444,-0.96998 0.16181,-2.39306 0.0491,-3.40923 -0.16292,-1.46707 0.0871,-3.01881 0.0279,-4.50898 -0.029,-0.73353 -0.13168,-1.7761 0.32586,-2.40846 0.462,-0.63896 1.71632,-1.06675 2.46846,-1.22072 0,-0.60597 2.38478,-1.14484 2.90146,-1.52096 0.71755,-0.52348 1.69177,-0.89409 2.34349,-1.46707 0.87267,-0.76762 1.41502,-1.66942 2.15711,-2.49203 0.96418,-1.06896 2.75305,-1.78599 2.75305,-3.42793 -1.30343,-0.24964 -2.52651,-0.71703 -3.79422,-1.03816 -0.70527,-0.17926 -1.40832,-0.11767 -2.12029,-0.35302 -0.46535,-0.15287 -1.69847,-0.0572 -1.7353,-0.76323 -0.0223,-0.41461 0.54458,-0.81382 0.73875,-1.14484 0.66065,-1.12725 1.52885,-2.16101 2.26091,-3.29486 0.44749,-0.69174 1.00323,-1.3274 0.85593,-2.2039 0.84477,-0.51798 1.14942,-1.7728 1.48421,-2.6394 0.75884,-1.95865 1.54,-3.85793 2.2754,-5.82868 0.23324,-0.62576 0.48879,-2.43045 -0.41401,-2.6713 -0.62493,-0.16606 -1.52549,0.99747 -1.8759,1.41428 -1.1829,1.40768 -3.1213,2.59541 -4.60439,3.70396 -3.4014,2.54263 -8.595,3.85903 -12.71172,4.69044 -2.06115,0.4168 -3.74288,0.9227 -5.69132,1.68592 -1.04006,0.40691 -2.30107,0.77753 -3.07107,1.64303 -0.55396,0.62356 -0.34562,1.42088 -0.39829,2.18081 -0.12598,1.81239 -0.21627,3.56319 -0.20154,5.37888 0.007,0.8765 0.20846,2.32927 -0.795,2.75818 -1.15344,0.49488 -2.67748,0.35632 -3.90368,0.52898 -3.96149,0.56088 -7.71151,-0.23645 -11.60583,-0.70824 -0.83662,-0.10118 -1.72447,0.21995 -2.57102,0.11217 -1.12867,-0.14407 -2.18334,-0.48719 -3.3418,-0.56967 -1.91887,-0.13857 -3.78753,-0.47179 -5.69299,-0.65545 -0.71934,-0.0693 -1.44371,0.15617 -2.16762,0.0891 -4.03369,-0.37392 -7.95556,-0.33652 -12.00489,-0.33542 -1.00334,0 -2.0164,-0.21775 -3.01305,-0.19136 -2.69355,0.0704 -5.38532,0.73464 -8.0348,1.05136 -1.39303,0.16606 -2.76999,0.044 -4.14796,0.17046 -0.97444,0.0891 -1.9153,0.39481 -2.88249,0.49049 -1.77155,0.17486 -3.58809,0.0418 -5.35653,0.28484 -2.94643,0.40471 -5.90111,0.8743 -8.92755,0.51579 -1.78138,-0.21116 -3.71632,-0.16167 -5.35653,-0.89191 0.0897,-0.47839 -0.21125,-0.74893 -0.25377,-1.20972 -0.1126,-1.22072 0.014,-2.72299 0.045,-3.95911 0.0369,-1.47587 0.65149,-3.18928 0.0182,-4.61456 -0.31491,-0.70824 -1.10311,-0.98757 -1.59491,-1.54405 -1.27463,-0.0858 -2.59077,-0.95568 -3.79421,-1.35599 -2.42327,-0.80502 -5.11147,-1.72331 -7.70002,-1.83329 -0.18725,-0.63125 -0.93448,-0.36071 -1.45072,-0.46299 -0.79076,-0.15727 -2.7257,-0.72363 -3.23624,-1.29661 -3.30206,-0.52678 -6.05134,-3.43232 -8.52862,-5.38768 -0.67387,-0.53228 -1.72648,-2.08293 -2.52921,-2.27428 -1.05304,-0.24965 -1.15572,0.88969 -1.09554,1.61333 0.11642,1.40108 0.44102,2.84285 1.07694,4.11636 0.27174,0.54329 0.1988,0.95459 0.80975,1.27242 m 51.22184,-5.54826 c -1.12219,0.27714 -1.99084,1.8036 -0.55361,2.36227 0.53955,0.20896 1.21627,-0.12647 1.78115,-0.10228 1.34204,0.0583 3.16683,0.60706 4.46378,0.16607 0.88696,-0.30244 1.66309,-1.55945 0.43589,-2.05874 -0.51423,-0.20785 -1.02444,0.10228 -1.54748,0.0759 -1.47227,-0.0726 -3.13893,-0.79842 -4.57973,-0.44321 m 32.92082,0.24965 c -0.98817,0.28593 -1.73385,1.87067 -0.55351,2.39855 0.64992,0.29143 1.52092,-0.0418 2.22698,0.009 1.56053,0.11218 3.53843,0.93919 5.1079,0.17157 0.80437,-0.39261 0.34672,-1.64633 -0.31838,-1.91907 -0.53833,-0.22105 -1.21114,-0.0869 -1.77647,-0.20235 -1.44626,-0.29474 -3.1819,-0.8941 -4.68652,-0.4575 m -22.98891,2.83515 c -0.72771,0.16937 -2.72123,1.56165 -1.30509,2.2171 0.70672,0.32663 1.78138,-0.0902 2.5227,-0.10887 1.32183,-0.0319 2.90558,0.8996 4.25052,0.4443 0.81565,-0.27493 1.53387,-1.7871 0.4398,-2.2226 -0.64737,-0.25734 -1.34573,0.18916 -2.00212,0.16057 -1.29785,-0.0572 -2.57047,-0.80063 -3.90581,-0.4905 m 15.28844,0.65655 c -0.98225,0.0429 -3.60941,1.29881 -1.88661,2.34688 0.58419,0.35521 1.25923,0.0583 1.88661,0.0385 0.87591,-0.0275 1.70785,0.35632 2.56667,0.29144 1.00313,-0.0759 2.59324,-1.04476 1.19396,-1.94436 -0.6458,-0.41571 -1.58152,-0.25954 -2.3099,-0.39701 -0.48175,-0.0902 -0.9529,-0.35741 -1.45073,-0.33543 m -73.76392,1.03708 -0.1116,0.32992 1.35809,0.59606 4.22163,2.41286 2.34348,1.17013 2.0087,0.10998 c 0.55273,0.33653 1.05769,0.21225 1.62649,0.41901 1.22296,0.44319 2.65461,1.15253 3.95312,1.22621 0.72492,0.0418 2.37083,-0.004 2.56679,0.8842 1.33612,0.13527 2.92879,0.77974 4.09708,1.43958 0.44325,0.25075 1.10445,0.85451 0.55395,1.3428 -1.17632,1.04366 -2.57136,0.63126 -3.93415,0.61256 -1.16148,-0.0165 -2.34918,0.19686 -3.50674,0.27384 -0.53365,0.0352 -1.0346,-0.17266 -1.56233,-0.13637 -0.89309,0.0605 -1.96518,0.59496 -2.72558,1.03267 -0.59235,0.34092 -1.19584,0.4058 -1.57103,1.04476 -0.49291,0.84131 -0.31681,2.43375 -0.42182,3.40813 -0.0933,0.8666 -0.3763,3.05291 0.14306,3.73916 v 0.10997 c -0.22341,0.39701 -0.10077,1.15144 -0.58341,1.3637 -0.70773,0.30902 -2.09363,-0.4718 -2.76443,-0.72475 -2.84447,-1.07555 -5.46815,-3.22887 -7.8116,-5.03796 0.65497,-0.57627 1.42642,-0.56856 2.23189,-0.75223 1.55523,-0.35632 3.22183,-0.64445 4.68697,-1.25701 0.49143,-0.20565 1.02766,-0.21555 1.39391,-0.65105 1.27084,-1.50996 -0.84345,-2.68889 -1.74893,-3.67207 -2.29273,-2.48764 -4.71552,-5.97165 -4.88992,-9.39408 l 0.44638,0.10998 m 131.01188,0.21994 c -0.51111,0.58067 -0.45978,1.42638 -0.83473,2.07084 -1.52996,2.6339 -2.68273,5.51855 -5.04742,7.56189 -0.69747,0.60266 -2.04218,1.64412 -1.33243,2.69879 0.77781,1.15364 2.35129,1.17123 3.53196,1.51436 0.64279,0.18696 1.2744,0.62025 1.90714,0.75113 0.56021,0.11437 2.15713,-0.19356 2.33679,0.59166 0.22319,0.97988 -1.54,1.43957 -2.08793,1.88058 -1.74422,1.40657 -3.77413,2.79337 -5.94017,3.49281 -0.75996,0.24524 -1.19183,0.67854 -2.01875,0.4432 0,-1.81789 -0.13614,-3.58739 -0.21872,-5.38878 -0.0781,-1.70132 0.52561,-2.92864 -1.3436,-4.0141 -0.84588,-0.49159 -1.85469,-0.55427 -2.78986,-0.66535 -1.71855,-0.20235 -3.58329,-0.48609 -5.35653,-0.48939 -1.31012,-0.002 -3.22173,-0.14407 -3.68262,-1.64962 0.40286,-0.066 0.6015,-0.4608 1.00435,-0.65986 0.385,-0.18915 0.92847,-0.19465 1.33913,-0.32992 0.69635,-0.22875 1.33021,-0.71044 2.0087,-0.98978 1.47975,-0.60816 3.38355,-0.8644 4.91016,-0.98977 0.46646,-0.0385 1.03002,-0.56197 1.45073,-0.76983 0.59926,-0.29474 1.58352,-0.28043 2.23189,-0.4399 0.98761,-0.24304 2.002,-0.4366 2.90146,-0.8798 0.38276,-0.18806 0.96529,-0.15287 0.89275,-0.4399 1.29561,-0.0495 3.37127,-1.7563 4.35218,-2.54592 0.46312,-0.37282 1.23312,-1.27462 1.78552,-0.75334 m -0.33479,0.10998 0.1116,0.10997 -0.1116,-0.10997 m -81.12917,1.64963 -0.11159,0.10997 0.11159,-0.10997 m 0,0.21994 -0.11159,0.10998 0.11159,-0.10998 m 4.46379,0.65985 -0.1116,0.10999 0.1116,-0.10999 m 72.3132,5.38879 0.11159,0.10997 -0.11159,-0.10997 m -8.25799,6.15861 c -2.20957,1.37469 -5.54178,2.54262 -8.1464,2.74938 -0.7912,0.0627 -1.71743,0.34312 -2.45508,0 v -4.61896 c 1.69736,0.066 3.28981,0.57187 5.02175,0.59496 1.02556,0.0132 2.10022,-0.33762 3.12465,-0.0429 0.88829,0.25404 2.18056,0.30683 2.45508,1.3175 m -94.74369,2.6394 c -1.85537,0.65325 -3.14585,-0.21775 -4.91016,-0.60926 -1.26927,-0.28264 -2.56455,-0.20236 -3.69099,-0.96119 -0.72558,-0.48939 -1.61878,-0.29363 -1.88873,-1.2889 h -0.44638 c 2.26481,-1.68373 5.58832,-0.74344 8.25799,-0.99307 0.64491,-0.0605 2.01406,-1.02058 2.64412,-0.39702 0.39896,0.39481 0.0769,1.04037 0.0434,1.50006 -0.0578,0.79402 -0.11416,1.98065 -0.009,2.74938 m -11.04785,-0.21995 c 0.66488,0.67195 1.90793,0.77752 2.77089,1.08876 2.23623,0.80502 4.51778,1.65952 6.93783,1.66062 l -0.1116,0.21995 5.02175,0.54987 c 0.64133,0.39702 1.62459,0.066 2.34349,0.13308 0.78829,0.0737 1.54982,0.3948 2.34348,0.4388 0.94654,0.0528 1.84387,-0.26285 2.78986,-0.24085 0.8114,0.0198 1.77725,0.35962 2.45507,-0.22105 1.91809,0.23425 4.33869,0.15066 6.24885,-0.13747 0.6699,-0.10118 1.28456,-0.4168 1.96138,-0.48609 2.73418,-0.27934 5.4958,-0.36402 8.19416,-0.71374 2.49458,-0.32333 4.88069,-0.77642 7.36523,-0.92269 1.32942,-0.077 2.69132,0.17816 4.02734,0.0935 2.3648,-0.15067 5.06471,-0.35742 7.4669,-0.0748 0.797,0.0946 1.56689,0.50149 2.34348,0.59057 2.41513,0.27934 4.93682,0.12207 7.36523,0.34972 1.94476,0.18256 3.7768,0.66315 5.69132,0.94799 2.24561,0.33323 4.76106,0.17926 7.03045,0.34312 2.86964,0.20675 5.79644,0.27164 8.65704,0.0165 0.88629,-0.0792 1.84545,-0.0638 2.72559,-0.20676 0.96864,-0.15727 1.80671,-0.52898 2.78986,-0.23975 v 0.21995 c -0.77223,0.28264 -1.61924,0.75774 -2.07231,1.46048 -0.57917,0.89849 -0.38946,1.7354 -1.61031,2.07303 -1.97566,0.54547 -4.01539,0.38711 -6.0261,0.4278 -0.93304,0.0176 -1.84275,0.34092 -2.78985,0.19355 -0.54894,-0.0858 -1.39638,-0.17705 -1.87658,-0.45419 -0.34605,-0.20016 -0.58442,-0.79403 -1.03325,-0.77532 -0.37184,0.0154 -0.5592,0.4234 -0.89879,0.53117 -0.57001,0.18036 -1.20622,-0.0121 -1.79008,0.12317 -0.52884,0.12317 -0.89465,0.52238 -1.43175,0.59937 0,-1.345 -2.76309,-1.37909 -3.68262,-1.42968 -3.44927,-0.18916 -6.88059,-0.92159 -10.26669,-1.24601 -0.39114,-0.0374 -1.10233,0.0429 -1.45073,-0.12867 -0.8036,-0.39591 -1.53386,-1.53636 -2.0087,-0.055 -1.17464,-0.0627 -2.22375,-1.23831 -3.01305,0.21996 -0.83216,-0.0187 -1.87412,-0.19576 -2.67826,-0.033 -0.86765,0.17487 -1.82056,0.78303 -2.74255,0.62246 -0.75238,-0.13087 -0.82614,-0.8523 -1.17722,-1.34499 -0.3052,-0.42781 -1.06081,-0.83471 -1.54837,-1.01728 -0.84176,-0.31452 -2.04988,-0.66424 -2.94877,-0.52458 -0.77179,0.11988 -1.54837,0.67965 -2.29616,0.64776 -0.34227,0.58507 -1.03147,0.81931 -1.42183,1.37579 -0.68318,0.97547 -0.73753,1.86408 -0.92166,2.91324 l 1.11595,0.4399 v 0.8798 h 0.22319 l -0.44639,1.09975 c 1.04007,0.77642 -0.075,2.78457 0.32285,3.84803 0.22531,0.60046 1.28735,1.53965 1.64981,0.54878 0.42205,-1.15364 0.25924,-2.53493 0.25924,-3.73696 1.23099,0.13088 3.23389,0.9084 4.12296,1.7805 0.37943,0.37171 0.97656,1.7739 1.6651,1.56715 0.60105,-0.18036 0.51479,-1.54405 0.68441,-2.02795 h -0.22318 l 0.22318,-1.64962 h 0.44638 l -0.33478,0.32992 v 0.10998 c 0.84421,0.28814 0.98214,1.53305 1.89722,1.91246 1.40854,0.58397 2.6142,-0.35192 3.89956,0.006 0.54402,0.15066 0.83294,1.23612 1.51567,0.65656 0.43455,-0.36952 0.29639,-1.3846 0.29204,-1.91468 -0.0124,-1.51985 0.37094,-2.99022 0.31871,-4.50897 l 0.44639,-0.10998 -0.1116,0.4399 c 0.58029,0.32552 1.03638,1.72221 0.44638,2.1995 0.47784,1.21742 -0.29952,2.80766 0.23881,3.95911 0.34974,0.74783 1.76788,1.11075 1.88728,-0.004 0.0931,-0.8688 -0.38823,-1.69472 -0.44001,-2.52503 -0.0896,-1.43847 0.0879,-2.96602 0.21102,-4.399 l 1.11595,-0.21995 1.67392,0.76982 c -0.39159,0.23755 -0.82591,0.35302 -1.22319,0.57297 -0.254,0.14077 -0.48019,0.33872 -0.66745,0.55868 -1.50641,1.7651 1.38043,2.16321 2.00223,3.15738 l 1.67391,1.64963 c -0.10757,0.78522 0.88249,1.79149 1.56177,0.95569 0.56467,-0.69614 -0.0625,-1.96086 0.55853,-2.49534 l -0.1116,-0.76988 h 0.1116 v 0.4399 l 1.91764,1.61444 2.09976,0.58507 c 0,0.58617 1.96563,1.96305 2.39928,0.8798 0.28892,-0.72144 -2.84443,-2.50524 -0.72537,-2.62071 0.18492,-0.011 0.37686,0.0583 0.55798,0.0913 l 0.22319,0.54988 c 1.29248,9.3e-4 3.08614,1.20423 3.34783,2.52942 l 0.33479,-0.10997 c 0.36044,1.25041 1.26514,0.4388 1.41434,-0.4399 0.28836,-1.69692 -0.2214,-3.35755 -0.0752,-5.05886 l 0.22318,0.21995 0.22319,-0.10997 c 0.61411,0.8589 0.75059,1.95535 0.44638,2.96933 l 0.22319,0.76982 h -0.22319 c 0.16505,0.50588 0.048,0.95128 0.11763,1.46157 0.0691,0.50588 0.91094,1.84098 1.31737,0.77423 0.44693,-1.17234 0.003,-2.59321 0.35052,-3.77545 l 0.22318,0.21995 0.33478,-0.10997 c 0.10993,1.08435 1.12588,0.8435 1.89276,1.20642 0.70851,0.33433 2.48911,2.09173 2.45943,2.86265 2.05389,0.62466 1.38767,-2.76697 1.22754,-3.9591 l 0.33478,-0.32993 -0.33478,0.10998 0.33478,-0.32993 v -0.10997 -0.10997 l -0.33478,-0.43991 h 0.22319 l -0.1116,-0.32993 0.22319,0.43991 c 0.61299,0.8655 -0.0657,2.49863 1.64323,2.74608 0.64602,0.0935 1.15924,-1.24272 1.76476,-0.86771 0.71911,0.4454 0.0926,1.57375 0.37975,2.17201 0.1636,0.33982 0.68976,0.73354 1.03961,0.39151 0.37853,-0.36951 0.29071,-1.42967 0.2685,-1.91247 -0.0527,-1.14814 0.13347,-2.52172 1.26503,-3.0793 0.0313,1.70351 -0.61934,4.74433 1.56233,5.16884 0.2377,-0.60267 0.38053,-1.21083 0.31246,-1.86958 -0.10824,-1.05137 -0.88159,-2.43706 0.4687,-3.0793 l -0.11159,0.43989 c 0.61711,0.34313 0.98091,1.09426 1.45742,1.60234 1.04898,1.12064 2.18837,1.87508 3.78751,1.86738 1.76208,-0.009 2.86798,-1.69142 2.72068,-3.24976 -0.0435,-0.4729 0.11271,-0.86771 -0.2656,-1.20973 0.0346,-0.9018 -0.28791,-1.82999 -0.0591,-2.73948 0.13838,-0.54768 0.96529,-0.74783 0.97981,-1.33071 0.0256,-1.10525 -1.77213,-0.87649 -2.37139,-0.54877 l -2.77536,-1.49896 -1.13044,-0.59056 c -0.57471,0.13526 -1.11037,0.21554 -1.45073,-0.32993 l 1.33913,-0.40361 4.35218,-1.3197 1.00435,-0.0726 2.1203,-0.71483 0.4832,0.8611 0.18637,3.18928 -0.019,8.90798 -0.0926,3.51921 c -4.25732,2.28638 -8.66419,3.14529 -13.39133,3.74356 -1.27831,0.16276 -2.51879,0.59056 -3.79421,0.73023 -1.16661,0.12867 -2.49882,-0.17046 -3.68262,-0.18476 -1.58051,-0.0176 -3.09864,0.26394 -4.68696,0.17926 -0.94286,-0.0506 -1.77793,-0.39151 -2.67827,-0.49819 -1.06762,-0.12647 -2.18569,0.0968 -3.23624,-0.0341 -1.29293,-0.16276 -2.94665,-0.59386 -4.24059,-0.4168 l -1.8971,-0.43991 v 0.21995 l -4.91004,-0.34751 -3.79433,-0.63237 -6.58407,0.20346 -9.74064,-0.002 -4.65505,0.69614 -5.13334,0.67198 -3.01305,0.11767 -2.67827,0.49269 -2.56667,0.22984 c -0.9451,-0.0484 -2.81018,-0.26064 -3.57102,0.32993 -4.91585,-0.4421 -9.85368,-0.27164 -14.7115,-1.34719 -1.80872,-0.40031 -3.58564,-0.94469 -5.37985,-1.47917 -0.91977,-0.27494 -1.9345,-0.8853 -2.89711,-0.80282 -0.34159,-0.52568 -1.12029,-0.64995 -1.36837,-1.18443 -0.68731,-1.48356 -0.29249,-4.22194 -0.0817,-5.80779 0.0805,-0.60486 -0.0593,-1.29661 0.33412,-1.80579 -0.3031,-0.4311 -0.43946,-1.39339 0,-1.7596 v -0.10998 l -0.30377,-3.18928 0.30377,-0.54987 -0.33479,-2.85936 0.37195,-0.49489 1.07878,-0.27493 m 29.12615,3.62918 0.11159,0.10997 -0.11159,-0.10997 m 18.63628,0.98978 0.66956,0.43989 c -0.26615,0.4487 -1.96038,0.94029 -2.34348,0.54988 l -2.23189,0.21995 0.55797,-0.65985 -0.22319,-0.21995 1.33913,-0.32992 c 0.56077,-0.68295 1.52673,-0.003 2.2319,0 m -45.41895,2.52942 h -0.33478 c -0.16327,-1.57264 -0.82993,-1.54845 -2.0087,-0.65985 l 0.22319,0.43991 c -1.18157,0.70713 0.0675,2.09832 0,3.07929 0.89153,0.24965 1.40643,1.15695 2.17118,1.62654 1.07867,0.66205 2.41323,0.89739 3.51579,1.53745 0.4438,0.25734 0.7277,1.37249 1.23468,1.3252 0.44928,-0.0407 0.59848,-0.55977 0.63977,-0.92379 0.11806,-1.03487 0.26905,-2.09172 0.1386,-3.1255 0.50574,0.22105 0.7826,0.68625 1.24695,0.96668 0.67515,0.40802 1.5409,0.61037 2.05579,1.25262 0.45688,0.57078 0.99866,3.46752 2.35364,2.61631 0.22319,-0.13966 0.31883,-0.45859 0.48131,-0.65655 l -0.22319,-0.98978 1.88673,-0.33322 1.4611,-1.3164 c 0.39962,1.43957 1.56043,2.73838 2.53822,3.84803 0.29227,0.33103 1.14262,1.14704 1.54927,0.51579 0.47137,-0.73134 -0.54871,-1.7948 -0.62805,-2.49424 -0.68196,-0.59937 -1.50073,-1.7838 -1.78552,-2.6394 0.38031,-0.13968 0.86151,-0.23316 1.16538,-0.51139 0.92546,-0.84791 1.41312,-3.13759 0.0127,-3.78865 -1.00435,-0.46739 -2.14618,0.0759 -3.18681,-0.13086 -2.21258,-0.43771 -4.3389,-0.95239 -6.58406,-1.32081 -0.84087,-0.13746 -1.46848,-0.55867 -2.34349,-0.40691 l -0.66956,-0.21995 c -0.40387,-0.49928 -1.11015,-0.37941 -1.67392,-0.23755 -1.31771,0.33213 -2.76185,1.27022 -3.23624,2.54703 m 97.86833,-1.86957 v 0.10997 l -3.01305,0.8798 h -0.11159 -0.1116 l 0.1116,-0.32992 h -0.55798 l 1.00435,-0.65985 -0.11159,-0.21996 1.3581,-0.17706 1.43176,0.39702 m -52.11461,-0.10998 0.1116,0.10998 -0.1116,-0.10998 m -45.97692,1.75961 0.11161,0.10997 -0.11161,-0.10997 m 0.66957,0 -0.22318,0.76982 h -0.33478 c 0.27284,0.28593 0.33767,0.4355 0.11159,0.76982 l 0.22319,0.43991 -0.44639,-0.32993 0.11161,-0.21995 -0.33479,-0.10997 0.22318,-0.32993 -0.11159,-0.54988 0.33479,0.10998 0.22319,-0.54987 h 0.22318 m 20.75657,0.65984 1.22754,1.86958 0.44638,-0.10997 v 0.21995 c 0.70026,-0.044 1.65974,0.55976 0.94163,1.2724 -0.35185,0.34863 -0.96239,0.35853 -1.37149,0.66206 -0.2108,0.15727 -0.33902,0.32442 -0.30678,0.59496 0.098,0.82262 1.59022,2.49974 2.41055,1.53965 l 0.33479,0.10998 c 0.17609,-0.26064 0.36592,-0.49049 0.57873,-0.72364 2.09139,-2.28638 1.33489,2.82747 2.89956,3.17279 0.50943,0.11217 0.85671,-0.49819 0.91519,-0.9095 0.181,-1.27351 0.17118,-2.77027 0.18189,-4.06907 l 1.89711,1.75959 1.00435,0.32993 c 0.96819,0.0275 2.30955,0.73134 2.34348,1.7596 -0.18871,0.006 -0.37495,0.002 -0.55898,0.0517 -1.92846,0.52019 0.82324,2.30728 1.11695,2.80766 0.3859,0.0946 0.81855,0.39922 1.22542,0.26175 0.61522,-0.20786 0.66187,-1.20643 0.22531,-1.58145 l 0.11159,-0.32992 -1.33913,-0.65985 0.33478,-0.54988 0.44638,0.10998 c 0.29015,-1.53966 -0.87523,-3.70836 -2.56667,-3.9591 0.27687,-0.30684 0.78217,-0.5004 1.00167,-0.83032 0.42774,-0.64335 0.24953,-2.81206 -0.46434,-3.20358 -1.27486,-0.70053 -2.55764,0.37172 -3.76352,0.34422 -0.44348,-0.01 -0.79612,-0.32332 -1.23759,-0.36731 -1.02019,-0.10228 -2.09507,0.0286 -3.12464,-0.0165 -1.71041,-0.0748 -3.31693,-0.35852 -4.91016,0.4443 m -14.95365,-0.54988 2.12029,0.4399 c -0.48711,0.72913 -1.62839,1.03927 -2.45507,1.09976 l -0.1116,-1.42969 0.44638,-0.10997 m 38.0537,0.4399 c -0.40865,0.78303 -1.66945,1.59135 -2.56667,1.64963 0.11271,-1.57705 1.02344,-1.81679 2.56667,-1.64963 m -37.19811,0.14627 0.0743,0.0374 -0.0743,-0.0374 m -9.55996,0.18366 -0.1116,0.10998 0.1116,-0.10998 m 73.54074,0.10998 0.22319,0.32992 -0.11159,0.10998 h -0.1116 l -0.11159,-0.10998 0.11159,-0.32992 m -22.65367,0.21994 -0.22319,0.21996 v -0.21996 h 0.22319 m 22.65367,0 0.1116,0.10998 -0.1116,-0.10998 m -56.68998,0.43991 c -0.067,0.59386 0.008,1.10855 0.44638,1.53964 l -0.22319,0.21996 0.55797,0.10997 v 0.10998 h -0.33478 c 0.0691,0.61366 0.0122,1.20312 -0.55797,1.53965 l 0.33478,-0.32993 c -0.34103,-0.58177 -0.97846,-1.44287 -0.22319,-1.97955 v -0.10997 l -0.33478,0.10997 -0.33479,-0.21995 -0.22319,-1.09975 0.89276,0.10998 m 34.25949,-0.21995 0.1116,0.54987 0.55797,-0.10998 -0.89275,1.09976 h -0.55797 l 0.11159,-1.20973 0.1116,-0.10997 0.22318,0.10997 0.33478,-0.32992 m 5.46814,0.21995 -0.1116,1.64963 -0.33478,-0.10999 0.1116,0.32993 -0.1116,0.10998 -2.45508,0.32993 v -0.43991 c 0.91519,-0.49819 1.87468,-1.89487 2.90146,-1.86957 m 17.18554,-0.10998 c 0.018,0.53998 0.14876,0.71484 0.66957,0.8798 v 0.10997 l -0.55798,0.21996 c -0.20945,-0.38931 -0.36592,-0.82152 -0.11159,-1.20973 m -57.58274,0.10998 0.33479,0.32992 -0.33479,-0.32992 m 68.519,0.54987 -0.78117,0.4399 c -0.26268,0.4212 -0.61432,0.63676 -1.11594,0.65986 l -0.89276,0.43989 c -0.048,-1.10304 -0.24985,-1.52755 0.78117,-2.08952 0.73105,0.0803 1.66465,-0.25845 2.0087,0.54987 m -75.88423,-0.4399 v 0.10997 h -0.33478 l 0.33478,-0.10997 m 56.4668,0.10997 0.22318,0.65985 -0.44637,-0.21994 0.22319,-0.43991 m -9.03915,0.10998 0.11159,0.10997 -0.11159,-0.10997 m -39.95082,0.10997 0.1116,0.10998 -0.1116,-0.10998 m 34.92906,0 0.1116,0.10998 -0.1116,-0.10998 m 14.39569,0.0363 c 0.0863,0 0.0178,0.055 -0.0372,0.0374 l 0.0372,-0.0374 m -4.24059,0.0737 0.11159,0.10998 -0.11159,-0.10998 m -10.37829,0.10998 0.11159,0.10997 -0.11159,-0.10997 m 40.17401,0.0363 0.0372,0.0374 c -0.055,0.0176 -0.12343,-0.0374 -0.0372,-0.0374 m -7.14205,0.18365 0.1116,0.10998 -0.1116,-0.10998 m -33.25515,0.54988 -0.11159,0.10997 0.11159,-0.10997 m 37.83052,0 -0.11159,0.10997 0.11159,-0.10997 m 8.1464,0.21996 -0.1116,0.10997 0.1116,-0.10997 m -19.41743,0.10997 c 0.0642,0.26394 0.053,0.27384 -0.22319,0.32992 l 0.22319,-0.32992 m -62.71609,0.10997 -0.11159,0.10998 0.11159,-0.10998 m 38.94647,0 v 0.32993 h -0.1116 l 0.1116,-0.32993 m 46.31169,0 0.33479,0.32993 -0.44638,-0.21995 0.11159,-0.10998 m -22.87686,0.10998 -0.1116,0.10997 0.1116,-0.10997 m -68.85378,0.10997 0.1116,0.10998 -0.1116,-0.10998 m 68.63059,0 v 0.21996 h -0.22319 l 0.22319,-0.21996 m 0.33479,0.10998 -0.1116,0.10998 0.1116,-0.10998 m 5.13334,0 -0.22319,0.21995 0.22319,0.32992 -0.33479,-0.10997 0.1116,-0.4399 h 0.22319 m 14.43251,0.0737 0.0379,0.0726 -0.0379,-0.0726 m -19.34266,0.0363 -0.1116,0.10997 0.1116,-0.10997 m -33.25516,0.10997 0.1116,0.10997 -0.1116,-0.10997 m -35.37543,0.10997 0.11159,0.10998 -0.11159,-0.10998 m 83.36105,1.09976 h -0.33478 l 0.11159,-0.21996 0.22319,0.21996 m -62.82768,0 -0.11159,0.10997 0.11159,-0.10997 m -30.72563,3.22556 0.0743,0.0374 -0.0743,-0.0374 m 40.88073,2.27319 -0.1116,0.10998 0.1116,-0.10998 m -34.14791,4.06909 -0.11159,0.10997 z"
       id="path22"
       inkscape:connector-curvature="0" />
  </g>
</svg>
