<?xml version="1.0" encoding="UTF-8" standalone="no"?>
<svg
   xmlns:dc="http://purl.org/dc/elements/1.1/"
   xmlns:cc="http://creativecommons.org/ns#"
   xmlns:rdf="http://www.w3.org/1999/02/22-rdf-syntax-ns#"
   xmlns:svg="http://www.w3.org/2000/svg"
   xmlns="http://www.w3.org/2000/svg"
   xmlns:sodipodi="http://sodipodi.sourceforge.net/DTD/sodipodi-0.dtd"
   xmlns:inkscape="http://www.inkscape.org/namespaces/inkscape"
   inkscape:version="1.0rc1 (09960d6, 2020-04-09)"
   sodipodi:docname="logo.svg"
   viewBox="0 0 1696 2401.3333"
   height="2401.3333"
   width="1696"
   id="svg10"
   version="1.1">
  <metadata
     id="metadata16">
    <rdf:RDF>
      <cc:Work
         rdf:about="">
        <dc:format>image/svg+xml</dc:format>
        <dc:type
           rdf:resource="http://purl.org/dc/dcmitype/StillImage" />
        <dc:title></dc:title>
      </cc:Work>
    </rdf:RDF>
  </metadata>
  <defs
     id="defs14" />
  <sodipodi:namedview
     inkscape:current-layer="g18"
     inkscape:window-maximized="1"
     inkscape:window-y="-9"
     inkscape:window-x="-9"
     inkscape:cy="922.72281"
     inkscape:cx="848"
     inkscape:zoom="0.41976681"
     showgrid="false"
     id="namedview12"
     inkscape:window-height="1361"
     inkscape:window-width="2560"
     inkscape:pageshadow="2"
     inkscape:pageopacity="0"
     guidetolerance="10"
     gridtolerance="10"
     objecttolerance="10"
     borderopacity="1"
     bordercolor="#666666"
     pagecolor="#ffffff" />
  <g
     id="g18"
     inkscape:label="Image"
     inkscape:groupmode="layer">
    <path
       inkscape:connector-curvature="0"
       id="path22"
       d="m 467.99996,376.00396 c -21.6347,23.77067 -53.784,38.75867 -79.9747,56.24133 -9.8626,6.58267 -17.72,16.83467 -26.8106,24.55334 -18.5027,15.712 -37.42,29.804 -53.596,47.824 -32.524,36.22799 -65.412,74.50266 -93.4027,114.42933 -12.956,18.48133 -19.076,44.9 -36.8827,59.61866 -0.1493,13.708 -13.7466,28.57334 -19.9386,40.38134 -12.516,23.86266 -22.8214,50.764 -33.4409,75.61866 -7.4561,17.45067 -10.4486,36.73733 -16.7314,54.66667 -11.400295,32.53066 -23.185195,64.86 -29.656395,98.66666 -3.7014,19.336 -2.5676,39.5227 -5.8652,58.64665 -2.0862,12.0986 -8.0878,23.2706 -9.1503,36.02 -0.8409,10.092 3.2312,20.4413 1.5525,30.6666 -1.6784,10.224 -8.039,23.6947 -3.2984,34.3667 4.7995,10.8053 29.9938,6.7573 39.195495,6.9867 32.4184,0.804 65.1386,-1.0307 97.3332,1.7786 11.4987,1.004 30.92,4.88 39.0107,-6.084 6.7133,-9.0946 5.0053,-29.7773 8.18,-41.048 5.384,-19.1173 5.8693,-39.468 10.8027,-58.6666 3.096,-12.05065 11.0933,-22.73065 13.608,-34.66665 2.6866,-12.7467 2.4533,-25.868 6.4573,-38.44 5.4987,-17.26533 13.4147,-33.91866 19.2507,-50.89466 5.1746,-15.04934 7.888,-31.94267 14.0613,-46.66534 3.7907,-9.04133 11.4093,-16.32133 15.3573,-25.452 6.5227,-15.08133 9.364,-31.73733 17.432,-46.32133 22.0307,-39.82 51.248,-73.94666 80.6027,-108.22666 10.7747,-12.58267 19.5013,-28.508 31.2627,-39.88134 48.7706,-47.16133 108.5306,-87.92799 169.328,-116.78666 17.9533,-8.52133 37.5733,-11.76267 55.98,-18.79733 49.5373,-18.93334 102.632,-32.67867 156,-36.416 18.35864,-1.28534 37.62004,2.55866 56.00004,3.38 7.3053,0.32666 14.1226,-2.932 21.56,-2.15334 62.5106,6.54934 122.0173,27.60534 177.112,56.036 18.3933,9.492 38.5613,17.79067 55.5613,29.91867 9.2907,6.62666 15.828,16.90533 24.8147,24.13066 53.1826,42.76267 97.1306,89.916 133.7293,147.236 6.4907,10.164 15.3413,18.16534 22.0027,28.11867 9.3,13.90667 15.3266,28.088 22.94,42.32133 11.24,21.00133 24.88,39.484 34.4133,61.56 4.92,11.4 18.5733,23.88667 19.8667,36 l 15.88,38.49333 13.36,25.50667 9.4266,21.33333 5.3334,28 c 8.36,8.8453 11.6533,27.13465 15.5066,38.61465 8.0667,24.0293 17.1467,48.3946 26.48,72.052 4.6534,11.7933 2.5734,26.7866 14.1334,35.0626 12.1333,8.688 31.8266,3.3627 45.2133,2.776 15.0533,-0.66 30.2533,3.4894 45.3333,3.4947 13.6134,0.01 28.0134,-2.06 41.3334,-1.2133 7.2933,0.464 17.3733,3.4706 22.7466,-3.5307 4.6667,-6.0733 -0.1333,-15.0773 -0.1066,-21.9227 0.04,-11.4826 -4.44,-22.1226 -6.3867,-33.3133 -2.4667,-14.14 -1.3733,-27.184 -5.72,-41.3533 -3.7733,-12.2387 -1.5333,-24.3187 -4.5467,-36 -9.6666,-37.48265 -22.1066,-75.26531 -33.84,-111.99998 -7.5333,-23.61333 -16.6266,-48.24533 -26.68,-70.66667 -3.52,-7.83066 -9.8,-14.68533 -12.7333,-22.64666 -2.5467,-6.908 -2.1733,-14.66934 -4.8267,-21.352 C 1545.4,732.70396 1517.52,692.80662 1492.88,653.33729 1395.2933,497.08796 1247.7253,377.55063 1073.3333,316.96663 c -33.2826,-11.56214 -68.1866,-14.67334 -102.6666,-20.21573 -12.24,-1.96747 -23.744,-8.20134 -35.9947,-9.68 -13.2333,-1.59734 -27.236,1.2868 -40.0053,-0.28814 -9.836,-1.21306 -18.9907,-4.73653 -29.3334,-5.32093 -7.2666,-0.41067 -14.1013,2.34307 -21.3333,2.52267 -11.13874,0.2764 -22.21204,-2.33814 -33.33334,-1.83334 -16.6334,0.7548 -33.832,4.38134 -50.6667,5.65947 -17.6267,1.3384 -35.94,0.21413 -53.3333,2.16453 -27.1707,3.04667 -52.9147,14.87333 -78.6667,22.78213 -22.0013,6.756 -45.3933,8.83067 -66.6147,18.68667 -18.384,8.53867 -38.1853,16.58133 -56.052,26.13067 -11.0493,5.90533 -25.0293,16.40666 -37.3333,18.42933 m 653.33334,-26.66667 c 4.1307,7.10267 15.6374,10.34134 22.6667,14.41467 20.0053,11.58933 41.3147,20.20933 61.3333,31.504 45.628,25.74533 87.5627,59.73733 126.0134,94.77467 17.6666,16.104 42.12,29.94666 54.1733,51.30666 4.76,8.45067 11.84,11.54 18.4667,18.05467 9.9066,9.75066 18.2133,21.16666 26.0666,32.612 3.8667,5.636 13.8134,18.03466 5.9467,22.66666 -12.5333,-22.34266 -39.7467,12.972 -50.68,19.93867 -5.6533,3.60133 -19.24,8.664 -18.4133,17.34133 1.2933,13.864 26.68,-3.324 34.04,0.32534 5.5066,2.728 8.56,9.012 13.7333,12.26133 4.5067,2.82667 11.8933,2.10667 11.5333,-4.55867 -0.4533,-8.64666 -8.2,-15.57866 -10.2133,-23.97466 14.5733,-8.98 18.9333,8.776 28.6133,16.34266 4.4,3.44134 10.8934,1.64267 11.24,-4.368 0.2,-3.568 -1.2933,-7.028 -1.1866,-10.64133 l -6.6667,-6.66667 4,-1.33333 c 9.4533,10.76267 15.12,22.60667 23.68,33.45733 7.1733,9.10267 17.2533,18.316 17.6533,30.54267 9.0267,2.928 13.88,13.644 18.4,21.33333 11.8667,20.17467 19,43.29734 30.2667,64 22.24,40.91333 33.64,88.188 48.36,132 4.2667,12.712 12.8267,24.15467 16.48,37.33333 6.3067,22.7427 7.56,46.54 13.9467,69.33325 6.96,24.7934 10.36,49.0387 13.88,74.2854 1.0666,7.6146 6.9866,16.8053 4.2266,24.9266 -3.52,10.308 -18.7066,7.1494 -26.8933,7.5067 -23.84,1.044 -46.7733,-1.5347 -70.6667,-1.8987 -7.4533,-0.1133 -19.7066,3.6614 -25.96,-1.8413 -6.8133,-5.9853 -6.0266,-17.616 -8.1466,-25.6453 -4.9467,-18.648 -11.24,-51.0814 -24.56,-65.3334 0.2933,-10.34 -6.96,-20.676 -9.4534,-30.66655 -6.3733,-25.66 -16.0133,-49.9 -27.56,-73.7147 -4.7733,-9.84133 -8.6133,-22.33866 -16.32,-30.28533 -0.16,-8.15067 -6.24,-17.82933 -9.6266,-25.33333 -7.28,-16.13067 -14.2667,-31.06534 -22.48,-46.66667 -4.76,-9.024 -7.0267,-19.64 -11.5734,-28.952 -4.0133,-8.204 -10.9066,-14.98666 -15.3733,-23.04933 -13.6667,-24.63067 -27.1333,-50.268 -43.28,-73.332 -10.844,-15.48933 -25.9213,-29.02 -37.72,-44 -52.072,-66.108 -113.3733,-122.736 -187.9467,-163.10533 -12.7373,-6.89467 -26.82,-10.65867 -40,-16.592 -31.8426,-14.33467 -65.36,-28.008 -100,-34.51733 -8.2906,-1.55734 -16.9773,0.30133 -25.3333,-0.69734 -15.3373,-1.836 -31.5,-6.4 -46.6667,-7.244 -13.5653,-0.756 -27.776,1.51467 -41.3333,2.104 -9.5707,0.416 -19.94274,-1.81466 -29.33334,-0.66133 -7.8534,0.96533 -15.328,4.75467 -23.232,5.72267 -16.156,1.97866 -32.8094,1.60933 -48.768,4.69066 -6.484,1.252 -12.2654,5.49067 -18.6667,7.312 -13.848,3.94267 -27.7187,4.67867 -41.3333,8.98134 -10.5907,3.34533 -20.2547,10.136 -30.6667,14.072 -96.8587,36.62133 -176.8533,94.27866 -245.2133,172.19599 -14.012,15.97067 -30.8227,30.54667 -43.28,47.73334 -36.5427,50.416 -62.9987,106.08266 -84.4187,164.00533 -3.1227,8.44666 -10.6307,14.52 -13.9213,22.68666 -7.4134,18.40134 -7.876,38.35067 -13.16,57.31334 -7.4534,26.74266 -16.7894,52.78936 -23.672,79.61861 -3.6627,14.2747 -8.0254,29.6347 -9.9094,44.3813 -1.316,10.308 0.9,24.168 -6.0626,33.0294 -5.9654,7.5933 -23.7534,6.2306 -32.3627,5.4106 -14.408,-1.3706 -30.928,-3.12 -45.3333,-2.0413 -16.2265,1.216 -37.3481,6.1787 -53.249895,-1.336 -8.4715,-4.0027 -3.6612,-22.2907 -2.6266,-29.7293 4.109,-29.5427 8.548,-58.7174 13.0308,-87.99995 10.995795,-71.82536 35.185195,-144.8227 64.568295,-210.66669 2.2307,-5.00134 1.3067,-10.572 3.476,-15.43467 5.0547,-11.32533 15.1027,-20.35333 20.6307,-31.45867 17.6853,-35.532 37.648,-69.06133 56.8973,-103.77333 16.032,-28.912 38.156,-50.21733 59.368,-75.052 5.7494,-6.732 8.4747,-15.64133 14.6427,-22.39333 15.7387,-17.22667 34.512,-30.18267 51.9773,-45.408 44.0374,-38.39067 92.3987,-75.044 144.6187,-101.53733 91.844,-46.596 198.9347,-71.256 301.3333,-77.46413 16.932,-1.02654 33.94144,3.05626 50.66674,3.0832 14.2987,0.0229 28.2973,-2.12734 42.6667,-1.10907 7.872,0.55773 13.872,5.05146 21.3333,6.39706 6.168,1.11267 12.556,-1.184 18.6667,-0.11213 39.112,6.86133 78.5586,17.15173 116.952,27.53573 19.5613,5.29067 37.264,16.44267 57.7146,18.06 m -228,5.33334 c -9.0613,-17.15467 -23.3426,-22.51334 -42.6666,-18.66667 -3.9987,0.796 -11.2374,0.56667 -13.704,4.33333 -7.35604,11.23867 -3.17744,30.10667 -4.96274,42.33334 h -1.3333 v -12 -1.33334 c -5.7707,-6.70933 -0.6227,-17.41733 -5.6867,-25.32666 -11.4533,-17.89067 -43.92,-11.08134 -51.9427,6.712 -4.592,10.184 4.212,16.608 -7.704,25.28133 -1.536,-23.91867 -15.9066,-34.34 -38.6666,-29.488 -5.8934,1.25733 -14.9467,0.792 -17.8667,7.228 -3.776,8.32 -1.2653,32.11733 2.1467,40.54533 1.7946,4.43467 5.1186,9.67334 10.4066,9.384 15.2694,-0.83466 3.6587,-21.96 4.9387,-30.336 0.804,-5.264 6.4853,-11.40533 12.2293,-8.75733 12.5614,5.78933 2.176,35.26133 21.472,33.668 2.7027,-0.22267 5.4387,-1.44267 8.0067,-2.244 l 4,-12 c 2.936,18.128 38.46,14.59867 50.6147,9.524 4.4586,-1.86267 7.7706,-5.908 12.052,-8.19067 -0.7387,8.53467 10.07064,10.876 14.42404,3.696 4.9946,-8.23733 -3.1507,-36.97466 12.176,-37.36 6.2613,-0.15866 6.08,8.08 6.3786,12.33067 0.5867,8.368 -0.1013,31.336 11.0414,32.33733 6.9506,0.624 11.736,-6.848 18.6466,-6.05466 14.2294,1.63333 30.6254,15.44666 46.268,5.29333 14.556,-9.44667 8.576,-39.388 9.104,-54.24267 0.176,-4.948 2.176,-15.292 -3.776,-17.83733 -8.2306,-3.52 -12.0066,7.812 -17.1026,11.38 -5.8267,4.07867 -13.3427,3.20933 -19.7747,5.57733 -7.8507,2.892 -12.612,8.888 -18.7187,14.21334 m 77.3334,16 c -18.4854,3.724 -16.772,23.076 -4.5467,33.188 7.344,6.07466 24.5867,6.29466 33.856,5.328 10.408,-1.08534 7.4307,-13.69867 9.0867,-21.18267 4.2173,-19.06667 6.372,-31.508 -15.7814,-38.59467 -15.9173,-5.09066 -33.896,4.38134 -22.6146,21.26134 m -50.5894,-16.244 c 13.264,-3.076 16.176,26.03733 3.784,27.85466 -12.6946,1.86267 -15.3413,-25.17333 -3.784,-27.85466 M 1068,417.33729 c 7.9813,23.796 16.308,25.61467 36,10.66667 0.612,4.54933 -1.0973,8.96133 -0.4773,13.32667 1.3133,9.24 13.0053,9.364 18.84,4.46933 9.1946,-7.71467 5.94,-24.02133 12.304,-32.46267 -0.013,-9.96 8.9506,-20.01333 7.036,-30.28 -1.4694,-7.88 -10.7507,-8.38533 -16.364,-5.22533 -11.328,6.376 -21.2974,20.99067 -30.672,30.172 l -4,-5.33333 c 1.7413,-7.312 1.0906,-13.94667 0.4,-21.33334 -0.5027,-5.37466 1.376,-10.61733 0.676,-15.98 -1.8227,-13.95866 -18.292,-9.088 -24.3654,-1.33333 -7.936,10.13467 -9.3186,24.24133 -13.6546,35.98 -2.4054,6.51733 -6.912,13.932 -6.1987,21.25467 1.192,12.23733 17.008,-0.312 20.476,-3.92134 m -413.33334,-32 c -2.352,8.31334 -3.7747,21.224 -12,25.33334 -4.2467,-5.612 -13.4427,-5.92934 -17.2774,-12.5 -3.264,-5.59467 9.8,-23.31734 -1.468,-24.10534 -8.2773,-0.58 -12.0346,13.44267 -19.7626,11.496 -5.6534,-1.424 -18.7547,-34.57466 -26.7694,-12.16666 -4.2373,11.85066 12.5614,26.07466 11.944,38.60933 10.0747,3.168 10.192,23.85067 21.4667,25.43867 10.3013,1.45333 4.24,-17.03467 10.8507,-18.404 6.572,-1.36 13.8733,7.308 21.016,7.55333 7.5186,0.25867 11.844,-4.57733 18.6666,-6.17067 15.028,-3.50933 28.132,-1.75333 42.3667,-10.49333 7.112,-4.36667 2.8573,-11.75733 1.068,-17.924 -3.8293,-13.196 -10.2,-32.796 -26.1013,-34.488 -8.172,-0.87067 -22.8054,3.37333 -28.368,9.612 -5.8254,6.53467 -4.8534,16.73867 4.368,18.20933 M 990.6667,364.00396 c -1.8974,6.172 -5.3894,5.90933 -9.3334,1.33333 l 9.3334,-1.33333 m -18.6667,4 -1.3333,1.33333 1.3333,-1.33333 m -144.00004,1.33333 -1.3333,1.33334 1.3333,-1.33334 m -28,8 -4,2.66667 4,-2.66667 m 190.66674,10.66667 -1.3334,4 H 980 v -4 h 10.6667 m 144,74.66667 c 3.5013,-0.23067 9.1773,-3.04267 12.3893,-1.876 4.7213,1.716 5.9787,9.97466 8.1627,13.87466 3.3493,5.984 10.452,12.08934 16.9,14.62934 7.788,3.06666 18.72,-5.68667 25.172,-0.12667 2.8306,2.43867 3.368,6.95067 5.7466,9.87867 12.688,15.61733 21.772,23.40133 40.9627,14.28666 0.087,5.328 -2.7107,12.068 -0.528,17.136 4.192,9.732 17.244,0.23467 21.8613,-3.80266 -8.148,30.79599 21.2974,49.32666 48,38.66666 -2.0413,4.676 -11.3413,16.436 -4.7026,20.88933 12.56,8.42534 23.88,-22.15866 36.6226,-14.54666 12.04,7.188 -6.2266,23.52133 -10.4133,29.53866 -2.9453,4.24134 -6.272,10.80667 1.24,12.69467 12.4933,3.14133 43.4933,-34.50533 29.2533,-43.24267 1.0134,-7.052 -4.4933,-9.25466 -9.28,-13.56 -11.0533,-9.92666 -16.64,-13.268 -30.72,-5.10666 l 1.3334,-4 c -1.7494,-5.56134 1.1786,-11.45333 -0.6907,-17.33333 -7.3027,-22.96267 -30.464,-22.88667 -49.976,-21.33334 l 6.6667,-21.33333 C 1260.66,482.97329 1261.856,496.98663 1248,509.33729 l 1.3333,-17.33333 c 24.6334,-12.82267 -0.328,-38.02533 -20,-36.908 -19.4026,1.10133 -13.104,19.64533 -25.3333,27.57467 l -5.3333,-26.66667 c 14.7706,-5.604 16.7653,-17.86 1.3533,-25.72267 -12.7253,-6.49066 -21.2773,-5.344 -34.6867,-2.27733 1.2947,-4.77067 1.3054,-9.82267 2.8107,-14.548 1.6093,-5.04933 9.5787,-29.55467 -6.6133,-20.08133 -5.0067,2.93066 -4.3374,10.63733 -7.5827,15.14266 -11.7053,16.24667 -28.3853,33.80934 -19.2813,54.15334 M 538.66666,444.00396 c 3.472,20.532 35.9973,19.22933 47.808,7.59467 7.5426,-7.43067 7.6733,-19.08267 -3.808,-20.928 18.8466,-25.85067 -23.664,-38.39467 -41.076,-24.26267 -5.692,4.62 -6.5694,13.384 -6.8507,20.26267 -0.248,6.03733 -1.62,13.73733 3.9267,17.33333 m 24,-24 v 2.66667 l -8,1.33333 8,-4 m -49.3334,33.33333 c -11.1813,3.95467 -13.8293,-5.908 -24,-8.51066 -9.96,-2.548 -11.272,5.89333 -18.8053,9.04533 -4.0427,1.68933 -9.1773,0.46533 -12.3707,4.15067 -3.56,4.10933 -0.508,10.31733 2.1934,13.96133 6.2093,8.37733 19.72,36.76133 32.7866,32.04133 4.8467,-1.75066 5.256,-7.88 3.6174,-12.02133 -3.0414,-7.68667 -14.344,-27.004 -22.088,-29.33333 v -5.33334 c 17.3333,4.36667 30.224,28.57734 49.3266,26.39467 16.1987,-1.84933 5.272,-31.304 2.3534,-41.06133 -1.0747,-3.59334 -0.6867,-7.94667 -2.7747,-11.15467 -8.3187,-12.77467 -13.3733,3.80933 -12.7813,11.15467 0.3,3.71066 1.4253,7.14133 2.5426,10.66666 m 66.6667,-22.66666 c -4.728,9.30266 -5.8013,15.124 -17.3333,14.66666 -2.3334,-10.50666 9.188,-12.79866 17.3333,-14.66666 m -128.9053,10.77733 c -6.0947,3.536 0.108,11.11867 5.8186,8.41333 6.2054,-2.93866 -0.4173,-11.54933 -5.8186,-8.41333 m 710.23864,5.22267 v 1.33333 l -6.6666,1.33333 1.3333,-4 5.3333,1.33334 m -722.66664,58.66666 c -15.8187,0.548 -33.0654,-19.64133 -47.9214,-15.93866 -5.9786,1.49066 -6.0946,8.568 -2.3213,12.328 6.3747,6.35066 22.7333,15.548 31.576,16.944 0.8253,5.824 9.8547,6.596 14.5867,8.88933 13.6786,6.62667 24.3693,8.716 24.8893,-10.22267 0.496,-18.13066 -7.9133,-40.156 -13.4453,-57.33333 -1.78,-5.52933 -8.9267,-11.41867 -14.284,-5.82667 -11.14,11.62667 6.0173,38.37334 6.92,51.16 m 838.66664,-25.33333 c 25.2454,4.668 5.9294,-22.71733 0,0 m -77.3333,4 -1.3333,1.33333 1.3333,-1.33333 m 20.8893,8.88933 -0.4453,0.888 0.4453,-0.888 m 28.444,3.11067 -1.3333,1.33333 1.3333,-1.33333 m 47.996,27.95067 c 16.0427,-0.29734 7.9707,27.70666 -5.324,27.37333 -16.4053,-0.41067 -8.0813,-27.12533 5.324,-27.37333 m -946.66264,77.38266 c -9.8667,-1.284 -18.9467,-8.11333 -29.3334,-6.156 -13.4093,2.52667 -31.8666,18.78933 -28.684,34.104 1.3294,6.39733 8.3454,11.63333 12.684,16.052 -7.6093,-0.005 -19.7106,-3.06667 -26.6666,0.088 -7.7774,3.528 -10.8974,13.372 -18.6827,16.45467 -5.8067,2.3 -24.2013,-2.652 -22,8.692 2.6307,13.552 23.4347,15.33066 28.6827,26.76533 l 4,-2.66667 4,4 v 6.66667 c -11.2774,1.12533 -10.3507,-7.904 -20.0067,-8.904 -22.848,-2.36667 -31.6747,26.62133 -25.3267,43.57067 -9.5333,0.33066 -20.5493,-11.72267 -28.7546,-6.24267 -10.7374,7.16933 5.8413,14.616 6.1053,20.93467 0.4813,11.54 -10.82,19.75333 -8.5467,31.92266 2.172,11.61867 30.304,18.50933 39.196,25.38533 -6.2506,2.424 -14.3853,7.30134 -21.3133,6.128 -8.4293,-1.428 -9.572,-11.412 -16.2707,-14.984 -13.604,-7.25466 -15.4386,14.57067 -13.0826,22.18934 -7.6667,0.44666 -23.4147,-3.14667 -28.4027,4.304 -3.4333,5.12666 1.9213,9.28 5.7613,11.84933 7.9907,5.34667 20.8494,12.776 30.6414,11.84667 6.268,8.28133 37.168,20.432 42.7306,4.98133 2.6707,-7.41867 -9.7546,-11.35733 -6.836,-18.068 5.688,-13.07467 20.9507,-7.91733 17.4387,-26.91333 9.1067,-3.13334 11.5973,-10.592 3.9213,-17.26134 -7.3173,-6.35866 -31.5413,-11.21066 -25.7786,-25.23999 4.896,-11.92 25.6853,4.79066 33.8306,3.33333 5.4734,-0.97867 6.7294,-6.252 2.948,-9.93333 -8.596,-8.36934 -21.5386,-13.496 -30.9213,-21.56534 l 12,4 13.3333,-4 c 4.1427,17.13334 19.052,17.76534 31.212,5.08667 9.4467,-9.84933 11.7814,-20.308 7.4547,-33.08667 29.6547,-10.124 3.436,-29.604 -13.3333,-37.33333 5.676,-20.904 21.7426,3.024 33.4533,4.67867 12.6,1.77866 15.14,-11.90934 11.88,-20.67867 30.224,-7.824 -5.2147,-25.90267 -9.3333,-44 l 4,-4 c 6.8293,4.504 33.48,24.16267 40.548,17.67067 4.6266,-4.24934 1.7346,-12.29467 2.1186,-17.67067 21.084,4.076 27.216,-22.128 42.6667,-29.33333 -0.58,-7.81734 -5.9787,-11.36934 -10.4213,-17.352 -15.4134,-20.75867 -48.0134,-30.532 -58.1694,2.68533 -4.1813,13.676 7.5067,19.80533 11.2574,32 m -76,706.66671 -5.1534,37.3334 -11.0453,62.6666 -0.688,45.3333 -2.628,55.98 8.504,49.3534 11.412,57.3333 8.932,22.6667 2.6667,20 7.1106,14.2266 21.112,47.1067 11.3334,17.56 6.444,16.88 27.7773,42.8933 27.112,29.3334 25.3333,26.6666 11.1107,9.3334 22.6667,25.3333 h 5.3333 c 0.8333,5.2667 2.5453,7.7467 8,8 9.1573,13.7733 22.5653,19.0933 35.948,28.04 7.156,4.7733 15.568,11.8 24.052,13.2933 4.98,12.2667 28.5,21.1867 40.02,26.9067 26.9173,13.36 53.2533,25.4267 81.1933,35.76 13.3387,4.9333 25.5,10.4267 40.12,10.6667 5.5987,7.0266 17.1934,8.2 25.3334,10.7066 26.3613,8.1334 55.436,11.8267 82.6613,14.8134 83.62404,9.2133 164.88934,2 246.67204,-16.0667 19.424,-4.2933 41.3853,-8.9067 60,-15.8933 15.4973,-5.8267 36.7147,-19.64 53.3333,-18.8934 5.04,-6.2666 13.216,-10.44 21.3334,-10.6666 14.5813,-22.2 57.4773,-21.44 70.6666,-45.3334 l 4,1.3334 c 6.464,-14.08 29.244,-18.4934 39.548,-29.3334 45.5534,-47.9333 91.1054,-92.16 123.7987,-150.6666 7.8667,-14.0667 15.9067,-27.5467 21.7067,-42.6667 1.9333,-5.04 5.76,-9.3067 5.6133,-14.6667 l 4,-1.3333 5.3333,-21.3333 c 5,-0.6934 6.9334,-11.4 8.6267,-16.08 2.64,-7.28 3.0267,-15.3734 5.5333,-22.5867 3.88,-11.1467 11.5734,-21.16 8.5067,-33.3333 6.52,-4.8934 3.3867,-12.8134 4.9867,-19.7734 4.6,-20.0933 8.8533,-39.32 9.56,-60.24 1.5866,-46.3973 0.9733,-92.956 -8.4134,-138.6733 -3.2666,-15.9146 -6.2666,-33.916 -11.2,-49.3133 -4.0533,-12.6467 -13.8666,-28.0533 -13.6,-41.3334 l -12,-20 c -3.2533,-20.512 -21.2666,-40.284 -30.4266,-58.6667 -17.24,-34.6467 -40.1334,-73.1307 -67.36,-101.2267 -38.236,-39.4533 -85.0894,-71.6707 -130.5947,-101.6453 -24.296,-16.00535 -50.7093,-27.76665 -76.184,-41.66935 -4.5027,-2.4573 -19.4347,-0.8106 -21.3987,-4.128 -2.3946,-4.0453 1.9174,-12.3986 2.6787,-16.66396 2.7827,-15.59467 6.116,-30.63734 5.3253,-46.66667 -1.004,-20.35067 -6.2426,-38.81733 -9.6106,-58.66533 -2.3627,-13.92267 -0.6454,-28.95867 -3.4947,-42.668 -6.568,-31.61867 -20.7187,-63.83067 -37.8413,-90.672 -8.636,-13.53867 -19.2334,-24.11067 -29.9867,-35.99467 -5.548,-6.132 -11.284,-13.35733 -19.7733,-14.66666 0.4506,15.156 15.3546,21.95333 23.0826,33.56533 5.9734,8.972 8.7107,21.46933 18.2507,27.768 -1.6827,9.064 4.8307,17.30133 8.3947,25.33333 5.5813,12.58134 8.4906,26.85734 12.6813,40 14.2013,44.528 31.404,102.472 20.5147,149.33333 -1.7614,7.576 -8.2787,13.212 -11.6507,20 -17.86,35.9587 -46.316,72.66525 -84.6067,89.14665 -8.6413,3.72 -17.9546,-3.3334 -26.8733,0.052 -12.6373,4.796 -10.4093,18.4053 -18.872,26.1746 -14.5627,13.3707 -36.5147,18.408 -55.3613,21.888 -24.5814,4.5374 -56.412,-6.1213 -74.20674,-24.2933 -8.1507,-8.3227 -9.316,-20.7187 -17.6653,-28.596 -8.0067,-7.5573 -21.0774,-3.1253 -31.0014,-5.7773 -11.1506,-2.98 -24.7533,-14.3227 -33.1066,-22.0867 -9.7414,-9.05325 -24.772,-26.70795 -29.78,-39.17465 -4.6507,-11.576 -4.1787,-28.9013 -11.8,-38.66663 5.6626,-8.75867 1.5426,-24.42 2.836,-34.672 1.8866,-14.96667 10.5746,-33.45467 17.844,-46.54267 15.1666,-27.30266 35.8773,-59.26533 58.0386,-81.39999 17.3027,-17.27867 40.08,-30.74667 53.85204,-51.40534 4.5147,-6.772 9.6494,-17.78933 10.744,-25.95466 0.82,-6.12267 -4.3026,-7.29734 -7.3146,-2.692 -5.136,-6.092 -1.9787,-18.95867 -7.09604,-22.428 -6.8187,-4.624 -18.916,-1.16667 -26.2374,-0.13067 -17.3973,2.46267 -29.504,5.23867 -45.3333,14.27733 -12.176,6.952 -25.7613,20.148 -40,21.61467 1.1027,-4.44267 3.8307,-8.63867 3.7693,-13.31333 -0.108,-8.256 -4.5066,-15.39867 -3.1586,-24.01467 0.9973,-6.38533 7.9893,-9.27067 8.828,-14.732 0.508,-3.30933 -3.656,-4.84533 -4.896,-7.42667 -1.5507,-3.224 1.244,-8.328 2.6573,-11.18533 8.9427,-18.09467 31.4507,-21.62267 48.8,-27.81333 30.7227,-10.96267 66.40674,-20.97734 100.00004,-15.89734 13.452,2.03467 28.3213,8.62267 41.3333,12.91067 5.1507,1.69733 10.9894,0.78133 15.88,3.20933 14.0307,6.96934 30.048,18.57734 42.56,28.20267 11.304,8.69733 18.6387,18.31067 33.56,19.39333 -1.9226,-9.65733 -9.1906,-13.852 -16,-20.124 -17.212,-15.85466 -39.4266,-33.19333 -64,-33.20933 -1.872,-5.94933 -6.952,-7.37867 -12,-10.496 -17.26,-10.65467 -33.9133,-8.72 -53.3333,-11.044 -33.54004,-4.01333 -61.31874,4.79467 -92.00004,15.27067 -41.1253,14.04133 -78.7493,31.75066 -114.66,57.52133 -15.3,10.97867 -29.6987,27.03067 -43.2387,40.348 -62.056,61.03067 -105.3733,135.50133 -141.8333,213.73333 -6.144,13.18267 -15.704,25.404 -21.4093,38.71867 -4.1294,9.63596 -5.0574,21.10666 -9.5054,30.61466 -3.792,8.1093 -11.4026,13.8947 -15.3626,21.8853 -2.2734,4.5894 -0.732,9.83595 -3.056,14.26935 -27.6454,52.7106 -56.472,105.2493 -85.0547,157.56 -15.228,27.8693 -32.568,56.6333 -44.1493,86.2853 -6.7867,17.3747 -9.6694,42.788 -23.064,56.0001 m 102.6666,-725.33338 4,2.66667 -5.3333,6.66667 1.3333,-9.33334 m 1061.33344,28 1.3333,1.33334 -1.3333,-1.33334 m -453.3334,32 c -15.612,5.05867 3.0254,13.40934 0,0 m 460,94.66667 c -4.1066,17.1 -14.4666,37.052 2.9734,52.076 14.7733,12.72 41.8266,-7.48667 54.36,-15.35067 5.8133,-3.64666 14.0533,-5.32 16.0266,-12.77733 3.7734,-14.27333 -12.08,-6.79333 -18.84,-10.164 -5.36,-2.672 -5.8666,-9.51333 -10.6,-13.03333 -7.88,-5.85334 -21.0933,-7.00934 -30.5866,-7.41734 6.88,-9.58933 12.8266,-19.528 9.4133,-32 -6.5733,-24.02933 -37.12,-25.072 -53.0667,-10.14133 -23.04,21.568 3.4267,55.212 30.32,48.808 M 862.6667,1180.0039 c -5.9134,-10.776 -28.09074,-11.8707 -32.00004,1.3334 -4.0187,0.7266 -13.2027,4.052 -16.872,2.68 -5.524,-2.064 -9.1347,-12.4281 -16.2094,-9.0294 -8.0586,3.8707 -2.4186,10.876 -4.0013,16.824 -1.036,3.892 -7.048,6.4347 -9.584,9.5254 -16.7853,-3.4627 -21.652,0.5946 -16,17.3333 l -16,8 -17.3333,-6.6667 c -0.01,14.528 -7.108,21.6827 -1.3334,36 l -24,-4 c 0.4827,6.3254 8.48,9.3254 8.304,14.0947 -0.3106,8.3613 -17.2693,1.2453 -10.9706,16.572 l 8,-1.3333 c -3.9294,5.4226 -39.9894,-6.7587 -26.732,8.328 1.3333,1.5186 2.8026,2.9533 4.2146,4.4 2.076,2.1254 4.2347,4.0414 6.5174,5.9387 -4.6,10.6174 -2.728,13.1734 0,24 -11.2867,-0.093 -34.6334,-12.256 -41.3334,-1.3333 8.76,2.492 34.6667,11.556 37.3334,20 -4.8267,4.7813 -0.8974,10.6173 -4.8227,15.232 -7.1147,8.364 -25.584,2.6547 -35.1773,4.768 v 2.6667 l 38.6666,12 c -1.6306,3.9626 -3.9693,11.8253 -7.4506,14.4266 -7.9227,5.9213 -27.0027,-2.2253 -31.772,-9.2667 -4.564,-6.7373 -3.9027,-18.0973 -9.2014,-23.4026 -6.908,-6.9187 -17.8253,-1.064 -25.8626,-8.8253 -6.9214,-6.684 -15.16,-23.0054 -27.0467,-18.7894 -22.5347,7.9947 -9.9093,27.4467 -7.928,43.1907 2.5253,20.0666 3.4813,45.2666 9.8493,64.328 2.368,7.0893 9.156,12.7893 10.9894,19.7906 3.94,15.048 0.9453,27.676 13.756,39.8814 -1.7987,6.7146 1.8973,10.8 2.5173,17.3333 2.3907,25.1867 12.7173,57.88 33.4827,74.6667 -1.7067,16.1066 9.5346,26.9066 13.3333,41.3333 -15.9067,1.6933 -30.8533,-1.28 -46.6667,-1.3333 -6,-0.013 -14.2493,-0.2 -16.7053,6.72 -2.5347,7.1466 3.9,16.24 6.176,22.6 2.096,5.8533 3.3587,10.08 7.8627,14.68 v 1.3333 c -13.136,14.5733 -47.852,-1.2267 -58.6787,17.4533 -4.9853,8.6134 11.8227,13.44 16.78,16.28 6.408,3.6667 13.6,4.4667 20.4453,6.8934 14.3147,5.0533 32.5707,15.64 48.12,14.04 v 1.3333 l -4,13.3333 c -5.212,0.6934 -7.2546,5.2667 -10.168,9.3334 -5.732,8 -23.66,35.2133 -10.9133,42.6266 6.4067,3.7334 17.9107,1.2934 25.0827,1.4134 26.2453,0.4266 52.088,-3.4667 77.332,-10.52 7.688,-2.1467 18.972,-10.8134 26.6666,-9.8 10.7187,1.3866 21.4827,16.1466 30.6707,21.7066 17.3653,10.52 36.3947,17.9467 54.6627,26.6267 10.92534,5.2 21.17864,12.4667 33.33334,14.6133 1.4667,7.8934 5.9147,17.76 6.0933,25.3334 0.1907,8.0533 -3.8093,22.2266 1.3774,29.1333 4.2093,5.6 15.3746,4.72 19.7786,-0.28 6.0534,-6.8667 8.3014,-24.24 7.4174,-32.8533 l 4,-1.3334 H 908 l 4,10.6667 c 12.1893,0.96 23.8107,-1.8667 35.6187,-1.0133 8.6066,0.6266 16.9493,3.9333 25.7146,4.7866 13.5054,1.3067 45.6174,-6.9866 23.86,-24.3466 -7.3626,-5.8667 -15.4266,-3.3067 -23.86,-4.04 -17.664,-1.5467 -55.704,-13.2534 -64,9.9466 l -2.6666,-1.3333 -1.3334,4 1.3334,-9.3333 c -4.412,-4.3734 3.1266,-6.8267 6.668,-8.4534 9.296,-4.28 20.3586,-11.08 30.6653,-11.5466 4.6853,-8.12 18.2973,-8.4267 26.6667,-8 2.008,8.8533 7.512,13.8 16,16.8666 7.048,2.5467 12.9013,-3.36 20,-3.1733 16.3813,0.4133 54.1253,16.7867 63.9106,-4.36 3.22,-6.96 -3.156,-15.4933 -9.2453,-18.4133 -9.064,-4.3334 -26.668,-1.28 -37.332,-3.6 -6.084,-1.3334 -18.4413,-4.04 -13.7707,-12.6 16.912,-30.9867 45.5707,-9.6267 69.7707,-2.7067 11.124,3.1733 23.3387,1.5067 34.6467,3.2533 11.6306,1.8 38.28,4.7467 41.348,-11.2666 3.332,-17.4 -20.924,-30.52 -21.492,-46.6 -0.3587,-10.1067 23.6973,-12.7067 30.8306,-12.0667 3.444,-4.88 10.276,-4.72 15.7734,-6.2533 11.4306,-3.1867 44.0026,-11.1734 47.04,-24.4134 2.5466,-11.1066 -19.9894,-13.2533 -27.04,-14.2133 -12.788,-1.7333 -21.2867,-4.88 -34.46,-3.5333 -3.1867,0.32 -7.2987,0.2266 -9.224,-2.8267 -2.964,-4.72 0.856,-14.2 1.244,-19.4267 2.2813,-2.4533 3.7786,-4.72 4.7546,-8 7.3254,-24.6533 -25.836,-13.8 -38.088,-17.3333 l 9.3334,-29.3333 H 1136 c 3.5747,4.9466 7.0333,9.3333 13.3347,10.64 8.0226,1.68 15.3386,-2.56 23.2306,-2.32 15.5267,0.48 56.3854,17.96 63.8427,-6.9867 2.2627,-7.5733 -4.708,-16.9067 -12.4093,-17.0533 -5.96,-0.1067 -11.2054,3.64 -17.2787,3.1466 -18.3053,-1.4666 -34.5693,-10.1733 -53.388,-5.7466 -5.4533,1.2933 -9.6227,5.4133 -14.6653,7.6533 -4.9054,-24.4667 -4.2094,-49 -8.4387,-73.3333 -4.0187,-23.124 -14.844,-48.884 -23.0267,-70.6147 -4.048,-10.752 -14.8866,-19.256 -19.336,-30.492 -2.252,-5.6853 3.676,-12.5747 0.5187,-16.9813 -5.8373,-8.148 -22.74,-10.008 -22.656,-24.54 0.096,-16.832 33.4293,-2.7947 38.668,-9.764 8.0133,-10.66 -5.0053,-25.472 -7.516,-35.66 -2.136,-8.6627 0.2467,-19.872 -1.3827,-29.2813 -3.8813,-22.4081 -14.4586,-27.7268 -30.0973,-41.3188 -4.7413,-4.1213 -9.6227,-11.7587 -15.012,-14.592 -6.5493,-3.4427 -23.0493,2.6973 -31.7213,1.116 -3.1387,-0.5733 -8.6507,0.069 -9.46,-4.176 -0.828,-4.3467 4.0613,-13.9093 5.46,-18.3627 -10.2654,-2.1173 -25.5067,14.24 -34.6667,4 l -2.6667,1.3334 -1.3333,-1.3334 8,-21.3333 c -7.32,0.1773 -10.788,4.5347 -17.3333,6.0973 -10.088,2.4094 -11.6014,-3.368 -17.3334,8.5694 l 5.3334,4 h -9.3334 c -2.6,-13.612 8.0267,-27.5667 6.9574,-41.2547 -0.932,-11.9254 -12.1387,4.5333 -12.2907,10.588 l -4,-2.6667 c -7.0093,0.136 -11.7227,-2.776 -14.6667,5.3334 l -5.3333,-2.6667 -0.6973,-26.6667 -2.34,-8.492 -8.9627,12.492 c -13.1973,-6.4533 -19.472,-49.644 -9.7293,-61.696 5.9866,-7.404 18.472,-9.284 27.0626,-11.7573 13.3574,-3.8454 27.1934,-10.184 40,-15.6387 35.9227,-15.2973 67.648,-38.9453 97.2147,-64 13.0013,-11.0173 25.8587,-40.45995 45.4507,-40.91595 6.0626,-0.1413 9.9306,4.872 14.72,7.7693 11.8306,7.1574 23.816,11.676 34.6133,20.47335 33.4053,27.2173 69.3507,51.696 97.0093,85.54 20.7654,25.4093 42.0854,51.7546 59.9987,79.2373 10.584,16.2387 18.196,35.4254 27.4333,52.3014 5.6134,10.2413 13.9334,19.2893 19.1334,30.02 6.4,13.1733 9.56,28.78 13.7866,42.6667 8.7867,28.8667 18.8134,59.9854 19.6267,90.6667 0.2267,8.4293 -2.4133,16.7906 -2.32,25.3333 0.5467,46.7747 1.1867,91.5707 -2.8933,138.6667 -1.5334,17.6533 -10.4267,34.5333 -10.44,52 h -4 c -1.8934,20.72 -12.2134,42.2933 -20.0134,61.3333 -3.1466,7.6667 -11.5333,12.48 -10.6533,21.3333 -3.0267,2.7067 -6.5333,8.68 -10.772,9.2267 -3.8907,0.52 -8.08,-3.12 -11.9467,-3.7733 -15.544,-2.64 -55.456,-12.5734 -65.192,5.6133 -3.8493,7.2 1.9774,16.12 9.24,17.32 12.5987,2.08 24.252,-0.24 37.3374,2.92 4.2546,1.0267 12.172,1.2933 12.5386,7.2533 0.6627,10.7867 -20.4853,29.9334 -26.8586,37.4267 -23.896,28.04 -45.24,55.56 -75.0334,77.6667 -10.7253,7.9733 -22.032,20.36 -35.98,21.0133 v 4 c -9.0973,2.5467 -17.416,11.0267 -25.3333,16.1867 -12.9787,8.4533 -28.5067,16.5333 -42.668,22.8133 -14.3907,6.3867 -29.4773,8.8933 -43.9987,14.1733 -25.4866,9.2534 -51.608,20.2534 -78.6666,24.5067 -8.9054,1.4 -17.944,-0.7067 -26.6667,0.4533 -40.352,5.3734 -81.5867,15.76 -122.68674,5.9867 -11.008,-2.6267 -22.6093,-2.0933 -33.3133,-4.7467 -10.992,-2.7333 -22.1893,-8.1733 -33.3333,-10 -14.0027,-2.3066 -30.6654,-2.6666 -44,-7.2933 -11.6574,-4.04 -32.74,-16 -42.6667,-4.7467 l -10.6667,-1.3333 c -1.5973,-14.3067 -14.08,-12.8133 -24,-18.4533 -20.3333,-11.56 -41.8773,-19.08 -61.3533,-32.64 -6.1173,-4.2534 -14.2747,-6.6534 -18.6467,-12.9067 -5.2186,0 -7.4906,-1.8 -9.3333,-6.6667 l -2.6667,2.6667 c -11.5,-13.1467 -28.032,-22.9467 -41.8266,-33.6 -14.82,-11.44 -31.0507,-27.0533 -44.4934,-40.2933 -6.2533,-6.1734 -24.532,-22.0934 -20.3466,-31.44 l -5.3334,-1.3334 1.3334,-4 c -10.6267,-3.12 -15.8,-18.1733 -21.8894,-26.6666 -21.2333,-29.6267 -34.3773,-66.28 -45.4426,-101.3334 -35.48,-112.404 -27.7574,-236.9239 16.248,-346.6667 3.272,-8.16 9.5133,-14.9467 13.576,-22.6867 10.26,-19.5466 19.32,-40.168 29.4386,-59.98 4.5187,-8.8467 14.228,-18.3187 16.0694,-28 l 13.372,-29.2147 18.188,-34.224 16.44,-29.8946 c 13.0413,-10.884 16.948,-33.372 25.7133,-47.7387 13.1813,-21.60125 21.916,-44.17065 33.4147,-66.70125 5.3773,-10.5347 13.3666,-19.42136 19.244,-29.5587 8.176,-14.104 14.3493,-30.62533 22.5493,-45.33466 8.7147,-15.62934 19.5733,-27.136 29.9107,-41.33334 5.2453,-7.204 10.4813,-18.80133 18.5013,-22.66666 l -1.3333,-2.66667 c 14.2026,-11.91333 24.2,-29.704 36.8066,-43.31333 24.4414,-26.38667 52.2067,-49.984 83.192,-67.928 9.8214,-5.688 50.8587,-31.288 53.6894,-3.652 2.9893,29.188 -35.212,56.60933 -51.42,76.36533 -35.0454,42.71333 -69.3467,91.504 -77.9827,146.528 -3.9133,24.92933 8.368,44.98403 21.6733,64.11863 25.3747,36.49465 58.28,69.55195 98.0414,91.24795 13.8013,7.5294 27.45204,15.2414 41.33334,22.7014 6.4853,3.4853 15.7267,6.5146 20.9053,11.8173 3.9174,4.012 2.3534,9.1773 2.216,14.1667 -0.3573,13.024 -1.5986,24.9 -3.448,37.4 -0.6653,4.492 3.0454,8.5253 1.9614,12.988 -1.2054,4.96 -6.7294,8.84 -10.968,10.8933 m -666.66674,-485.33328 1.3333,1.33334 -1.3333,-1.33334 m 484,28 6.6667,6.66667 c -3.7907,-1.25467 -7.3294,-2.21467 -6.6667,-6.66667 m 11.556,3.556 -0.4453,0.888 0.4453,-0.888 m -427.556,13.77734 -1.3333,1.33333 1.3333,-1.33333 m 1201.33334,10.08666 c 18.1734,-5.892 18.3467,17.8 3.9467,22.816 -15.04,5.24134 -17.4533,-18.43733 -3.9467,-22.816 m 18.7867,40.452 c -24.6533,7.47333 -26.36,42.95733 -5.44,55.18933 7.4933,4.38 23.9733,-0.33333 31.9733,-2.69333 10.1467,-2.996 18.5067,-24.152 14.3734,-33.70133 -6.64,-15.356 -24.8,-23.68 -40.9067,-18.79467 m -1244.12004,20.128 -1.3333,1.33333 1.3333,-1.33333 m 1282.66674,35.25733 c -10.8267,1.81334 -22.9067,5.67067 -31.9334,11.996 -4.0533,2.84267 -8.4666,9.06267 -2.4133,12.69067 7.32,4.37733 20.4267,-4.97467 29.0133,-3.62 6.7734,1.068 11.5334,10.196 18.5467,8.86667 12.3867,-2.348 8.6133,-19.22934 3.1333,-26.06534 -3.9466,-4.92666 -10.68,-4.81866 -16.3466,-3.868 M 183.99996,949.33725 v 1.3334 c -9.012,0.4173 -22.5907,-1.728 -30.6467,1.8226 -16.4826,7.2654 -24.8548,32.4774 -11.6186,45.9987 9.836,10.04925 25.92,5.58795 36.932,17.51195 h 1.3333 c 19.156,-7.952 21.26,-17.49325 22.9347,-36.95195 0.4333,-5.04 3.4933,-9.384 1.7173,-14.6133 -1.928,-5.6787 -8.8307,-9.4134 -12.652,-13.768 2.6453,0 5.3667,0.1573 8.0053,-0.079 6.6734,-0.5947 13.6347,-7.57603 7.4107,-13.67603 -7.604,-7.452 -19.636,-4.61466 -26.9373,-11.116 -3.4734,-3.092 -3.3987,-6.86133 -3.1454,-11.12933 9.4307,0 21.5654,2.944 30.66,0.708 5.8027,-1.42667 9.9387,-7.704 5.296,-12.716 -9.4306,-10.18 -25.2893,-5.15867 -31.956,-19.992 15.9174,-3.98267 27.8,10.39733 44,1.33333 -0.4133,-3.56533 0.011,-8.22 -2.3706,-11.15466 -6.8174,-8.40267 -38.3267,-14.304 -48.1574,-10.13334 -11.3666,4.82267 -11.5853,18.21734 -15.0493,27.95467 -3.5987,10.116 -8.8453,15.27067 -9.108,26.66667 -0.108,4.732 -2.396,11.46266 0.089,15.80533 4.6413,8.108 24.64,13.43067 33.2627,16.19466 M 1541.333,937.33696 c 6.2667,-4.85334 12.3867,-5.32534 16.36,-13.35334 5.0134,-10.116 0.64,-31.48533 -9.8266,-37.276 -8.0534,-4.452 -31.2534,-2.83066 -39.8667,-0.0453 -21.8933,7.07733 -14.4667,25.036 -7.7333,40.008 2.28,5.04667 3.3733,11.568 8.5333,14.68267 8.92,5.39333 23.0267,-3.67734 32.5333,-4.016 M 813.33436,895.26795 c -9.5334,1.55867 -17.1534,12.44134 -13.4814,22.016 4.3294,11.284 20.9854,9.272 24.4147,18.864 6.1893,17.3133 -0.1027,39.1307 6.5707,55.7373 6.17334,15.35995 21.46404,22.79595 34.49464,30.90395 6.452,4.016 15.932,13.4414 24.0014,12.7707 6.52,-0.5427 9.4693,-6.8787 14.892,-9.4907 8.248,-3.9706 16.736,-4.8586 23.628,-11.6453 18.9533,-18.66265 13.072,-47.40395 23.6826,-69.00928 4.8414,-9.86 19.1854,-4.10267 24.5507,-16.13067 5.8147,-13.03466 -2.052,-26.18133 -16.088,-27.71333 -22.668,-2.47333 -22.7133,18.164 -23.68,34.43333 -1.84,30.9587 -7.068,61.3067 -38.9867,74.88665 -6.7213,2.86 -16.5853,6.308 -24,4.3146 -34.5106,-9.2786 -32.6893,-59.02395 -30.228,-87.08258 1.724,-19.64133 -6.38934,-36.68 -29.77064,-32.85467 m 719.99864,100.736 c -13.1333,14.42925 -14.64,45.73465 4,57.13595 6.6267,4.0507 14.0134,2.36 21.3334,2.864 6.3333,-5.9773 16.1466,-8.6667 21.04,-16.2453 12.6533,-19.6347 -2.4,-42.29865 -22.3734,-46.42135 v -1.3333 c 9.88,-2.044 24.7867,-8.1227 32.9067,-13.572 4.1067,-2.7547 3.2667,-8.8293 -1.1067,-10.7707 -6.7866,-3.0186 -12.1333,3.064 -18.4666,4.02 -11.88,1.792 -26.56,-0.428 -38.6667,-1.0106 6.7467,-14.0107 19.5067,-5.288 30.6667,-5.988 5.88,-0.368 17.6533,-12.668 19.4533,-18.0107 3.6267,-10.77066 -21.6133,-10.47866 -27.4533,-9.884 -5.2,0.52934 -9.9867,4.48534 -14.6667,6.61067 -8.0133,3.63467 -22.5733,2.40267 -27.8133,10.23863 -10.9734,16.3827 3.4533,41.56 21.1466,42.3667 m -1337.33334,-40 -1.3333,1.3333 1.3333,-1.3333 m 1336.00004,16 -1.3333,1.3333 1.3333,-1.3333 M 181.33296,1072.0039 c -11.4573,0.4067 -18.8453,-6.8733 -21.3333,-17.3333 9.34,-5.816 24.7347,-12.9414 31.5427,-21.7334 6.8546,-8.8533 2.224,-17.6826 -8.876,-15.4013 -4.1387,0.8507 -7.8787,2.8707 -12,3.8013 -7.4987,13.5134 -16.7734,-3.18 -25.3854,-6.1653 -7.5346,-2.612 -19.7207,-0.6573 -26.594,3.064 -9.3781,5.076 -9.9131,15.0987 -11.7129,24.4347 -1.8644,9.672 -7.448295,19.748 -1.4424,29.308 8.9017,14.172 43.4853,15.2546 58.468,15.032 5.8493,-0.087 11.5507,2.116 17.188,-0.5374 7.6307,-3.5906 3.9467,-9.5426 0.1453,-14.4693 m 1369.33374,-58.0933 c 15.4133,-4.052 23.12,16.272 7.9733,21.3413 -17.3867,5.824 -26.8,-16.3933 -7.9733,-21.3413 m -1414.66674,18.0933 c 5.2627,11.0813 9.1533,26.1093 -7.9999,26.6667 -1.8591,-10.0494 -4.4104,-24.392 7.9999,-26.6667 m 798.66674,8.6053 c -7.564,1.0334 -15.572,8.584 -7.4214,15.536 4.0307,3.4387 13.04,4.188 18.088,3.4 21.596,-3.372 3.0547,-20.808 -10.6666,-18.936 m 612,17.3147 c -5.5067,0.884 -26.5467,11.0333 -13.1334,17.0907 6.12,2.764 43.0934,-4.184 37.7334,11.5173 -4.4667,13.1307 -27.8134,3.0067 -35.28,12.8187 -5.5334,7.2586 0.8933,12.78 8.0133,13.5333 9.9467,1.0507 36.5467,-0.9093 43.0133,-9.3333 4.1867,-5.4574 3.64,-15.696 3.4934,-22.2134 -0.1334,-6.4573 1.4266,-15.5773 -4.4,-20.1893 -7.5067,-5.948 -30.3734,-4.68 -39.44,-3.224 m -712.00004,95.4133 c -2.692,11.7907 8.59734,10.2734 2.66664,0 h -2.66664 m 132.00004,62.6667 -1.3334,1.3334 1.3334,-1.3334 m -2.6667,4 -1.3333,1.3334 1.3333,-1.3334 m -2.6667,4 -1.3333,4 -4,-4 h 5.3333 m 17.3334,6.6667 -1.3334,1.3333 1.3334,-1.3333 m 46.6666,206.6667 -8,8 H 1012 c -10.1933,-13.9946 -28.1733,-23.2226 -42.44,-32.444 -45.128,-29.168 -96.5747,-48.5306 -151.27474,-38.0986 -34.6493,6.608 -65.684,30.1186 -99.6186,30.5426 l -4.5854,-24 0.5854,-19.9999 c 7.9,0 10.912,-25.648 14,-32 13.3786,-27.5214 36.712,-55.4148 64.6666,-71.3335 40.6907,-23.1706 96.72144,-24.5826 140.00004,-9.556 6.9054,2.3987 10.1307,7.6387 16,10.8894 11.4454,6.3386 25.036,13.0466 31.3334,26 2.4093,4.9573 -0.2907,12.0894 0,17.3334 0.868,15.6333 -3.6014,35.7133 3.3333,50.6667 12.784,27.5653 38.1973,54.2146 41.3333,83.9999 m 32,-141.3333 c -8.8693,1.516 -15.94,-4.2014 -25.2813,-0.01 -18.4187,8.2693 -19.5867,37.096 -6.7187,50.6733 l -1.3333,4 c 8.544,5.312 18.064,24.904 20,34.6666 l 2.6667,-1.3333 34.6866,52 13.3134,26.6667 c 0.964,12.8866 11.5093,24.0253 15.388,36 8.9173,27.5333 13.9413,61.8 11.6333,90.6666 -0.632,7.9067 -4.864,14.92 -5.9253,22.6667 -1.2534,9.1467 -3.788,18.1867 -7.4027,26.6667 -21.4787,50.4133 -83.1213,48.1333 -128.36,55.2533 -27.372,4.3067 -58.7587,13.4267 -86.6667,11.3467 -10.9453,-0.8267 -12.648,-12.6134 -24,-13.2667 L 864,1686.6707 c 3.7147,-6.76 15.8427,-5.8 16.712,-14.6667 0.64,-6.5333 -7.24,-9.0667 -10.1773,-13.7333 -3.0974,-4.92 0.7906,-10.48 -3.86,-15 -4.0094,-3.8934 -11.1094,-3.9734 -16.008,-6.4667 -4.832,-2.4667 -10.6627,-9.3733 -16.04674,-9.9067 -12.8133,-1.2533 -5.364,15.88 -3.9533,21.1067 h 1.3333 v -2.6667 h 1.3333 l 1.3334,6.6667 -4,1.3333 -2.6667,-1.3333 -14.6667,-9.3333 c -12.484,-15.7334 -9.4626,-16.2667 -5.9986,-34.6667 0.9653,-5.1333 -1.2747,-9.76 3.5346,-13.4933 8.744,-6.8 36.21344,-13.8134 32.98404,-29.1734 -2.3053,-10.9733 -14.00534,-18.5866 -19.40404,-28 -3.1893,-5.56 -4.0466,-12.2133 -7.2426,-17.56 -3.7747,-6.3066 -10.7414,-9.7293 -14.6827,-15.8253 -2.8907,-4.4733 -2.1653,-9.8733 -4.3627,-14.6147 -8.072,-17.4173 -18.0066,-30.4826 -22.5346,-49.3333 -2.0147,-8.3893 -15.828,-22.94 -11.7627,-31.2413 2.9867,-6.1 16.932,-8.1587 22.8027,-10.096 24.216,-7.9934 45.0733,-10.8987 70.66664,-7.2334 16.804,2.4054 32.868,2.4 49.3334,7.508 40.0693,12.4294 81.7746,42.584 111.4146,71.8374 13.8307,13.6506 30.168,30.6266 41.2987,46.572 7.3427,10.5333 11.0547,26.32 24.64,31.2133 9.6787,3.48 14.116,-5.4 13.6453,-13.8933 -0.6706,-12.1067 -8.556,-37.524 -17.6653,-45.3334 -1.2747,-16.8546 -20.1,-36.6133 -28.7987,-50.6666 -6.5386,-10.5627 -9.372,-22.624 -15.8813,-33.3134 -16.3213,-26.8039 -35.6693,-49.1866 -40.2533,-81.3533 -2.2587,-15.8533 4.6,-40.9254 17.6386,-51.3761 11.636,-9.3253 35.324,-10.7373 43.8374,3.3827 3.5533,5.8933 -0.5414,13.3853 0.7906,19.9934 m -390.66664,-22.6667 c 5.124,17.0293 21.0346,-3.6574 0,0 m 57.3333,-1.3334 4,9.3334 h -5.3333 l 1.3333,-9.3334 m -2.6667,9.3334 -6.6666,6.6666 6.6666,-6.6666 m -92,177.3334 1.3334,5.3333 h -1.3334 c -2.708,-5.0187 -8.0266,-7.4467 -11.488,-12.02 -6.5266,-8.6267 -9.3,-22.8747 -8.512,-33.3133 l 13.3334,2.6666 c 3.496,7.5307 14.1813,14.044 21.7133,17.244 4.4787,1.9027 8.5013,-1.9586 7.4307,-6.5306 -5.4134,-23.1067 -35.1134,-32.1067 -38.4774,-57.38 16.8774,1.8933 25.5894,20.6093 40.0014,26.768 17.784,7.5986 41.66,17.8173 60.9506,20.0666 11.004,1.2827 26.4587,-5.5253 36.3187,0.9907 8.0747,5.336 20.6613,40.108 10.532,47.1373 -9.7147,6.7427 -37.8613,0.6227 -48.7547,-2.2666 -5.044,-1.3387 -10.056,0.1186 -15.048,-1.892 -6.2266,-2.5094 -11.5546,-8.1294 -18.6666,-8.1054 -5.8974,0.019 -10.0414,5.4214 -16,4.924 -14.6907,-1.228 -17.5707,-9.228 -33.3334,-3.6226 m 44,32 c 4.5787,6.8893 14.1747,11.244 21.2334,15.4906 16.124,9.696 38.5413,25.5494 57.4333,28.2694 14.728,2.12 45.5147,-2.6 56.4827,8.8666 2.3066,2.4134 3.388,5.6 4.6946,8.5867 2.2747,5.2133 6.1254,11.36 4.2734,17.3333 -3.2307,10.4134 -19.5827,13.0267 -24.74,22.7867 -3.1307,5.9333 -1.132,11.4667 -3.0854,17.3333 -1.6213,4.8667 -6.1213,8 -6.708,13.3334 -0.6426,5.84 1.664,11.3866 0.444,17.3333 -1.5786,7.68 -6.984,13.1867 -7.648,21.3333 -1.368,16.7734 18.1267,22.8 17.62,37.3334 -38.956,-16.32 -87.152,-34.68 -105.3333,-77.3334 -7.6707,-1.3733 -10.2787,-8.84 -10.6667,-16 9.284,1.1734 14.0787,7.7334 21.148,13.28 11.8707,9.3067 23.936,19.4534 36.184,28.2534 4.34,3.12 12.2174,13.1466 17.896,12.5866 5.484,-0.5333 8.2454,-6.96 5.9174,-11.4533 -4.9467,-9.5467 -20.8427,-21 -21.864,-32 -0.5227,-5.6267 19.6853,-11.7733 10.008,-18.0667 -9.776,-6.36 -31.1907,-0.32 -42.6227,-1.5466 -14.2027,-1.52 -21.0213,-11.5334 -32.0533,-18.5467 -5.888,-3.7467 -12.744,-5.4267 -17.0894,-11.3467 -3.36,-4.5733 -3.5746,-10.6666 -5.724,-15.8266 -2.612,-6.28 -20.736,-38.5734 -3.7213,-40.4614 18.9587,-2.108 31.28,20.9014 50.588,21.7947 2.8347,7.3067 24.9053,26.04 32.0587,14.28 7.2613,-11.9467 -24.748,-14.9733 -30.7254,-14.28 l -4,-18.6667 -2.6666,1.3334 -4,-10.6667 c -7.88,0.6893 -12.1014,-4.0467 -18.8387,-6.8533 -9.8173,-4.088 -28.272,-1.2587 -30.4947,-14.48 -7.168,-1.3187 -12.6133,-17.412 -2.7813,-15.164 13.36,3.056 23.732,23.0186 38.7813,23.164 M 840.0573,1470.472 c -12.77604,1.096 -3.93864,17.8867 -0.5093,22.8653 5.5733,8.0934 1.0467,18.0014 5.1547,26.32 4.636,9.3867 19.772,15.12 21.8013,25.44 1.1547,5.8667 -8.4093,10.56 -9.9253,16.24 -1.5907,5.96 0.6933,11.7734 7.428,11.8534 7.0306,0.08 11.5186,-5.6134 17.3266,-8.6 10.128,-5.2 53.556,-12.12 39.0627,-31 -5.1587,-6.72 -11.9987,-4.36 -19.0627,-6.16 -8.0106,-2.04 -19.512,-8.12 -25.0026,-14.3334 -6.4307,-7.2973 4.2706,-11.8466 1.34,-19.764 -4.0494,-10.9386 -17.2614,-9.664 -25.444,-15.648 -3.668,-2.6826 -7.0654,-7.6506 -12.1694,-7.2133 M 1072,1509.3373 c -11.3813,-3.6346 -24.888,-18.048 -24,-30.6666 11.3347,4.64 23.0827,18.1533 24,30.6666 m -101.26,24.8934 c -13.1507,3.9466 -0.576,42.7066 13.2347,39.3866 3.1026,-0.7466 5.78,-3.6933 5.864,-6.9466 0.1213,-4.76 -4.7787,-7.84 -6.724,-11.7334 -3.1774,-6.3733 0.212,-24.48 -12.3747,-20.7066 m -520.07334,56.44 c -0.061,-17.3334 -14.7627,-14.7334 -28,-17.0534 -7.2867,-1.28 -10.9014,-5.4666 -18.6667,-2.5066 -5.8173,2.2133 -22.7213,12.92 -10.4693,19.2 4.2413,2.1733 11.1346,0.64 15.8026,0.8533 5.7987,0.2533 11.528,1.36 17.3334,1.6667 8.5053,0.44 15.7773,-0.013 24,-2.16 m 958.66664,-15.56 c 1.0267,0 0.2134,0.6666 -0.44,0.4533 l 0.44,-0.4533 m -842.60804,11.2133 c -6.0973,2.4933 -9.472,12.0933 -2.528,15.7467 5.628,2.96 12.508,0.32 18.4694,0.8266 12.4493,1.04 21.5933,10.0667 34.4146,2.2267 8.4974,-5.2 3.5227,-12.12 -3.7533,-14.3467 -12.2893,-3.76 -34.032,-9.5733 -46.6027,-4.4533 m -62.4986,8.12 c -6.1894,0.24 -17.308,-0.1067 -22.588,3.1333 -4.4947,2.76 -6.0534,12.16 -1.2,15.3334 5.3346,3.4933 14.756,0.3333 20.7746,0.3466 9.18,0 17.1787,4.68 26.7854,3.96 6.96,-0.52 19.2306,-8.7866 10.0893,-15.96 -5.664,-4.4533 -26.6173,-7.1066 -33.8613,-6.8133 M 1268,1602.124 c -11.152,2.3067 -27.856,22.2 -10.5933,29.08 7.5506,3 17.488,-0.1467 25.26,-0.48 17.196,-0.7467 39.048,6.4533 55.6133,0.6 9.16,-3.24 9.16,-16.6133 0.3333,-20.0933 -7.4906,-2.9334 -15.0306,-0.4134 -22.6133,-1.8 -15.272,-2.7867 -32.024,-10.6 -48,-7.3067 m -861.33334,39.2133 33.3333,2.6667 v 2.6667 c 5.5133,0.3466 10.4213,3.4533 15.9987,3.1733 8.1773,-0.4133 23.1906,-10.2267 13.8626,-19.7067 -3.5373,-3.5866 -11.8546,-3.12 -16.528,-4.4933 -18.704,-5.5067 -43.4053,-8.4 -46.6666,15.6933 m -26.6667,-13.3333 1.3333,1.3333 -1.3333,-1.3333 m 127.88,2.2133 c -6.9333,1.7334 -24.7933,13.6534 -11.7027,20.24 6.864,3.4534 15.2934,-2.3466 22.316,-2.48 15.9067,-0.3066 33.3027,11.4 49.5014,5.52 5.064,-1.84 14.1173,-11.0133 6.248,-15.4666 -5.54,-3.1467 -13.4707,0.1333 -19.576,-0.9734 -16.0467,-2.92 -29.712,-11.12 -46.7867,-6.84 m 677.45474,13.7467 c -12.352,2.44 -14.8,20.7067 -2.648,25.3333 8.5133,3.24 17.9266,-0.16 26.6466,-0.1466 17.3694,0.053 36.424,8.6933 53.328,3.1866 11.4827,-3.7466 17.2374,-19.0533 2.552,-23.7733 -9.552,-3.08 -20.66,-1.8933 -30.5466,-2.92 -16.0907,-1.68 -33.156,-4.8533 -49.332,-1.68 m -526.66804,6.7067 h 1.3333 c 18.8427,8.2933 41.664,9.0266 52,29.3333 l -4,4 -49.3333,-2.6667 -22.6667,-20 v -9.3333 l -2.6667,4 c -1.7946,-7.9867 19.6307,-2.4133 25.3334,-5.3333 m 476.00004,4 c -0.9267,18.8266 -20.632,28.7066 -37.3334,28 5.1734,-20.6134 19.2267,-24.64 37.3334,-28 m -331.11074,16.8933 -0.4453,0.88 0.4453,-0.88 m 17.7773,7.1067 c 6.5094,-3.6134 12.2734,3.0133 13.3334,9.3333 l -10.6667,-2.6667 4,-1.3333 v -1.3333 l -5.3333,-2.6667 h -1.3334 l -14.6666,-4 1.3333,-4 c 5.692,1.08 10.3787,1.3067 13.3333,6.6667 m 17.33344,9.3333 -1.3334,1.3333 1.3334,-1.3333 m -370.42144,2.48 c -7.628,0.2933 -40.2653,13.7467 -23.8413,23.6133 6.14,3.68 14.2867,0.2267 20.9293,0.5334 17.2067,0.7866 35.3307,8.4933 52.38,6.28 10.884,-1.4267 27.4054,-17.6 11.068,-25.44 -5.7706,-2.76 -13.3706,0.8533 -19.448,0.2666 -13.604,-1.2933 -27.2293,-5.76 -41.088,-5.2533 m 289.088,12.1867 1.3334,8 c -5.9187,2.1333 -13.6054,6.5066 -19.9934,5.96 -8.1813,-0.6934 -10.2973,-10.4267 -3.8093,-15 8.58,-6.04 14.2253,-3.12 22.4693,1.04 m 41.3334,-6.2267 c 1.0306,0 0.2133,0.6667 -0.444,0.4533 l 0.444,-0.4533 m -152,7.56 -1.3334,4 -6.6666,-4 h -1.3334 c -4.3733,4.6 -11.2613,-0.1333 -14.6666,-4 h 20 l 4,4 m 502.66664,-1.3333 c -7.44,16.9066 -32.7426,7.4533 -46.6666,8 l 1.3333,-4 45.3333,-4 m -460.00004,4 c -0.7,4.2933 -3.776,9.7066 -8,5.3333 -7.4213,1.56 -24.392,2.4933 -29.3333,-4 l -5.3333,1.3333 c 6.2346,-10.64 32.116,-3.24 42.6666,-2.6666 M 968,1724.004 h -1.3333 v -2.6667 c -3.4534,10.0667 -8.0067,24.52 -17.7667,30.44 -7.7507,4.6934 -16.6973,1.2 -24.9,1.8534 -17.4147,1.4133 -34.0107,3.2133 -52,2.2 -16.1387,-0.92 -24.3733,-1.24 -33.9587,-13.88 -4.23204,-5.5867 -9.20134,-11.3067 -6.79064,-19.08 2.4933,-8.0534 24.84664,-2.9334 31.41604,-2.6267 29.0973,1.32 53.732,1.0933 82.6666,-3.4533 9.4974,-1.4934 22.244,-5.6667 22.6667,7.2133 m -542.22274,-5.7733 0.4454,0.88 -0.4454,-0.88 M 1024,1732.004 c -10.8893,7.56 -25.472,10.6267 -38.6667,10.6667 4.1494,-13.0134 30.0827,-27.1067 38.6667,-10.6667 m -213.33334,10.6667 v 1.3333 l -2.6667,5.3333 c -10.6813,-0.4933 -30.3453,-5.56 -32,-17.3333 l 12,-2.6667 c 10.9187,0.8934 14.8733,6.5467 22.6667,13.3334 m -104,-9.3334 c 5.7466,2.0534 11.7066,2.2 17.332,4.9334 25.584,12.4266 10.468,24.8933 -7.9987,32.8533 -19.78,8.5333 -51.456,11.92 -72,4.88 l 2.6667,-9.3333 4,1.3333 c 1.916,-13.48 21.9693,-29.2133 34.6666,-32.6933 7.1347,-1.9467 14.408,0.7733 21.3334,-1.9734 m -60,1.3334 -1.3334,1.3333 1.3334,-1.3333 m 45.3333,0 1.3333,1.3333 -1.3333,-1.3333 m 416.00004,16 c 7.3933,1.4533 24.4293,22.3066 11.8547,27.0933 -6.008,2.28 -12.7627,-1.2533 -18.5214,-2.64 -13.0946,-3.1467 -27.7626,-3.7733 -39.98,-9.8933 -4.64,-2.3334 -13.968,-6.7467 -13.304,-13.1734 0.6827,-6.6133 10.9094,-9 15.9507,-10.7866 14.6413,-5.2 35.732,-7.16 44,9.4 m -584.00134,-4.6934 c -10.424,1.5734 -44.6027,18.0934 -23.9734,30.3867 10.0054,5.96 14.3694,-0.3467 24.0267,-0.5333 14.1973,-0.2667 30.8413,8.3333 44.5133,6.0933 11.7694,-1.9333 33.4147,-15.64 14.9334,-26.8133 -5.056,-3.0534 -12.5694,-1.2534 -18.1654,-1.8 -12.5813,-1.2267 -29.3053,-9.16 -41.3346,-7.3334 m 698.66804,8.6934 c -8.3934,-15.8934 -61.516,-12 -59.8894,10.6666 0.5734,7.9734 5.4254,14.1734 13.5187,15.48 7.6827,1.24 16.0107,-3.4 23.704,-3.4 18.2027,0 42.2773,9.0134 58.6293,-3.1866 9.5467,-7.1334 4.508,-18.1067 -5.296,-21.56 -7.764,-2.7334 -22.8506,-0.04 -30.6666,2 m -453.33344,2.6666 c 14.288,4.24 28.076,11.2134 43.048,14 37.25744,6.9334 80.72944,4.04 118.28544,1.9467 16.9186,-0.9467 35.168,-2.3733 52,-4.1733 9.3973,-1.0134 17.0933,-3.9867 26.6666,-2.44 -7.564,24.1333 -37.5466,33.7866 -58.548,42.1066 -13.7106,5.44 -28.1853,10.24 -41.452,16.8 -5.9906,2.96 -11.6946,8.9734 -18.6466,9.32 -10.0787,0.4934 -20.464,-9.2133 -29.3587,-12.8266 -31.08674,-12.6267 -78.23204,-27.28 -95.99474,-58.0667 l 2.6667,1.3333 -2.6667,-2.6666 v -1.3334 l 4,-4 m -81.3333,73.3334 61.3333,4 -5.3333,17.3333 c 3.332,6.6 8.352,11.12 16,12.36 6.84,1.1067 13.0853,-4.3867 20,-4.16 15.8333,0.5067 32.0187,5.4933 48,3.4133 9.44674,-1.2266 17.49334,-8.5733 9.91474,-18.08 -6.83074,-8.5733 -24.42144,-4.9466 -33.91474,-5.84 -5.6053,-0.52 -11.9933,-3.4533 -17.3067,-5.32 -10.8946,-3.8533 0.8587,-15.6266 -8.2786,-22.3333 -6.8307,-5.0133 -17.1854,-2.08 -25.0814,-2.84 -7.672,-0.76 -14.8853,-4.5867 -22.6666,-5.5067 -17.1374,-2.0533 -57.1667,1.08 -42.6667,26.9734 m -90.6667,4 c 13.1307,-2.9467 32.0507,10.0266 44.3387,-4.76 5.5507,-6.68 -3.5987,-16.9334 -9.792,-19.3867 -7.0867,-2.8133 -16.3973,-0.6 -23.88,-1.32 -11.8387,-1.16 -22.2307,-6.4667 -34.6667,-4.1333 -8.2746,1.5466 -17.7013,4.2133 -23.128,11.1866 -4.0786,5.2267 -3.8453,15.92 3.3054,18.7067 12.536,4.8933 29.7626,-3.68 43.8226,-0.2933 M 1172,1840.004 l 12,-17.3333 c -10.4853,-9 -19.084,-7.3734 -32,-9.9734 -12.5587,-2.5333 -25.444,-8.28 -38.6667,-5.5733 -13.2253,2.72 -21.8773,19.9867 -9.1373,29.4133 5.4907,4.0534 13.5773,0.5734 19.804,0.6934 15.6587,0.3066 32.6907,1.08 48,2.7733 m -885.33334,-12 c 4.2253,13.9333 34.5773,18.5733 46.4386,12.9867 7.1854,-3.3867 11.0174,-11.9867 1.5027,-15.5467 -4.2107,-1.5733 -8.9547,-2.4667 -13.2747,-3.84 -5.6026,-1.8 -10.5186,-0.053 -16,1.32 -6.66,1.68 -12.3933,1.9333 -18.6666,5.08 m -53.3334,1.3333 c 20.4814,3.7867 6.9827,-13.84 0,0 M 37.333365,1912.004 c -2.8666,12.52 7.043,39.12 18.6667,45.3333 3.8097,25.9867 20.8467,46.9334 36.3909,66.7867 3.4655,4.4267 19.055195,18.8933 17.475395,24.5067 -1.4994,5.3333 -12.338595,6.6666 -16.532995,9.08 -10.5968,6.1066 -22.9801,4.8133 -34.6666,6.5733 -6.4939,0.9867 -12.2084,4.8533 -18.6667,6.0667 -8.3019,1.5866 -18.7055,-0.3467 -24.5288,7.3866 -8.3241003,11.08 13.4267,27.5334 20.5617,34.2667 11.5839,10.92 21.2392,24.24 33.353,34.4267 9.2156,7.7466 19.6404,12.0266 29.5072,18.12 8.482195,5.2533 21.603595,15.6266 31.773595,14.12 l 22.6665,14.6666 c 8.104,-0.013 19.5747,10.12 22.6667,17.3334 h -1.3333 v -2.6667 h -1.3334 c 4.0334,24.4267 1.5507,54.0533 1.0747,78.6667 -0.1507,7.7466 -5.768,22.44 1.592,28 -2.1827,5.16 -3.964,9.8933 1.3333,13.3333 l -1.3333,5.3333 c 22.996,15.72 46.396,20.5067 71.9947,29.48 39.8266,13.96 80.3533,21.32 122.672,25.4134 12.9373,1.2533 25.6933,5.8666 38.6666,6.1733 7.944,0.1867 15.848,-3.48 24,-3.68 21.3894,-0.52 43.4187,3.1333 64.7867,3.4933 12.38,0.2134 24.5147,-3.8 36.5467,-4.12 29.3973,-0.7733 58.712,-9.6266 88,-8.7066 11.152,0.36 31.244,2.5333 38.6666,-8.0534 22.104,4.7334 48.5214,-4.72 70.6667,-6.3866 20.8813,-1.5734 41.8307,-1.12 62.6667,-3.08 5.9253,-0.56 11.2826,-3.3067 17.3333,-3.32 20.3533,-0.067 40.85874,3.4666 61.21474,3.32 9.1186,-0.053 17.892,-3.12 26.78,-3.2534 8.2333,-0.12 15.2613,3.88 23.2373,4.28 13.952,0.7067 27.9053,-2.72 42.1013,-1.6133 5.2214,0.4 9.5347,3.6 14.6667,4.44 15.232,2.48 31.2773,0.4267 46.6667,1.7333 6.148,0.5334 11.2426,4.2267 17.3133,4.9334 26.916,3.1066 54.312,2.3333 81.3533,3.3733 6.792,0.2667 12.1787,3.5467 18.6667,4.6133 13.1573,2.16 27.844,1.64 41.2147,2.6267 37.8093,2.7867 75.636,0.36 113.4466,0.32 39.4454,-0.053 78.9787,-13.3733 117.3387,-19.0267 13.5867,-2.0133 27.7867,-13.4 41.3333,-10.2933 14.68,-17.0667 49.5734,-8.84 61.6934,-32 6.1466,-11.76 1.9333,-29.0133 0.5866,-41.3333 -1.9466,-17.7867 1.04,-36.6 0.3334,-54.6667 -0.3467,-8.8933 -1.5734,-21.5333 3.8933,-29.2 5.52,-7.7467 20.5067,-12.9333 29.4933,-14.8 0,-7.3467 28.4934,-13.88 34.6667,-18.44 8.5733,-6.3467 20.2133,-10.84 28,-17.7867 10.4267,-9.3066 16.9067,-20.24 25.7733,-30.2133 11.52,-12.96 32.8934,-21.6533 32.8934,-41.56 -15.5734,-3.0267 -30.1867,-8.6933 -45.3334,-12.5867 -8.4266,-2.1733 -16.8266,-1.4266 -25.3333,-4.28 -5.56,-1.8533 -20.2933,-0.6933 -20.7333,-9.2533 -0.2667,-5.0267 6.5066,-9.8667 8.8266,-13.88 7.8934,-13.6667 18.2667,-26.2 27.0134,-39.9467 5.3466,-8.3866 11.9866,-16.0933 10.2266,-26.72 10.0934,-6.28 13.7334,-21.4933 17.7334,-32 9.0666,-23.7466 18.4,-46.7733 27.1866,-70.6666 2.7867,-7.5867 5.84,-29.4667 -4.9466,-32.3867 -7.4667,-2.0133 -18.2267,12.0933 -22.4134,17.1467 -14.1333,17.0666 -37.2933,31.4666 -55.0133,44.9066 -40.64,30.8267 -102.6933,46.7867 -151.88,56.8667 -24.6267,5.0533 -44.72,11.1867 -68,20.44 -12.4267,4.9333 -27.4933,9.4267 -36.6933,19.92 -6.6187,7.56 -4.1294,17.2267 -4.7587,26.44 -1.5053,21.9733 -2.584,43.2 -2.408,65.2133 0.085,10.6267 2.4907,28.24 -9.4987,33.44 -13.7813,6 -31.9906,4.32 -46.6413,6.4134 -47.332,6.8 -92.1373,-2.8667 -138.6667,-8.5867 -9.996,-1.2267 -20.604,2.6667 -30.7186,1.36 -13.4854,-1.7467 -26.0867,-5.9067 -39.928,-6.9067 -22.9267,-1.68 -45.2534,-5.72 -68.02,-7.9466 -8.5947,-0.84 -17.2494,1.8933 -25.8987,1.08 -48.1947,-4.5334 -95.0533,-4.08 -143.43474,-4.0667 -11.988,0 -24.092,-2.64 -36,-2.32 -32.1826,0.8533 -64.344,8.9067 -96,12.7467 -16.644,2.0133 -33.096,0.5333 -49.56,2.0666 -11.6426,1.08 -22.884,4.7867 -34.44,5.9467 -21.1666,2.12 -42.8706,0.5067 -64,3.4533 -35.204,4.9067 -70.5066,10.6 -106.6666,6.2534 -21.284,-2.56 -44.4027,-1.96 -64,-10.8134 1.072,-5.8 -2.524,-9.08 -3.032,-14.6666 -1.3454,-14.8 0.1666,-33.0134 0.5373,-48 0.4413,-17.8934 7.784,-38.6667 0.2173,-55.9467 -3.7626,-8.5867 -13.18,-11.9733 -19.056,-18.72 -15.2293,-1.04 -30.9546,-11.5867 -45.3333,-16.44 -28.9533,-9.76 -61.072,-20.8933 -92,-22.2267 -2.2373,-7.6533 -11.1653,-4.3733 -17.3333,-5.6133 -9.448,-1.9067 -32.5667,-8.7733 -38.6667,-15.72 -39.4531,-6.3867 -72.301595,-41.6133 -101.900195,-65.32 -8.0514,-6.4533 -20.628,-25.2533 -30.219,-27.5733 -12.5818,-3.0267 -13.8086,10.7866 -13.0895,19.56 1.3909,16.9866 5.2692,34.4666 12.8672,49.9066 3.2468,6.5867 2.3753,11.5734 9.6749,15.4267 m 611.999895,-67.2667 c -13.408,3.36 -23.7866,21.8667 -6.6146,28.64 6.4466,2.5334 14.532,-1.5333 21.2813,-1.24 16.0347,0.7067 37.8373,7.36 53.3333,2.0134 10.5974,-3.6667 19.8707,-18.9067 5.208,-24.96 -6.144,-2.52 -12.24,1.24 -18.4893,0.92 -17.5907,-0.88 -37.504,-9.68 -54.7187,-5.3734 m 393.33874,3.0267 c -11.8067,3.4667 -20.716,22.68 -6.6133,29.08 7.7653,3.5333 18.172,-0.5067 26.608,0.1067 18.6453,1.36 42.2773,11.3866 61.0293,2.08 9.6107,-4.76 4.1427,-19.96 -3.804,-23.2667 -6.432,-2.68 -14.4707,-1.0533 -21.2253,-2.4533 -17.28,-3.5734 -38.0174,-10.84 -55.9947,-5.5467 m -274.67204,34.3733 c -8.6947,2.0534 -32.5133,18.9334 -15.5933,26.88 8.444,3.96 21.284,-1.0933 30.1413,-1.32 15.7933,-0.3866 34.716,10.9067 50.7853,5.3867 9.74544,-3.3333 18.32674,-21.6667 5.25474,-26.9467 -7.73474,-3.12 -16.07874,2.2934 -23.92134,1.9467 -15.5067,-0.6933 -30.712,-9.7067 -46.6667,-5.9467 m 182.66674,7.96 c -11.736,0.52 -43.1254,15.7467 -22.5414,28.4534 6.98,4.3066 15.0454,0.7066 22.5414,0.4666 10.4653,-0.3333 20.4053,4.32 30.6666,3.5334 11.9854,-0.92 30.984,-12.6667 14.2654,-23.5734 -7.716,-5.04 -18.896,-3.1466 -27.5987,-4.8133 -5.756,-1.0933 -11.3853,-4.3333 -17.3333,-4.0667 m -881.333335,12.5734 -1.3333,4 16.2264,7.2266 50.440195,29.2534 28,14.1866 24,1.3334 c 6.604,4.08 12.6373,2.5733 19.4333,5.08 14.612,5.3733 31.7173,13.9733 47.232,14.8666 8.6613,0.5067 28.3267,-0.053 30.668,10.72 15.964,1.64 34.9933,9.4534 48.952,17.4534 5.296,3.04 13.196,10.36 6.6187,16.28 -14.0547,12.6533 -30.7227,7.6533 -47.0054,7.4266 -13.8773,-0.2 -28.068,2.3867 -41.8986,3.32 -6.376,0.4267 -12.3614,-2.0933 -18.6667,-1.6533 -10.6707,0.7333 -23.48,7.2133 -32.5653,12.52 -7.0774,4.1333 -14.288,4.92 -18.7707,12.6667 -5.8893,10.2 -3.7853,29.5066 -5.04,41.32 -1.1147,10.5066 -4.496,37.0133 1.7093,45.3333 v 1.3333 c -2.6693,4.8134 -1.204,13.96 -6.9706,16.5334 -8.456,3.7466 -25.0147,-5.72 -33.0294,-8.7867 -33.9859,-13.04 -65.333695,-39.1467 -93.333195,-61.08 7.8256,-6.9867 17.0428,-6.8933 26.6667,-9.12 18.5818,-4.32 38.494395,-7.8133 55.999995,-15.24 5.8716,-2.4933 12.2785,-2.6133 16.6545,-7.8933 15.184,-18.3067 -10.0776,-32.6 -20.8963,-44.52 -27.393595,-30.16 -56.341195,-72.4 -58.424895,-113.8934 l 5.3333,1.3334 m 1565.333335,2.6666 c -6.1067,7.04 -5.4934,17.2934 -9.9734,25.1067 -18.28,31.9333 -32.0533,66.9067 -60.3066,91.68 -8.3334,7.3067 -24.4,19.9333 -15.92,32.72 9.2933,13.9867 28.0933,14.2 42.2,18.36 7.68,2.2667 15.2266,7.52 22.7866,9.1067 6.6934,1.3866 25.7734,-2.3467 27.92,7.1733 2.6667,11.88 -18.4,17.4533 -24.9466,22.8 -20.84,17.0533 -45.0934,33.8667 -70.9734,42.3467 -9.08,2.9733 -14.24,8.2266 -24.12,5.3733 0,-22.04 -1.6266,-43.4933 -2.6133,-65.3333 -0.9333,-20.6267 6.28,-35.5067 -16.0533,-48.6667 -10.1067,-5.96 -22.16,-6.72 -33.3334,-8.0667 -20.5333,-2.4533 -42.8133,-5.8933 -64,-5.9333 -15.6533,-0.027 -38.4933,-1.7467 -44,-20 4.8134,-0.8 7.1867,-5.5867 12,-8 4.6,-2.2933 11.0934,-2.36 16,-4 8.32,-2.7733 15.8934,-8.6133 24,-12 17.68,-7.3733 40.4267,-10.48 58.6667,-12 5.5733,-0.4667 12.3067,-6.8133 17.3333,-9.3333 7.16,-3.5734 18.92,-3.4 26.6667,-5.3334 11.8,-2.9466 23.92,-5.2933 34.6667,-10.6666 4.5733,-2.28 11.5333,-1.8534 10.6666,-5.3334 15.48,-0.6 40.28,-21.2933 52,-30.8666 5.5334,-4.52 14.7334,-15.4534 21.3334,-9.1334 m -4,1.3334 1.3333,1.3333 -1.3333,-1.3333 m -969.33344,20 -1.3333,1.3333 1.3333,-1.3333 m 0,2.6666 -1.3333,1.3334 1.3333,-1.3334 m 53.3334,8 -1.3334,1.3334 1.3334,-1.3334 m 864.00004,65.3334 1.3333,1.3333 -1.3333,-1.3333 M 1480,2077.3373 c -26.4,16.6667 -66.2133,30.8267 -97.3333,33.3334 -9.4534,0.76 -20.52,4.16 -29.3334,0 v -56 c 20.28,0.8 39.3067,6.9333 60,7.2133 12.2534,0.16 25.0934,-4.0933 37.3334,-0.52 10.6133,3.08 26.0533,3.72 29.3333,15.9733 m -1132.00004,32 c -22.168,7.92 -37.5867,-2.64 -58.6667,-7.3866 -15.1653,-3.4267 -30.6413,-2.4534 -44.1,-11.6534 -8.6693,-5.9333 -19.3413,-3.56 -22.5666,-15.6266 h -5.3334 c 27.06,-20.4134 66.7694,-9.0134 98.6667,-12.04 7.7053,-0.7334 24.064,-12.3734 31.592,-4.8134 4.7667,4.7867 0.9187,12.6134 0.5187,18.1867 -0.6907,9.6267 -1.364,24.0133 -0.1107,33.3333 m -132,-2.6666 c 7.944,8.1466 22.796,9.4266 33.1067,13.2 26.7186,9.76 53.9786,20.12 82.8933,20.1333 l -1.3333,2.6667 60,6.6666 c 7.6626,4.8134 19.4106,0.8 28,1.6134 9.4186,0.8933 18.5173,4.7866 28,5.32 11.3093,0.64 22.0306,-3.1867 33.3333,-2.92 9.6947,0.24 21.2347,4.36 29.3333,-2.68 22.9174,2.84 51.8387,1.8266 74.6614,-1.6667 8.004,-1.2267 15.348,-5.0533 23.4346,-5.8933 32.668,-3.3867 65.664,-4.4134 97.904,-8.6534 29.8054,-3.92 58.3147,-9.4133 88,-11.1866 15.884,-0.9334 32.156,2.16 48.11874,1.1333 28.2547,-1.8267 60.5133,-4.3333 89.2147,-0.9067 9.5226,1.1467 18.7213,6.08 28,7.16 28.856,3.3867 58.9853,1.48 88,4.24 23.236,2.2134 45.1253,8.04 68,11.4934 26.8306,4.04 56.8853,2.1733 84,4.16 34.2866,2.5066 69.256,3.2933 103.4346,0.2 10.5894,-0.96 22.0494,-0.7734 32.5654,-2.5067 11.5733,-1.9067 21.5866,-6.4133 33.3333,-2.9067 v 2.6667 c -9.2267,3.4267 -19.3467,9.1867 -24.76,17.7067 -6.92,10.8933 -4.6533,21.04 -19.24,25.1333 -23.6053,6.6133 -47.976,4.6933 -72,5.1867 -11.148,0.2133 -22.0173,4.1333 -33.3333,2.3466 -6.5587,-1.04 -16.684,-2.1466 -22.4214,-5.5066 -4.1346,-2.4267 -6.9826,-9.6267 -12.3453,-9.4 -4.4427,0.1866 -6.6813,5.1333 -10.7387,6.44 -6.8106,2.1866 -14.412,-0.1467 -21.388,1.4933 -6.3186,1.4933 -10.6893,6.3333 -17.1066,7.2667 0,-16.3067 -33.0134,-16.72 -44,-17.3334 -41.212,-2.2933 -82.2094,-11.1733 -122.6667,-15.1066 -4.6733,-0.4534 -13.1707,0.52 -17.3333,-1.56 -9.6014,-4.8 -18.3267,-18.6267 -24,-0.6667 -14.0347,-0.76 -26.5694,-15.0133 -36,2.6667 -9.9427,-0.2267 -22.392,-2.3734 -32,-0.4 -10.3667,2.12 -21.752,9.4933 -32.76804,7.5466 -8.9894,-1.5866 -9.8707,-10.3333 -14.0654,-16.3066 -3.6466,-5.1867 -12.6746,-10.12 -18.5,-12.3334 -10.0573,-3.8133 -24.492,-8.0533 -35.232,-6.36 -9.2213,1.4534 -18.5,8.24 -27.4346,7.8534 -4.0894,7.0933 -12.324,9.9333 -16.988,16.68 -8.1627,11.8266 -8.812,22.6 -11.012,35.32 l 13.3333,5.3333 v 10.6667 h 2.6667 l -5.3334,13.3333 c 12.4267,9.4133 -0.896,33.76 3.8574,46.6533 2.692,7.28 15.3813,18.6667 19.712,6.6534 5.0426,-13.9867 3.0973,-30.7334 3.0973,-45.3067 14.708,1.5867 38.6387,11.0133 49.2613,21.5867 4.5334,4.5066 11.668,21.5066 19.8947,19 7.1813,-2.1867 6.1507,-18.72 8.1773,-24.5867 h -2.6666 l 2.6666,-20 h 5.3334 l -4,4 v 1.3333 c 10.0866,3.4934 11.7346,18.5867 22.66804,23.1867 16.8293,7.08 31.2346,-4.2667 46.592,0.067 6.5,1.8266 9.952,14.9866 18.1093,7.96 5.192,-4.48 3.5413,-16.7867 3.4893,-23.2134 -0.148,-18.4266 4.432,-36.2533 3.808,-54.6666 l 5.3334,-1.3334 -1.3334,5.3334 c 6.9334,3.9466 12.3827,20.88 5.3334,26.6666 5.7093,14.76 -3.5787,34.04 2.8533,48 4.1787,9.0667 21.1227,13.4667 22.5493,-0.053 1.112,-10.5333 -4.6386,-20.5467 -5.2573,-30.6133 -1.0707,-17.44 1.0507,-35.96 2.5213,-53.3334 l 13.3334,-2.6666 20,9.3333 c -4.6787,2.88 -9.868,4.28 -14.6147,6.9467 -3.0347,1.7066 -5.7373,4.1066 -7.9747,6.7733 -17.9986,21.4 16.4934,26.2267 23.9227,38.28 l 19.99999,20 c -1.28529,9.52 10.54401,21.72 18.66001,11.5867 6.7467,-8.44 -0.7467,-23.7734 6.6733,-30.2534 L 1024,2236.004 h 1.3333 v 5.3333 l 22.912,19.5734 25.088,7.0933 c 0,7.1067 23.4854,23.8 28.6667,10.6667 3.452,-8.7467 -33.9853,-30.3734 -8.6667,-31.7734 2.2094,-0.1333 4.5027,0.7067 6.6667,1.1067 l 2.6667,6.6667 c 15.4426,0.013 36.8733,14.6 40,30.6666 l 4,-1.3333 c 4.3066,15.16 15.116,5.32 16.8986,-5.3333 3.4454,-20.5734 -2.6453,-40.7067 -0.8986,-61.3334 l 2.6666,2.6667 2.6667,-1.3333 c 7.3373,10.4133 8.968,23.7066 5.3333,36 l 2.6667,9.3333 h -2.6667 c 1.972,6.1333 0.5734,11.5333 1.4054,17.72 0.8253,6.1333 10.884,22.32 15.74,9.3867 5.34,-14.2134 0.029,-31.44 4.188,-45.7734 l 2.6666,2.6667 4,-1.3333 c 1.3134,13.1466 13.452,10.2266 22.6147,14.6266 8.4653,4.0534 29.74,25.36 29.3853,34.7067 24.54,7.5733 16.58,-33.5467 14.6667,-48 l 4,-4 -4,1.3333 4,-4 v -1.3333 -1.3333 l -4,-5.3334 h 2.6667 l -1.3334,-4 2.6667,5.3334 c 7.324,10.4933 -0.7853,30.2933 19.6333,33.2933 7.7187,1.1333 13.8507,-15.0667 21.0854,-10.52 8.592,5.4 1.1066,19.08 4.5373,26.3333 1.9547,4.12 8.2413,8.8934 12.4213,4.7467 4.5227,-4.48 3.4734,-17.3333 3.208,-23.1867 -0.6293,-13.92 1.5947,-30.5733 15.1147,-37.3333 0.3733,20.6533 -7.4,57.52 18.6667,62.6667 2.84,-7.3067 4.5466,-14.68 3.7333,-22.6667 -1.2933,-12.7467 -10.5333,-29.5467 5.6,-37.3333 l -1.3333,5.3333 c 7.3733,4.16 11.72,13.2667 17.4133,19.4267 12.5333,13.5866 26.1467,22.7333 45.2533,22.64 21.0534,-0.1067 34.2667,-20.5067 32.5067,-39.4 -0.52,-5.7334 1.3467,-10.52 -3.1733,-14.6667 0.4133,-10.9333 -3.44,-22.1867 -0.7067,-33.2133 1.6533,-6.64 11.5333,-9.0667 11.7067,-16.1334 0.3066,-13.4 -21.1734,-10.6266 -28.3334,-6.6533 l -33.16,-18.1733 -13.5066,-7.16 c -6.8667,1.64 -13.2667,2.6133 -17.3334,-4 l 16,-4.8934 52,-16 12,-0.88 25.3334,-8.6666 5.7733,10.44 2.2267,38.6666 -0.2267,108 -1.1067,42.6667 c -50.8666,27.72 -103.52,38.1333 -160,45.3867 -15.2733,1.9733 -30.0946,7.16 -45.3333,8.8533 -13.9387,1.56 -29.856,-2.0667 -44,-2.24 -18.884,-0.2133 -37.0227,3.2 -56,2.1733 -11.2653,-0.6133 -21.2427,-4.7466 -32,-6.04 -12.756,-1.5333 -26.1147,1.1734 -38.6667,-0.4133 -15.448,-1.9733 -35.2066,-7.2 -50.6666,-5.0533 L 1048,2345.3373 v 2.6667 l -58.6653,-4.2133 -45.3347,-7.6667 -78.6667,2.4667 -116.38134,-0.027 -55.6187,8.44 -61.3333,8.147 -36,1.4266 -32,5.9734 -30.6667,2.7866 c -11.292,-0.5866 -33.576,-3.16 -42.6666,4 -58.7347,-5.36 -117.732,-3.2933 -175.7734,-16.3333 -21.6106,-4.8533 -42.8413,-11.4533 -64.2786,-17.9333 -10.9894,-3.3334 -23.1134,-10.7334 -34.6147,-9.7334 -4.0813,-6.3733 -13.3853,-7.88 -16.3493,-14.36 -8.212,-17.9866 -3.4947,-51.1866 -0.976,-70.4133 0.9613,-7.3333 -0.708,-15.72 3.992,-21.8933 -3.6214,-5.2267 -5.2507,-16.8934 0,-21.3334 v -1.3333 l -3.6294,-38.6667 3.6294,-6.6666 -4,-34.6667 4.444,-6 12.8893,-3.3333 m 348,44 1.3333,1.3333 -1.3333,-1.3333 m 222.6667,12 8,5.3333 c -3.18,5.44 -23.4227,11.4 -28,6.6667 l -26.6667,2.6666 6.6667,-8 -2.6667,-2.6666 16,-4 c 6.7,-8.28 18.2413,-0.04 26.6667,0 m -542.6667,30.6666 h -4 c -1.9507,-19.0666 -9.916,-18.7733 -24,-8 l 2.6667,5.3334 c -14.1174,8.5733 0.8066,25.44 0,37.3333 10.652,3.0267 16.804,14.0267 25.9413,19.72 12.888,8.0267 28.8333,10.88 42.0067,18.64 5.3026,3.12 8.6946,16.64 14.752,16.0667 5.368,-0.4934 7.1506,-6.7867 7.644,-11.2 1.4106,-12.5467 3.2146,-25.36 1.656,-37.8934 6.0426,2.68 9.3506,8.32 14.8986,11.72 8.0667,4.9467 18.4107,7.4 24.5627,15.1867 5.4587,6.92 11.932,42.04 28.1213,31.72 2.6667,-1.6933 3.8094,-5.56 5.7507,-7.96 l -2.6667,-12 22.5427,-4.04 17.4573,-15.96 c 4.7747,17.4533 18.644,33.2 30.3267,46.6533 3.492,4.0134 13.652,13.9067 18.5107,6.2534 5.632,-8.8667 -6.556,-21.76 -7.504,-30.24 -8.148,-7.2667 -17.9307,-21.6267 -21.3334,-32 4.544,-1.6934 10.2934,-2.8267 13.924,-6.2 11.0574,-10.28 16.884,-38.04 0.152,-45.9334 -12,-5.6666 -25.6426,0.92 -38.076,-1.5866 -26.436,-5.3067 -51.8413,-11.5467 -78.6666,-16.0134 -10.0467,-1.6666 -17.5454,-6.7733 -28,-4.9333 l -8,-2.6667 c -4.8254,-6.0533 -13.264,-4.6 -20,-2.88 -15.744,4.0267 -32.9987,15.4 -38.6667,30.88 m 1169.33334,-22.6666 v 1.3333 l -36,10.6667 H 1376 h -1.3333 l 1.3333,-4 h -6.6667 l 12,-8 -1.3333,-2.6667 16.2267,-2.1467 17.1066,4.8134 m -622.66664,-1.3334 1.3333,1.3334 -1.3333,-1.3334 m -549.3334,21.3334 1.3334,1.3333 -1.3334,-1.3333 m 8,0 -2.6666,9.3333 h -4 c 3.26,3.4667 4.0346,5.28 1.3333,9.3333 l 2.6667,5.3334 -5.3334,-4 1.3334,-2.6667 -4,-1.3333 2.6666,-4 -1.3333,-6.6667 4,1.3333 2.6667,-6.6666 h 2.6666 m 248,8 14.6667,22.6666 5.3333,-1.3333 v 2.6667 c 8.3667,-0.5334 19.8307,6.7866 11.2507,15.4266 -4.204,4.2267 -11.4987,4.3467 -16.3867,8.0267 -2.5186,1.9067 -4.0506,3.9333 -3.6653,7.2133 1.1707,9.9734 19,30.3067 28.8013,18.6667 l 4,1.3333 c 2.104,-3.16 4.372,-5.9466 6.9147,-8.7733 24.988,-27.72 15.9493,34.28 34.644,38.4667 6.0867,1.36 10.236,-6.04 10.9347,-11.0267 2.1626,-15.44 2.0453,-33.5867 2.1733,-49.3333 l 22.6667,21.3333 12,4 c 11.568,0.3333 27.5946,8.8667 28,21.3333 -2.2547,0.067 -4.48,0.027 -6.6787,0.6267 -23.0413,6.3067 9.836,27.9733 13.3453,34.04 4.6107,1.1467 9.78,4.84 14.6414,3.1733 7.3506,-2.52 7.908,-14.6266 2.692,-19.1733 l 1.3333,-4 -16,-8 4,-6.6667 5.3333,1.3334 c 3.4667,-18.6667 -10.4573,-44.96 -30.6666,-48 3.308,-3.72 9.3453,-6.0667 11.968,-10.0667 5.1106,-7.8 2.9813,-34.0933 -5.548,-38.84 -15.232,-8.4933 -30.5587,4.5067 -44.9667,4.1733 -5.2987,-0.12 -9.512,-3.92 -14.7867,-4.4533 -12.1893,-1.24 -25.032,0.3467 -37.3333,-0.2 -20.436,-0.9067 -39.6307,-4.3467 -58.6667,5.3867 m -178.6666,-6.6667 25.3333,5.3333 c -5.82,8.84 -19.456,12.6 -29.3333,13.3334 l -1.3334,-17.3334 5.3334,-1.3333 m 454.6666,5.3333 c -4.8826,9.4934 -19.9466,19.2934 -30.6666,20 1.3466,-19.12 12.228,-22.0266 30.6666,-20 m -444.444,1.7734 0.888,0.4533 -0.888,-0.4533 m -114.2226,2.2266 -1.3334,1.3334 1.3334,-1.3334 m 878.66664,1.3334 2.6667,4 -1.3333,1.3333 h -1.3334 l -1.3333,-1.3333 1.3333,-4 m -270.66664,2.6666 -2.6667,2.6667 v -2.6667 h 2.6667 m 270.66664,0 1.3334,1.3334 -1.3334,-1.3334 m -677.33334,5.3334 c -0.8,7.2 0.1,13.44 5.3333,18.6666 l -2.6666,2.6667 6.6666,1.3333 v 1.3334 h -4 c 0.8254,7.44 0.1454,14.5866 -6.6666,18.6666 l 4,-4 c -4.0747,-7.0533 -11.6907,-17.4933 -2.6667,-24 v -1.3333 l -4,1.3333 -4,-2.6666 -2.6667,-13.3334 10.6667,1.3334 m 409.3333,-2.6667 1.3334,6.6667 6.6666,-1.3334 -10.6666,13.3334 h -6.6667 l 1.3333,-14.6667 1.3334,-1.3333 2.6666,1.3333 4,-4 m 65.33344,2.6667 -1.3334,20 -4,-1.3334 1.3334,4 -1.3334,1.3334 -29.3333,4 v -5.3334 c 10.9347,-6.04 22.3987,-22.9733 34.6667,-22.6666 M 1096,2209.3373 c 0.2147,6.5467 1.7773,8.6667 8,10.6667 v 1.3333 l -6.6667,2.6667 c -2.5026,-4.72 -4.372,-9.96 -1.3333,-14.6667 m -688.00004,1.3334 4,4 -4,-4 m 818.66674,6.6666 -9.3334,5.3334 c -3.1386,5.1066 -7.34,7.72 -13.3333,8 l -10.6667,5.3333 c -0.5733,-13.3733 -2.9853,-18.52 9.3334,-25.3333 8.7346,0.9733 19.8893,-3.1334 24,6.6666 m -906.66674,-5.3333 v 1.3333 h -4 l 4,-1.3333 m 674.66674,1.3333 2.6666,8 -5.3333,-2.6666 2.6667,-5.3334 m -108,1.3334 1.3333,1.3333 -1.3333,-1.3333 m -477.33344,1.3333 1.3334,1.3333 -1.3334,-1.3333 m 417.3334,0 1.3333,1.3333 -1.3333,-1.3333 m 172.00004,0.44 c 1.0306,0 0.2133,0.6667 -0.444,0.4533 l 0.444,-0.4533 m -50.6667,0.8933 1.3333,1.3334 -1.3333,-1.3334 m -124.00004,1.3334 1.3333,1.3333 -1.3333,-1.3333 m 480.00004,0.44 0.444,0.4533 c -0.6573,0.2133 -1.4747,-0.4533 -0.444,-0.4533 m -85.3333,2.2266 1.3333,1.3334 -1.3333,-1.3334 m -397.33344,6.6667 -1.3333,1.3333 1.3333,-1.3333 m 452.00004,0 -1.3333,1.3333 1.3333,-1.3333 m 97.3334,2.6667 -1.3334,1.3333 1.3334,-1.3333 m -232,1.3333 c 0.7666,3.2 0.6333,3.32 -2.6667,4 l 2.6667,-4 m -749.33344,1.3333 -1.3333,1.3334 1.3333,-1.3334 m 465.33344,0 v 4 h -1.3334 l 1.3334,-4 m 553.3333,0 4,4 -5.3333,-2.6666 1.3333,-1.3334 m -273.3333,1.3334 -1.3334,1.3333 1.3334,-1.3333 m -822.66674,1.3333 1.3333,1.3333 -1.3333,-1.3333 m 820.00004,0 v 2.6667 h -2.6667 L 1132,2236.004 m 4,1.3333 -1.3333,1.3334 1.3333,-1.3334 m 61.3333,0 -2.6666,2.6667 2.6666,4 -4,-1.3333 1.3334,-5.3334 h 2.6666 m 172.44,0.8934 0.4534,0.88 -0.4534,-0.88 m -231.1066,0.44 -1.3334,1.3333 1.3334,-1.3333 m -397.33344,1.3333 1.3334,1.3333 -1.3334,-1.3333 m -422.6666,1.3333 1.3333,1.3334 -1.3333,-1.3334 m 996.00004,13.3334 h -4 l 1.3333,-2.6667 2.6667,2.6667 m -750.66674,0 -1.3333,1.3333 1.3333,-1.3333 m -367.1107,39.1066 0.888,0.4534 -0.888,-0.4534 m 488.444,27.56 -1.3333,1.3334 1.3333,-1.3334 m -408,49.3334 -1.3333,1.3333 z"
       style="fill:#304188;stroke:none;stroke-width:1.33333" />
  </g>
</svg>
